<svg width="615" height="622" viewBox="0 0 615 622" fill="none" xmlns="http://www.w3.org/2000/svg">
<path fill-rule="evenodd" clip-rule="evenodd" d="M30.5497 0.641693H30.0488H0.500793V30.6879H27.044V71.066C22.5005 72.1756 18.3374 72.6807 14.9922 72.7532L13.522 72.7844V102.298V519.704H15.0244C19.2011 519.704 23.2057 519.974 27.044 520.48V547.852C23.1822 546.952 19.5933 546.467 16.5269 546.301V546.245H13.522V549.218L14.9922 549.25C18.3012 549.32 22.4701 549.824 27.044 550.941V591.315H0.500793V591.815V593.318V620.359V621.361V621.862H2.00324H29.0472H30.5497V621.361V620.359V594.82H584.45V621.361H584.951V621.862H586.454H612.997H614.499V621.361V620.359V593.318V591.815V591.315H587.956V550.941C592.529 549.824 596.699 549.32 600.008 549.25L601.478 549.218V546.245H598.473V546.301C595.406 546.467 591.817 546.952 587.956 547.852V520.48C591.794 519.973 595.799 519.704 599.976 519.704H601.478V102.298V72.7844L600.008 72.7532C596.662 72.6807 592.499 72.1756 587.956 71.066V30.6879H614.499V0.641693H584.951H584.45V27.6833H30.5497V0.641693ZM598.473 102.286V75.701C595.428 75.5357 591.837 75.0511 587.956 74.1449V101.523C591.332 101.969 594.836 102.23 598.473 102.286ZM584.45 104.034V195.441H584.951H587.455H587.956V104.553C591.338 104.984 594.842 105.237 598.473 105.292V516.712C594.842 516.766 591.338 517.018 587.956 517.45V427.062V426.561H584.45V517.969C563.164 521.551 546.996 532.324 535.19 545.167C521.138 560.452 513.242 578.688 510.143 591.315H104.857C101.758 578.688 93.8616 560.452 79.8095 545.167C68.0032 532.324 51.8363 521.55 30.5497 517.969V427.062V426.561H27.044V517.45C25.6178 517.268 24.1702 517.118 22.7 517.002C21.8363 516.933 20.9648 516.876 20.0853 516.831C18.9125 516.77 17.727 516.73 16.5269 516.712V105.292C17.9872 105.27 19.4271 105.216 20.8474 105.13C22.9572 105.004 25.0231 104.81 27.044 104.553V195.441H27.5448H30.0488H30.5497V104.034C51.8363 100.451 68.0032 89.6791 79.8095 76.8365C93.8616 61.5508 101.758 43.3163 104.857 30.6879H510.143C513.242 43.3163 521.138 61.5508 535.19 76.8365C546.996 89.6791 563.164 100.451 584.45 104.034ZM584.45 100.985V73.2295C568.24 68.548 548.573 56.5646 542.195 30.6879H513.242C516.357 42.8639 524.003 60.2275 537.403 74.8032C548.731 87.1254 564.152 97.444 584.45 100.985ZM101.758 30.6879H72.8049C66.4273 56.5646 46.7596 68.548 30.5497 73.2295V100.985C50.8473 97.444 66.2688 87.1254 77.5969 74.8032C90.9966 60.2275 98.6438 42.8639 101.758 30.6879ZM27.044 101.523V74.1449C24.8225 74.6633 22.6971 75.0438 20.7144 75.3059C19.2325 75.5015 17.8298 75.6306 16.5269 75.701V102.286C20.1637 102.23 23.6684 101.969 27.044 101.523ZM30.5497 521.017V548.767C46.7029 553.432 66.4234 565.428 72.8049 591.315H101.758C98.6438 579.138 90.9957 561.775 77.5969 547.199C66.2688 534.877 50.8473 524.559 30.5497 521.017ZM30.5497 591.315H69.7051C63.5917 567.741 45.7315 556.494 30.5497 551.9V591.315ZM584.45 521.017V548.767C568.297 553.432 548.577 565.428 542.195 591.315H513.242C516.357 579.138 524.004 561.775 537.403 547.199C548.731 534.877 564.152 524.559 584.45 521.017ZM30.5497 70.108V30.6879H69.7051C63.5878 54.2696 45.6788 65.5286 30.5497 70.108ZM584.45 70.108C569.322 65.5286 551.413 54.2696 545.295 30.6879H584.45V70.108ZM3.50568 3.64632H27.044V27.6833H3.50568V3.64632ZM587.956 27.6833V3.64632H611.494V27.6833H587.956ZM27.044 594.82V618.356H3.50568V594.82H27.044ZM611.494 618.356V594.82H587.956V618.356H611.494ZM584.45 551.9C569.269 556.494 551.409 567.741 545.295 591.315H584.45V551.9ZM30.5497 233.5H27.044V389.003H30.5497V233.5ZM584.45 233.5H587.956V389.003H584.45V233.5Z" fill="#DCCFA4"/>
</svg>
