<?xml version="1.0" standalone="no"?>
<!DOCTYPE svg PUBLIC "-//W3C//DTD SVG 1.1//EN" "http://www.w3.org/Graphics/SVG/1.1/DTD/svg11.dtd" >
<svg xmlns="http://www.w3.org/2000/svg" xmlns:xlink="http://www.w3.org/1999/xlink" version="1.1">
<metadata>
Created by FontForge 20150318 at Mon Oct 19 19:13:11 2015
 By uniteet7
Copyright (c) 1990-1996 ParaGraph
</metadata>
<defs>
<font id="bodonicwebfont" horiz-adv-x="1085" >
  <font-face 
    font-family="bodonicwebfont"
    font-weight="400"
    font-stretch="normal"
    units-per-em="2048"
    panose-1="0 0 5 0 0 0 0 0 0 0"
    ascent="1577"
    descent="-471"
    x-height="872"
    cap-height="1341"
    bbox="-154 -471 2662 1825"
    underline-thickness="102"
    underline-position="-102"
    unicode-range="U+0020-FB02"
  />
<missing-glyph horiz-adv-x="477" 
 />
    <glyph glyph-name=".notdef" horiz-adv-x="477" 
 />
    <glyph glyph-name=".null" horiz-adv-x="0" 
 />
    <glyph glyph-name="nonmarkingreturn" horiz-adv-x="682" 
 />
    <glyph glyph-name="space" unicode=" " horiz-adv-x="477" 
 />
    <glyph glyph-name="exclam" unicode="!" horiz-adv-x="618" 
d="M172 1237q0 61 37 94t100 33q70 0 103.5 -35t33.5 -86q0 -12 -30 -172q-43 -215 -58 -409q-8 -121 -12 -318h-74q-4 197 -12 318q-16 223 -59 415q-29 135 -29 160zM195 137q0 47 33.5 81t80.5 34t81 -34t34 -81t-34 -80.5t-81 -33.5t-80.5 33.5t-33.5 80.5z" />
    <glyph glyph-name="quotedbl" unicode="&#x22;" horiz-adv-x="808" 
d="M102 1364h195l-57 -453h-80zM463 1364h196l-59 -453h-78z" />
    <glyph glyph-name="numbersign" unicode="#" horiz-adv-x="1513" 
d="M115 242l26 184h287l59 389h-286l28 184h287l55 363h144l-56 -363h310l55 363h143l-55 -363h287l-29 -184h-287l-59 -389h287l-29 -184h-287l-55 -365h-143l55 365h-307l-56 -365h-143l53 365h-284zM573 426h306l59 389h-305z" />
    <glyph glyph-name="dollar" unicode="$" 
d="M86 2v426h27q59 -145 131 -231q53 -66 125.5 -113t144.5 -55v551l-86 24q-141 37 -215 131q-76 96 -76 244q0 203 129 309q96 78 248 74v151h59v-157q61 -4 181 -51q37 -20 67.5 -15.5t50.5 51.5h33l8 -323h-28q-49 117 -125 194q-80 82 -187 105v-508l121 -33
q182 -51 258 -184q47 -88 47 -199q0 -164 -86 -274q-119 -152 -340 -142v-180h-59v187q-104 16 -178 51q-10 4 -28.5 14t-29 15.5t-25.5 9.5t-28 4q-74 0 -86 -76h-53zM233 1075q0 -188 252 -244l29 -6v500q-55 8 -113.5 -11.5t-99.5 -62.5q-68 -72 -68 -176zM573 20
q121 -14 218.5 61t97.5 206q0 84 -53.5 153.5t-165.5 98.5l-97 24v-543z" />
    <glyph glyph-name="percent" unicode="%" horiz-adv-x="1728" 
d="M172 1047q0 174 131 266q72 51 162 51q94 0 166 -51q131 -90 131 -266q0 -166 -127 -263q-74 -55 -170 -55q-90 0 -166 55q-127 95 -127 263zM319 1004q0 -106 29 -164q43 -80 121 -80q76 0 117 80q29 57 28 164v86q0 106 -30 163q-43 80 -115 80q-74 0 -117 -80
q-33 -63 -33 -163v-86zM408 -166l854 1692l65 -29l-856 -1692zM967 297q0 174 131 266q72 51 162 51q94 0 165 -51q131 -90 131 -266q0 -166 -126 -262q-74 -55 -170 -55q-90 0 -166 55q-127 94 -127 262zM1114 254q0 -106 29 -164q43 -80 121 -80q76 0 116 80q29 57 29 164
v86q0 106 -31 164q-43 80 -114 80q-74 0 -117 -80q-33 -63 -33 -164v-86z" />
    <glyph glyph-name="ampersand" unicode="&#x26;" horiz-adv-x="1531" 
d="M86 389q0 188 172 283q125 68 305 84v10q-131 25 -198 72q-113 78 -113 221q0 174 184 260q96 45 232 45q131 0 213 -51q57 -35 88.5 -89.5t31.5 -109.5q0 -57 -33.5 -94t-86.5 -37q-51 0 -87 32t-36 75q0 45 39 90q49 49 49 69q0 29 -43 52.5t-123 23.5t-129 -31
q-76 -47 -76 -166v-135q0 -43 6 -73.5t28.5 -67.5t75 -56.5t134.5 -19.5h76v-45h-160q-106 0 -174 -39q-117 -72 -117 -282v-33q0 -137 68 -227q100 -133 258 -134q186 0 288 109q88 92 89 264q0 57 -9 98l-114 2q-147 2 -215 -28q-72 -33 -72 -74q0 -25 25 -25q2 0 32 13
q14 6 35 6q51 0 82 -31t31 -71q0 -47 -32 -82t-81 -35q-61 0 -100 44t-39 122q0 129 92 229q111 119 291 117l201 -2q70 0 102.5 1t88.5 17.5t79 48.5q10 12 10 49q0 8 -18 9l-19 -6q-25 -10 -47 -11q-61 0 -88 34t-27 73q0 43 29 76.5t82 33.5q63 0 100 -41t37 -120
q0 -123 -63.5 -201t-137 -113t-178.5 -35h-24q0 -6 2 -39.5t2 -50.5q0 -135 -53 -227q-111 -193 -396 -193q-238 0 -376 84q-82 49 -137.5 134t-55.5 194z" />
    <glyph glyph-name="quotesingle" unicode="'" horiz-adv-x="446" 
d="M125 1364h197l-60 -453h-78z" />
    <glyph glyph-name="parenleft" unicode="(" horiz-adv-x="999" 
d="M287 436q0 272 135 547q111 227 250 389l41 -18q-125 -199 -172 -402q-47 -199 -47 -516q0 -305 55 -508q61 -225 160 -377l-37 -22q-164 168 -269 414q-116 264 -116 493z" />
    <glyph glyph-name="parenright" unicode=")" horiz-adv-x="999" 
d="M287 1354l41 18q139 -162 250 -389q135 -274 135 -547q0 -229 -117 -493q-104 -246 -268 -414l-37 22q98 152 160 377q55 203 55 508q0 317 -47 516q-47 203 -172 402z" />
    <glyph glyph-name="asterisk" unicode="*" horiz-adv-x="1021" 
d="M143 819q0 45 43 68l56 18l176 56v38l-178 56q-47 14 -54 16q-43 20 -43 76q0 33 22.5 56.5t59.5 23.5q18 0 36 -8.5t23 -13.5l27 -27l135 -127l35 20l-41 180q-12 57 -12 66q0 35 24.5 54.5t59.5 19.5t58.5 -19.5t23.5 -52.5q0 -18 -12 -68l-41 -180l34 -20l136 127
l11 11q9 9 12 11t10.5 8t11.5 8.5t11 5.5t14 4t16 1q37 0 59.5 -23.5t22.5 -58.5q0 -47 -45 -72q-6 -4 -52 -18l-178 -56v-38l178 -56l56 -18q41 -20 41 -70q0 -29 -17.5 -56.5t-58.5 -27.5q-39 0 -92 49l-136 127l-34 -20l41 -180q12 -61 12 -64q0 -31 -21.5 -53.5
t-60.5 -22.5q-35 0 -59.5 20.5t-24.5 55.5q0 12 6 36t6 28l41 180l-35 20l-135 -127q-53 -49 -90 -49t-57.5 27.5t-20.5 58.5z" />
    <glyph glyph-name="plus" unicode="+" horiz-adv-x="1429" 
d="M100 604v86h572v572h86v-572h571v-86h-571v-571h-86v571h-572z" />
    <glyph glyph-name="comma" unicode="," horiz-adv-x="671" 
d="M201 94q0 49 31.5 81t82.5 32q72 0 117 -55q39 -47 39 -136q0 -106 -61 -196q-31 -45 -121 -125l-25 33q84 63 127 153q20 49 21 76q0 23 -12.5 37t-24.5 14q-10 0 -28.5 -15.5t-45.5 -15.5q-47 0 -73.5 36t-26.5 81z" />
    <glyph glyph-name="hyphen" unicode="-" horiz-adv-x="716" 
d="M143 379v92h430v-92h-430z" />
    <glyph glyph-name="period" unicode="." horiz-adv-x="630" 
d="M201 92q0 47 34.5 81t79.5 34t80 -34t35 -81t-35 -81t-80 -34t-79.5 34t-34.5 81z" />
    <glyph glyph-name="slash" unicode="/" horiz-adv-x="972" 
d="M57 -436l756 1777h102l-755 -1777h-103z" />
    <glyph glyph-name="zero" unicode="0" 
d="M84 674q0 334 164 534q133 162 295 162t295 -162q164 -201 163.5 -534.5t-163.5 -534.5q-133 -162 -295 -162t-295 162q-164 201 -164 535zM313 457q0 -225 41 -316q57 -125 188.5 -125t188.5 125q41 90 41 316v434q0 225 -41 315q-57 125 -188 125t-189 -125
q-41 -90 -41 -315v-434z" />
    <glyph glyph-name="one" unicode="1" 
d="M260 1286v49h66l356 29v-1323h158v-41h-545v41h158v1208q0 18 -12.5 26.5t-26 9.5t-45.5 1h-17h-92z" />
    <glyph glyph-name="two" unicode="2" 
d="M106 0v129l355 332q156 145 201 227q80 137 79 328q0 166 -77.5 237.5t-188.5 71.5q-82 0 -139 -45q-61 -51 -62 -96q0 -27 10.5 -38t34 -26.5t41.5 -40.5q23 -33 23 -69q0 -66 -39 -99.5t-92 -33.5q-55 0 -96 42t-41 113q0 115 96 211q119 121 299 121q227 0 356 -143
q100 -111 101 -263q0 -61 -20.5 -117.5t-39 -90t-74 -85t-74 -66.5t-89.5 -71l-445 -340h566q66 0 86 19.5t28 66.5q14 70 21 127h47l-19 -401h-848z" />
    <glyph glyph-name="three" unicode="3" 
d="M90 272q0 72 41 113t94 41q49 0 89 -34t40 -89q0 -45 -16 -66.5t-36.5 -24.5t-37 -21.5t-16.5 -61.5q0 -53 94 -88q70 -25 123 -25q139 0 203 99q45 70 45 196v232q0 70 -45 129t-146 59q-12 0 -104 -16q-25 -6 -47 -6q-31 0 -44.5 15t-13.5 31.5t12.5 32t41.5 15.5
q25 0 63.5 -9.5t81.5 -9.5q92 0 139 52q45 47 45 157v135q0 23 -2 41.5t-13 50t-30.5 52t-62.5 37t-103 16.5q-55 0 -94 -16.5t-52 -34t-13 -31.5q0 -10 6 -18t22.5 -22.5t22.5 -20.5q37 -45 37 -82q0 -47 -33 -82t-84 -35q-49 0 -87 32t-38 97q0 129 119 201q84 51 219 51
q201 0 317 -102q92 -82 93 -205q0 -127 -93 -201q-76 -63 -219 -90v-10q127 -12 234 -92q131 -100 131 -267q0 -221 -158 -334q-119 -86 -299 -86q-145 0 -246 48q-90 41 -135 110t-45 137z" />
    <glyph glyph-name="four" unicode="4" 
d="M94 383v53l565 928h115v-899h211v-82h-211v-342h158v-41h-545v41h172v342h-465zM158 465h401v643z" />
    <glyph glyph-name="five" unicode="5" 
d="M111 252q0 70 36.5 115t98.5 45q51 0 88 -30t37 -85q0 -66 -43 -102q-55 -49 -56 -78q0 -41 58 -72q51 -29 116 -29q106 0 175 60q55 47 69.5 113.5t14.5 168.5v220q0 127 -72 196q-59 59 -160 60q-76 0 -129 -27q-74 -33 -127 -105l-24 5l43 657q49 -23 122 -43
q92 -25 197 -25q168 0 309 68l21 -27q-45 -57 -107 -102q-145 -102 -334 -102q-66 0 -182 12l-26 -354q117 98 284 98q152 0 256 -68q186 -123 187 -358q0 -240 -154 -375q-78 -68 -160 -89.5t-186 -21.5q-190 0 -295 121q-57 66 -57 154z" />
    <glyph glyph-name="six" unicode="6" 
d="M104 623q0 86 9.5 165.5t30 166.5t58.5 158t90 128t132 90t178 33q166 0 260 -66.5t94 -160.5q0 -53 -29.5 -96.5t-93 -43.5t-93 34t-29.5 75q0 74 25.5 107.5t25.5 50.5q0 27 -49 44t-111 17q-76 0 -129 -28.5t-79.5 -65.5t-42 -99.5t-17.5 -103.5t-2 -102v-246
q37 82 117.5 124t164.5 42q57 0 122 -25.5t125.5 -76t100 -138.5t39.5 -196q0 -193 -134 -313t-302 -120q-59 0 -115.5 13.5t-121 56.5t-112.5 110.5t-80 187.5t-32 278zM334 289q0 -143 80 -208t164 -65q25 0 69 21q45 23 73 55.5t38 76.5t12 68.5t2 67.5v201
q0 291 -194 291q-96 0 -170 -80t-74 -193v-235z" />
    <glyph glyph-name="seven" unicode="7" 
d="M139 1001l54 340h733q12 0 16 -2t4 -14q0 -25 -35 -143q-33 -115 -89 -253t-81 -216q-86 -276 -110 -463q0 -4 -25 -250h-221q14 147 72 305q16 49 35 93l29 72q11 28 35 71l32 58q8 15 39.5 68.5t40.5 69.5q133 233 184 408h-535q-76 0 -108 -62q-2 -4 -27 -82h-43z" />
    <glyph glyph-name="eight" unicode="8" 
d="M98 338q0 152 152 268q57 45 158 99l-107 69q-47 31 -96 100q-53 80 -53 166q0 72 39.5 141.5t95.5 110.5q102 72 260 72q133 0 233 -55q147 -82 148 -230q0 -137 -129 -225q-41 -29 -133 -66l100 -65q88 -59 147 -135q74 -90 74 -215q0 -178 -147 -297
q-125 -98 -295 -99q-231 0 -357 134q-90 96 -90 227zM262 319q0 -150 86 -231q76 -72 189 -72q147 0 227 95q61 72 61 174q0 152 -141 243l-223 146q-88 -47 -135 -123q-64 -97 -64 -232zM301 1133q0 -51 27.5 -96.5t49 -62t58.5 -40.5l180 -115q164 76 164 256
q0 106 -57 172q-68 78 -197 78q-94 0 -149 -41q-76 -55 -76 -151z" />
    <glyph glyph-name="nine" unicode="9" 
d="M92 934q0 193 144 317q129 113 292 113q168 0 285 -104q176 -158 176 -527q0 -297 -94 -495q-123 -260 -403 -261q-174 0 -273 76q-82 61 -82 152q0 63 37 102q35 39 86 39q57 0 90 -32.5t33 -77.5q0 -33 -23 -82q-29 -61 -28 -68q0 -12 8 -26.5t45 -29t98 -14.5
q164 0 232 127q20 39 33.5 124t13.5 149l-2 246q-14 -45 -60 -84q-90 -82 -219 -82q-170 0 -286 143q-103 125 -103 295zM322 836q0 -84 11 -132.5t46 -95.5q57 -74 137 -73q68 0 146 65q51 43 74.5 91t23.5 128v234q0 117 -58 188q-70 84 -172 84q-113 0 -172 -98
q-37 -59 -36 -189v-202z" />
    <glyph glyph-name="colon" unicode=":" horiz-adv-x="630" 
d="M201 92q0 47 34.5 81t79.5 34t80 -34t35 -81t-35 -81t-80 -34t-79.5 34t-34.5 81zM201 780q0 47 34.5 81t79.5 34t80 -34t35 -81t-35 -80.5t-80 -33.5t-79.5 33.5t-34.5 80.5z" />
    <glyph glyph-name="semicolon" unicode=";" horiz-adv-x="671" 
d="M201 94q0 49 31.5 81t82.5 32q72 0 117 -55q39 -47 39 -136q0 -106 -61 -196q-31 -45 -121 -125l-25 33q84 63 127 153q20 49 21 76q0 23 -12.5 37t-24.5 14q-10 0 -28.5 -15.5t-45.5 -15.5q-47 0 -73.5 36t-26.5 81zM221 780q0 47 35 81t80 34t80 -34t35 -81t-35 -80.5
t-80 -33.5t-80 33.5t-35 80.5z" />
    <glyph glyph-name="less" unicode="&#x3c;" horiz-adv-x="1089" 
d="M29 674l944 545l59 -111l-751 -434l751 -434l-59 -111z" />
    <glyph glyph-name="equal" unicode="=" horiz-adv-x="1429" 
d="M100 461v86h1229v-86h-1229zM100 748v86h1229v-86h-1229z" />
    <glyph glyph-name="greater" unicode="&#x3e;" horiz-adv-x="1089" 
d="M57 240l752 434l-752 434l60 111l944 -545l-944 -545z" />
    <glyph glyph-name="question" unicode="?" horiz-adv-x="1073" 
d="M201 1075q0 158 118 238q74 51 193 51q180 0 279 -104q82 -88 81 -228q0 -100 -57 -194q-20 -35 -48 -67t-64.5 -67.5t-47.5 -48.5q-131 -141 -131 -290v-35h-47v30q0 106 23 213q4 23 10 44.5t15.5 45t14.5 35t18 38t15 31.5t19.5 34.5t17.5 32.5q74 131 74 243
q0 121 -47 183q-49 66 -150 65q-127 0 -190 -84q-39 -51 -39 -94q0 -55 47 -60h47q41 0 68 -28q25 -27 24 -68q0 -51 -30.5 -81.5t-73.5 -30.5q-72 0 -111 71q-28 55 -28 125zM373 92q0 47 34.5 81t79.5 34t80 -34t35 -81t-35 -81t-80 -34t-79.5 34t-34.5 81z" />
    <glyph glyph-name="at" unicode="@" horiz-adv-x="1462" 
d="M57 686q0 283 205 481q203 197 506 197q279 0 461 -174q176 -170 176 -428q0 -137 -66 -260q-106 -197 -290 -197q-129 0 -191 96q-100 -82 -201 -82q-113 0 -188 80q-70 76 -70 209q0 160 105 283q117 139 301 139q109 0 182 -98l23 72h127l-127 -420q-29 -96 -29 -144
q0 -82 88 -82q18 0 38.5 6.5t51.5 20.5t63.5 49t61.5 84q66 115 66 250q0 225 -164 383q-168 160 -416 160q-268 0 -448 -181q-190 -190 -191 -452q0 -268 195 -469q172 -178 440 -178q131 0 240 45q86 35 153 94l33 -41q-80 -59 -152 -92q-127 -59 -288 -60
q-287 0 -478 191q-106 106 -161.5 244.5t-55.5 273.5zM547 559q0 -84 20 -121q35 -63 119 -63q92 0 160 94l104 367q-10 66 -51 105.5t-96 39.5q-98 0 -174 -121q-82 -133 -82 -301z" />
    <glyph glyph-name="A" unicode="A" horiz-adv-x="1263" 
d="M0 0v41q72 6 121 59q29 31 47 80l453 1161h36l467 -1300h140v-41h-564v41h183l-152 414h-401l-74 -183q-39 -104 -39 -149q0 -51 55 -70q23 -6 76 -12v-41h-348zM340 496h377l-176 508z" />
    <glyph glyph-name="B" unicode="B" horiz-adv-x="1361" 
d="M86 0v41h158v1259h-158v41h621q244 0 364 -84q117 -84 117 -221q0 -133 -131 -215q-119 -76 -273 -88v-10q186 -31 283 -82q186 -100 186 -279q0 -154 -110 -247q-131 -115 -410 -115h-647zM473 41h232q119 0 188 53q102 78 102 279q0 176 -102 256q-100 78 -256 78h-164
v-666zM473 748h150q162 0 239 77q66 66 66 209q0 135 -54 195q-66 72 -227 71h-174v-552z" />
    <glyph glyph-name="C" unicode="C" horiz-adv-x="1208" 
d="M109 655q0 246 114 428q98 156 230.5 218.5t259.5 62.5q78 0 159 -29q98 -35 119 -35q55 0 74 64h49v-436h-41q-18 180 -84 274q-88 123 -254 123t-264 -125q-104 -131 -104 -397v-332q0 -252 125 -367q92 -88 208 -88q86 0 176.5 51.5t141.5 131.5q53 80 84 247h49
l-16 -446h-54q-8 82 -65 82q-27 0 -109 -45q-113 -59 -239.5 -59.5t-246.5 62t-202 191.5q-110 172 -110 424z" />
    <glyph glyph-name="D" unicode="D" horiz-adv-x="1472" 
d="M86 0v41h158v1259h-158v41h598q268 0 442 -129q113 -84 186.5 -233.5t73.5 -319.5q0 -301 -219 -501q-174 -158 -428 -158h-653zM473 41h277q88 0 154.5 28.5t121.5 120.5q102 170 102 472q0 266 -59 413q-29 72 -72 119t-96 69.5t-100 29.5t-109 7h-219v-1259z" />
    <glyph glyph-name="E" unicode="E" horiz-adv-x="1230" 
d="M86 0v41h158v1259h-158v41h1010l22 -387h-49q-23 141 -78 226q-82 121 -260 120h-258v-563h74q139 0 188 111q25 53 33 135h41v-537h-41q-18 106 -31 142q-43 109 -178 108h-86v-655h293q174 0 266 129q55 76 86 248h49l-43 -418h-1038z" />
    <glyph glyph-name="F" unicode="F" horiz-adv-x="1161" 
d="M86 0v41h158v1259h-158v41h1024l23 -430h-50q-16 180 -79 269q-86 121 -273 120h-258v-591h131q139 0 189 110q25 53 32 135h41v-536h-41q0 76 -30 143q-45 106 -179 107h-143v-627h158v-41h-545z" />
    <glyph glyph-name="G" unicode="G" horiz-adv-x="1439" 
d="M109 672q0 311 202 518q170 174 400 174q88 0 172 -29q106 -37 125 -37q57 0 82 66h47v-436h-41q-16 176 -92 274q-90 121 -263 121q-217 0 -305 -190q-70 -147 -69 -457q0 -389 114 -543q86 -115 232 -115q127 0 202 64q57 45 76 114.5t19 174.5v147h-144v39h516v-39
h-143v-80q0 -109 -53 -203t-146 -155q-145 -102 -321 -103q-223 0 -379 136q-104 92 -167.5 239.5t-63.5 319.5z" />
    <glyph glyph-name="H" unicode="H" horiz-adv-x="1550" 
d="M86 0v41h158v1259h-158v41h530v-41h-143v-563h604v563h-143v41h530v-41h-157v-1259h157v-41h-530v41h143v655h-604v-655h143v-41h-530z" />
    <glyph glyph-name="I" unicode="I" horiz-adv-x="716" 
d="M86 0v41h158v1259h-158v41h545v-41h-158v-1259h158v-41h-545z" />
    <glyph glyph-name="J" unicode="J" horiz-adv-x="929" 
d="M29 238q0 61 36.5 99t98.5 38q53 0 84 -36t31 -81q0 -49 -50 -94q-45 -39 -45 -62q0 -31 38 -57.5t91 -26.5q76 0 117 56q27 35 27 102v1124h-158v41h545v-41h-158v-954q0 -154 -70 -240q-100 -129 -282 -129q-104 0 -184 54q-55 37 -88 94.5t-33 112.5z" />
    <glyph glyph-name="K" unicode="K" horiz-adv-x="1400" 
d="M86 0v41h158v1259h-158v41h530v-41h-143v-659l461 471q61 61 61 102q0 55 -69 76q-33 10 -105 10v41h482v-41q-96 -2 -177 -63q-59 -45 -153 -143l-201 -207l524 -846h76v-41h-557v41h189l-386 686l-145 -149v-537h143v-41h-530z" />
    <glyph glyph-name="L" unicode="L" horiz-adv-x="1183" 
d="M86 0v41h158v1259h-158v41h545v-41h-158v-1259h238q133 0 243 111q115 115 162 274h39l-63 -426h-1006z" />
    <glyph glyph-name="M" unicode="M" horiz-adv-x="1734" 
d="M86 0v41h15q94 0 130 74q20 41 21 98v973q0 115 -125 114h-37l2 41h387l400 -1038l383 1038h387v-41h-158v-1259h158v-41h-545v41h158v1178l-455 -1244h-37l-475 1233v-997q0 -72 27 -111q23 -33 49 -44t80 -15v-41h-365z" />
    <glyph glyph-name="N" unicode="N" horiz-adv-x="1452" 
d="M86 0v41q13 -1 26 -1q77 0 119 54q31 41 31 131v969q0 53 -48 78.5t-105 27.5v41h325l713 -942v766q0 66 -45 101q-44 35 -116 35q-8 0 -15 -1v41h395v-41q-4 0 -8 1q-98 0 -137 -50q-31 -39 -31 -135v-1139h-14l-871 1160v-912q0 -96 53 -141q51 -43 125 -43v-41h-397z
" />
    <glyph glyph-name="O" unicode="O" horiz-adv-x="1495" 
d="M102 672q0 250 150 444q94 121 229 184.5t266.5 63.5t266.5 -63.5t229 -184.5q150 -195 150 -444.5t-150 -444.5q-104 -135 -240.5 -192.5t-255 -57.5t-255 57.5t-240.5 192.5q-150 195 -150 445zM360 672q0 -236 43 -365q47 -143 144.5 -217t200 -74t199.5 74t145 217
q43 129 43 365q0 238 -43 364q-47 141 -144.5 215t-200 74t-199.5 -73.5t-145 -215.5q-43 -126 -43 -364z" />
    <glyph glyph-name="P" unicode="P" horiz-adv-x="1286" 
d="M86 0v41h158v1259h-158v41h590q270 0 403 -122q121 -113 121 -285q0 -174 -108 -277q-131 -125 -418 -125h-201v-491h158v-41h-545zM473 573h141q131 0 211 48q61 37 89 102t28 131v150q0 162 -90 233q-80 63 -238 63h-141v-727z" />
    <glyph glyph-name="Q" unicode="Q" horiz-adv-x="1511" 
d="M109 672q0 244 149 440q98 127 229 189.5t267 62.5q137 0 269 -62.5t228 -189.5q150 -197 150 -440q0 -246 -150 -443q-172 -221 -450 -249q90 -10 182 -107q16 -16 40 -47t54 -66q72 -78 117 -77q33 0 55.5 23.5t22.5 47.5q0 20 -23 51q-20 27 -20 56q0 31 22.5 58.5
t59.5 27.5q33 0 62.5 -23.5t29.5 -68.5q0 -82 -76 -154q-100 -94 -254 -94q-66 0 -127 35q-49 31 -102 84l-107 108q-51 51 -96 51q-57 0 -133 -59l-21 27q47 45 111 79q70 37 131 45q-297 27 -471 252q-149 197 -149 443zM367 672q0 -238 43 -365q47 -139 143 -214t201 -75
q102 0 200.5 74t145.5 215q43 127 43 365q0 233 -43 362q-43 131 -137.5 211t-208.5 80q-113 0 -207 -80t-137 -211q-43 -129 -43 -362z" />
    <glyph glyph-name="R" unicode="R" horiz-adv-x="1396" 
d="M86 0v41h158v1259h-158v41h555q295 0 410 -61q152 -82 151 -238q0 -139 -100 -221q-115 -92 -320 -106v-8q100 -16 197 -62q70 -33 107.5 -82t47 -85t17.5 -105q31 -250 39 -275q18 -47 51 -47q45 0 109 70l30 -33q-80 -111 -217 -111q-127 0 -186 78q-39 53 -57 232
q-25 221 -50 284q-20 47 -49 72q-53 45 -182 45h-166v-647h158v-41h-545zM473 729h143q180 0 265 90q63 68 63 225q0 162 -98 218q-68 39 -217 38h-156v-571z" />
    <glyph glyph-name="S" unicode="S" horiz-adv-x="1081" 
d="M86 0v428h29q59 -147 125 -231q74 -96 170 -138.5t186 -42.5q143 0 223 90q66 70 66 181q0 92 -56 159q-53 61 -163 93l-242 65q-141 37 -217 133q-74 94 -74 240q0 203 131 309q94 78 223 78q94 0 193 -35l47 -18q27 -10 42 -15.5t28 -5.5q35 0 71 51h33l8 -323h-28
q-55 125 -125 194q-51 53 -124 83t-143 30q-119 0 -192 -74q-68 -72 -68 -176q0 -94 70 -162q49 -47 182 -82l209 -55q186 -51 258 -184q47 -84 47 -211q0 -156 -86 -262q-109 -141 -313 -142q-137 0 -250 52q-14 6 -36.5 17t-35 16.5t-28 10.5t-29.5 5q-33 0 -55.5 -21.5
t-26.5 -56.5h-49z" />
    <glyph glyph-name="T" unicode="T" horiz-adv-x="1298" 
d="M45 920l10 421h1188l10 -421h-57q-20 166 -80 254q-66 96 -176 118q-23 6 -176 8v-1259h158v-41h-545v41h158v1259q-102 0 -152 -8q-131 -18 -201 -118q-57 -84 -80 -254h-57z" />
    <glyph glyph-name="U" unicode="U" horiz-adv-x="1497" 
d="M86 1300v41h545v-41h-158v-958q0 -119 59 -186q94 -117 287 -117q176 0 277 94q45 43 67.5 103.5t24.5 91t2 90.5v739q0 72 -41 107q-33 27 -137 36v41h399v-41q-96 -4 -127 -22q-12 -8 -22 -23q-29 -33 -29 -139v-741q0 -174 -117 -281q-127 -117 -332 -117
q-162 0 -288 50q-104 41 -166 108q-86 94 -86 240v925h-158z" />
    <glyph glyph-name="V" unicode="V" horiz-adv-x="1341" 
d="M29 1300v41h571v-41h-162l346 -944l281 740q23 63 22 100q0 53 -30 78q-33 27 -96 26v41h352v-41q-72 -4 -115 -40q-41 -35 -78 -136l-430 -1147l-524 1323h-137z" />
    <glyph glyph-name="W" unicode="W" horiz-adv-x="2066" 
d="M29 1300v41h510v-41h-152l350 -944l250 650l-108 294h-142v41h543v-41h-156l355 -944l266 658q35 92 35 143q0 63 -39 98q-53 45 -168 45v41h465v-41q-98 -8 -152 -88q-39 -61 -82 -172l-426 -1063l-366 957l-379 -957l-496 1323h-108z" />
    <glyph glyph-name="X" unicode="X" horiz-adv-x="1433" 
d="M45 0v41q102 27 154 59q57 39 108 113l291 444l-432 643h-121v41h524v-41h-131l307 -462l205 313q18 29 19 66q0 31 -28 57t-91 26h-29v41h449v-41q-94 -8 -140 -28q-63 -31 -139 -146l-215 -331l494 -754h119v-41h-545v41h160l-381 573l-238 -366q-29 -47 -29 -84
q0 -113 160 -123v-41h-471z" />
    <glyph glyph-name="Y" unicode="Y" horiz-adv-x="1343" 
d="M29 1300v41h538v-41h-145l344 -673l240 444q37 63 36 115q0 68 -53 94q-37 20 -112 20v41h438v-41q-2 0 -5 1q-85 0 -153 -72q-33 -35 -98 -158l-262 -485v-545h157v-41h-544v41h157v494l-413 765h-125z" />
    <glyph glyph-name="Z" unicode="Z" horiz-adv-x="1259" 
d="M86 0l827 1303h-309q-135 0 -229 -95q-63 -59 -135 -207h-50l50 340h934l-795 -1300h385q147 0 240 113q74 94 112 202h43l-43 -356h-1030z" />
    <glyph glyph-name="bracketleft" unicode="[" horiz-adv-x="913" 
d="M344 -436v1777h426v-49h-217v-1679h217v-49h-426z" />
    <glyph glyph-name="backslash" unicode="\" horiz-adv-x="972" 
d="M57 1341h103l755 -1777h-102z" />
    <glyph glyph-name="bracketright" unicode="]" horiz-adv-x="913" 
d="M344 -387h217v1679h-217v49h426v-1777h-426v49z" />
    <glyph glyph-name="asciicircum" unicode="^" horiz-adv-x="745" 
d="M35 1010l338 338l338 -338h-172l-166 166l-166 -166h-172z" />
    <glyph glyph-name="underscore" unicode="_" horiz-adv-x="1089" 
d="M0 -369h1090v-92h-1090v92z" />
    <glyph glyph-name="grave" unicode="`" horiz-adv-x="696" 
d="M125 1341h248l198 -280h-51z" />
    <glyph glyph-name="a" unicode="a" horiz-adv-x="974" 
d="M61 203q0 137 129 215q123 74 342 74h68v229q0 80 -39 113q-31 25 -98 24q-41 0 -82 -10q-51 -14 -51 -51q0 -8 5 -18.5t14 -27t16 -28.5q14 -31 13 -60q0 -32 -17 -60q-32 -54 -103 -54q-53 0 -92 31.5t-39 89.5q0 106 119 172q98 53 246 53q106 0 181 -29.5t101 -74.5
q27 -43 27 -148v-532q0 -68 51 -68q23 0 51.5 20.5t42.5 45.5l29 -27q-76 -104 -193 -105q-90 0 -137 54q-29 33 -45 80q-70 -59 -119 -86q-86 -47 -182 -47.5t-162 55.5q-76 61 -76 170zM291 221q0 -82 35 -121q35 -37 92 -37q51 0 110 37q72 45 72 74v285h-33
q-207 0 -256 -99q-20 -41 -20 -139z" />
    <glyph glyph-name="b" unicode="b" horiz-adv-x="1026" 
d="M35 0v35h129v1265h-129v35h203q88 0 127 13v-549q68 96 210 96q168 0 291 -143q115 -135 115 -316q0 -156 -86 -282q-121 -176 -309 -177q-84 0 -148 46q-45 33 -73 88v-111h-330zM365 233q0 -68 36 -124q63 -94 166 -95q92 0 146 82q39 66 39 185v272q0 111 -31 184
q-53 121 -180 121q-66 0 -121 -50t-55 -118v-457z" />
    <glyph glyph-name="c" unicode="c" horiz-adv-x="845" 
d="M45 414q0 127 54.5 233.5t140.5 169.5q102 78 237 78q137 0 225 -59q92 -63 93 -162q0 -55 -34 -90t-85 -35q-55 0 -90 33.5t-35 79t22 81.5q8 14 18 27l14 20q5 7 5 15q0 10 -8 21.5t-34.5 21.5t-67.5 10q-109 0 -160 -49q-66 -61 -66 -240v-258q0 -156 48 -219
q59 -78 177.5 -78t190.5 80q49 55 78 133l33 -14q-25 -68 -68 -123q-88 -113 -246 -113q-203 0 -329 142q-113 129 -113 295z" />
    <glyph glyph-name="d" unicode="d" horiz-adv-x="1026" 
d="M45 426q0 197 115 328q123 141 303 141q70 0 125 -33q47 -29 74 -63v501h-130v35h205q86 0 125 13v-1313h129v-35h-329v111q-31 -51 -68 -80q-66 -53 -150 -54q-195 0 -315 177q-84 122 -84 272zM274 281q0 -127 39 -187q51 -80 146 -80q102 0 164 92q39 57 39 127v394
q0 100 -31 149q-53 82 -148 82q-57 0 -106 -33.5t-72 -87.5q-31 -68 -31 -184v-272z" />
    <glyph glyph-name="e" unicode="e" horiz-adv-x="901" 
d="M45 428q0 184 113 320q125 147 309 147t291 -139q86 -111 90 -273h-574v-139q0 -172 56 -248q61 -82 164 -82q109 0 215 97q55 51 112 133l35 -23q-55 -92 -127 -151q-109 -92 -252 -93q-90 0 -177 37t-144 103q-111 127 -111 311zM274 518h361q1 32 1 60q0 113 -20 172
q-37 111 -155 110q-113 0 -162 -94q-25 -49 -25 -119v-129z" />
    <glyph glyph-name="f" unicode="f" horiz-adv-x="602" 
d="M41 0v35h129v803h-115v34h115v68q0 201 115 315q92 92 207 93q86 0 143 -56q53 -49 53 -116q0 -47 -24.5 -77t-67.5 -30q-31 0 -56.5 19.5t-25.5 58.5q0 37 31 67q35 35 35 54q0 25 -31 41q-27 14 -51 14q-86 0 -111 -86q-16 -57 -16 -203v-162h211v-34h-211v-803h129
v-35h-459z" />
    <glyph glyph-name="g" unicode="g" horiz-adv-x="925" 
d="M35 -203q0 61 28 99q37 49 99 49q31 0 58.5 -22.5t37.5 -59.5q-61 -55 -61 -117q0 -86 73 -127q55 -29 129 -29q184 0 301 101q82 72 82 166q0 61 -43 90q-41 25 -112 25q-10 0 -21 -1l-274 -14h-17q-92 0 -161 41q-100 61 -101 178q0 66 37 113q47 59 133 84
q-45 33 -67 63q-47 66 -47 154q0 143 106 229q94 76 229 76q92 0 189 -55q4 53 43 98q47 57 119 57q45 0 88 -29.5t43 -82.5q0 -43 -22.5 -62.5t-51.5 -19.5q-33 0 -56.5 17.5t-23.5 53.5q0 16 3 24.5t3 23.5q0 27 -28 26q-37 0 -66 -59q-14 -37 -18 -70q27 -16 53 -49
q55 -72 55 -174q0 -106 -82 -193q-96 -100 -246 -100q-102 0 -188 47q-53 -4 -88 -32.5t-35 -77.5q0 -37 27 -60q29 -27 86 -27q8 0 16 1l271 14q39 2 72 2q134 0 188 -33q96 -59 96 -180q0 -100 -55.5 -180t-128.5 -129q-135 -88 -316 -88q-199 0 -287 82q-69 65 -69 157z
M307 522q0 -70 33 -125q35 -59 102 -59q76 0 111 68q23 43 22 102v174q0 59 -30 113q-35 63 -99 63q-55 0 -96 -47q-43 -49 -43 -129v-160z" />
    <glyph glyph-name="h" unicode="h" horiz-adv-x="1083" 
d="M35 0v35h129v1265h-129v35h205q84 0 125 13v-594q59 63 120 100q68 41 168 41q143 0 211 -70q55 -55 56 -135v-655h129v-35h-445v35h115v655q0 68 -29 105q-37 45 -104 45q-66 0 -123 -41q-57 -43 -98 -94v-670h114v-35h-444z" />
    <glyph glyph-name="i" unicode="i" horiz-adv-x="534" 
d="M41 0v35h129v803h-129v34h203q63 0 127 11v-848h129v-35h-459zM152 1204q0 45 34.5 80t79.5 35t80 -35t35 -80t-35 -79.5t-80 -34.5t-79.5 34.5t-34.5 79.5z" />
    <glyph glyph-name="j" unicode="j" horiz-adv-x="563" 
d="M-115 -309q0 49 30 78.5t79 29.5t74.5 -28.5t25.5 -65.5q0 -29 -14 -56.5t-14 -33.5q0 -35 34 -35q23 0 50.5 20.5t42.5 67.5q16 51 16 170v1000h-158v34h234q61 0 125 11v-1006q0 -129 -68 -217q-90 -121 -252 -121q-109 0 -164 55q-41 42 -41 97zM190 1204q0 45 34 80
t81 35t81 -35t34 -80t-34 -79.5t-81 -34.5t-81 34.5t-34 79.5z" />
    <glyph glyph-name="k" unicode="k" horiz-adv-x="1019" 
d="M35 0v35h129v1265h-129v35h205q82 0 125 13v-908l182 178q106 104 106 164q0 23 -20 39q-23 16 -64 17h-22v34h360v-34q-53 -10 -106 -43q-57 -35 -115 -99l-104 -110l348 -551h76v-35h-435v35h115l-252 405l-69 -69v-336h114v-35h-444z" />
    <glyph glyph-name="l" unicode="l" horiz-adv-x="528" 
d="M35 0v35h129v1265h-129v35h205q86 0 125 13v-1313h129v-35h-459z" />
    <glyph glyph-name="m" unicode="m" horiz-adv-x="1566" 
d="M41 0v35h129v803h-129v34h205q59 0 125 11v-129q49 55 114 96q74 45 164 45q94 0 153.5 -42t76.5 -108q57 68 118 105q72 45 168 45q123 0 189 -72q49 -53 49 -133v-655h129v-35h-445v35h115v655q0 61 -24 103q-31 47 -93 47q-49 0 -106 -43q-51 -39 -92 -92v-670h114
v-35h-430v35h115v655q0 70 -24 105q-33 45 -95 45q-51 0 -104 -43q-51 -39 -92 -92v-670h114v-35h-444z" />
    <glyph glyph-name="n" unicode="n" horiz-adv-x="1089" 
d="M41 0v35h129v803h-129v34h205q59 0 125 11v-129q61 66 118 98q74 43 170 43q141 0 211 -70q55 -55 56 -135v-655h129v-35h-445v35h115v655q0 68 -29 105q-37 45 -108 45q-66 0 -119 -41q-51 -41 -98 -94v-670h114v-35h-444z" />
    <glyph glyph-name="o" unicode="o" horiz-adv-x="978" 
d="M45 436q0 178 117 312q131 147 327.5 147t327.5 -147q117 -133 117 -312q0 -184 -117 -313q-59 -66 -147 -106t-180.5 -40t-180.5 40t-147 106q-117 129 -117 313zM274 303q0 -131 52 -207q55 -82 163.5 -82t163.5 82q51 76 52 207v205q0 188 -52 262q-61 88 -163.5 88
t-163.5 -88q-51 -74 -52 -262v-205z" />
    <glyph glyph-name="p" unicode="p" horiz-adv-x="1026" 
d="M35 -401h129v1239h-129v34h203q63 0 127 11v-123q25 51 75 92q55 43 142 43q88 0 171 -44t142 -132q86 -125 86 -287q0 -174 -115 -311q-121 -143 -288 -144q-78 0 -129 25q-49 25 -84 74v-477h129v-35h-459v35zM365 182q0 -68 57 -119q55 -49 127 -49q51 0 99 30t73 85
q31 68 31 188v273q0 117 -39 186q-47 82 -146 82q-104 0 -166 -94q-37 -57 -36 -125v-457z" />
    <glyph glyph-name="q" unicode="q" horiz-adv-x="1026" 
d="M45 434q0 186 111 320q119 141 286 141q156 0 220 -135v123q66 -10 124 -11h205v-34h-129v-1239h129v-35h-459v35h130v477q-72 -98 -203 -99q-182 0 -303 142q-111 127 -111 315zM274 317q0 -127 29 -188q25 -55 73 -85t101 -30q41 0 85 22.5t69 59.5q31 47 31 150v393
q0 63 -39 125q-59 94 -164 94q-98 0 -146 -82q-39 -66 -39 -186v-273z" />
    <glyph glyph-name="r" unicode="r" horiz-adv-x="808" 
d="M41 0v35h129v803h-129v34h205q61 0 125 11v-183q35 74 75 115q76 80 187 80q68 0 112 -33q49 -37 50 -106q0 -45 -27 -74q-33 -35 -76 -35q-45 0 -74.5 26.5t-29.5 67.5q0 14 2 21q0 4 1 8t1 8q0 39 -49 39q-51 0 -103 -63q-70 -90 -69 -213v-506h129v-35h-459z" />
    <glyph glyph-name="s" unicode="s" horiz-adv-x="751" 
d="M45 -8v274h29q43 -113 123 -180q82 -72 192 -72q102 0 150.5 46t48.5 106q0 51 -39 94q-29 33 -107 57l-166 48q-92 25 -143 79q-66 70 -65 179q0 143 106 219q76 53 176 53q51 0 119 -23q82 -29 90 -28q35 0 51 28h27v-241h-27q-47 113 -100 166q-66 61 -162 61
q-78 0 -127 -33q-55 -35 -55 -116q0 -88 117 -127l241 -76q90 -27 135 -84q47 -59 48 -150q0 -115 -62 -186q-90 -109 -254 -109q-84 0 -180 43q-53 23 -70 23q-49 0 -67 -51h-29z" />
    <glyph glyph-name="t" unicode="t" horiz-adv-x="690" 
d="M41 838v34h168v289l201 72v-361h178v-34h-178v-672q0 -72 20 -96q18 -23 59 -23q37 0 76 16q45 20 64 43l20 -24q-43 -39 -102 -68q-78 -37 -152 -37q-88 0 -135 54q-51 53 -51 180v627h-168z" />
    <glyph glyph-name="u" unicode="u" horiz-adv-x="1083" 
d="M35 838v34h205q59 0 125 11v-701q0 -70 30 -106q35 -43 107 -43q68 0 123 41q51 35 94 94v670h-115v34h191q70 0 125 11v-848h129v-35h-330v117q-61 -68 -119 -97q-82 -43 -170 -43q-137 0 -209 70q-57 57 -57 176v615h-129z" />
    <glyph glyph-name="v" unicode="v" horiz-adv-x="976" 
d="M0 838v34h471v-34h-154l244 -596l187 440q16 41 16 74q0 41 -35 63q-20 16 -80 19v34h328v-34q-57 -4 -98 -35q-35 -27 -78 -121l-303 -705h-49l-359 861h-90z" />
    <glyph glyph-name="w" unicode="w" horiz-adv-x="1531" 
d="M0 838v34h418v-34h-101l267 -596l151 348l-110 248h-88v34h436v-34h-121l264 -596l168 417q16 37 16 68q0 41 -20 68q-37 43 -117 43v34h369v-34q-74 -12 -113 -52q-27 -27 -69 -127l-291 -682h-51l-240 541l-231 -541h-56l-393 861h-88z" />
    <glyph glyph-name="x" unicode="x" horiz-adv-x="1028" 
d="M16 0v35h17q59 0 117 37q68 43 133 137l139 197l-297 432h-109v34h445v-34h-92l209 -299l92 135q49 74 49 100q0 10 -4 19.5t-14.5 20.5t-34 18.5t-56.5 5.5v34h355v-34h-31q-94 0 -180 -119l-158 -219l324 -465h92v-35h-453v35h119l-236 334l-129 -179q-33 -46 -33 -81
q0 -10 3 -19q6 -20 31.5 -37.5t58.5 -17.5h16v-35h-373z" />
    <glyph glyph-name="y" unicode="y" horiz-adv-x="956" 
d="M0 838v34h442v-34h-129l301 -631l164 465q12 33 13 67q0 55 -37 80q-27 18 -80 19h-19v34h330v-34q-80 -4 -125 -88q-6 -10 -39 -91l-362 -974q-29 -82 -88 -117q-53 -31 -121 -31q-78 0 -129 37q-68 47 -68 133q0 53 36 87t85 34q45 0 77 -30.5t32 -73.5q0 -12 -9 -37
q-12 -37 -12 -39q0 -18 13.5 -31.5t37.5 -13.5q41 0 74 32q20 20 33 54l96 252l-424 897h-92z" />
    <glyph glyph-name="z" unicode="z" horiz-adv-x="831" 
d="M29 0l510 838h-107q-127 0 -199 -54q-39 -29 -73 -88q-20 -37 -39 -82h-33l16 258h693l-504 -837h74q111 0 168 16q94 27 151 101q43 53 59 116h33l-16 -268h-733z" />
    <glyph glyph-name="braceleft" unicode="{" horiz-adv-x="722" 
d="M115 489v86q86 8 129 70q61 88 61 262q0 45 -4 111.5t-4 95.5q0 238 156 330q68 41 151 47l10 -70q-84 -18 -125 -84q-35 -59 -34 -157q0 -2 6 -95q6 -55 6 -112q0 -190 -64 -287q-55 -88 -184 -154q129 -66 184 -153q63 -96 64 -287q0 -57 -6 -112q-6 -92 -6 -95
q0 -98 34 -157q41 -66 125 -84l-10 -70q-84 6 -151 47q-156 92 -156 330q0 29 4 95.5t4 111.5q0 174 -61 262q-43 61 -129 69z" />
    <glyph glyph-name="bar" unicode="|" horiz-adv-x="1048" 
d="M473 -451v2048h102v-2048h-102z" />
    <glyph glyph-name="braceright" unicode="}" horiz-adv-x="722" 
d="M115 -356q84 18 125 84q35 59 34 157q0 2 -6 95q-6 55 -6 112q0 190 64 287q55 88 184 153q-129 66 -184 154q-63 96 -64 287q0 57 6 112q6 92 6 95q0 98 -34 157q-41 66 -125 84l10 70q84 -6 151 -47q156 -92 156 -330q0 -29 -4 -95.5t-4 -111.5q0 -174 61 -262
q43 -61 129 -70v-86q-86 -8 -129 -69q-61 -88 -61 -262q0 -45 4 -111.5t4 -95.5q0 -238 -156 -330q-68 -41 -151 -47z" />
    <glyph glyph-name="asciitilde" unicode="~" horiz-adv-x="1060" 
d="M115 535q35 76 90 133q86 90 201 90q76 0 186 -31q27 -8 64.5 -18.5t57 -16.5t43 -10t40.5 -4q51 0 88 31q8 6 35 43h55q-29 -63 -70 -117q-76 -98 -190 -98q-41 0 -203 36q-158 35 -221 35q-47 0 -80 -24q-25 -23 -39 -49h-57z" />
    <glyph glyph-name="uni00A0" unicode="&#xa0;" horiz-adv-x="477" 
 />
    <glyph glyph-name="section" unicode="&#xa7;" horiz-adv-x="1112" 
d="M115 506q0 154 90 242q55 53 137 67q-45 31 -80 78q-59 82 -59 194q0 170 112 283q102 98 252 98q115 0 203 -59q121 -80 121 -205q0 -66 -32 -100.5t-77 -34.5q-43 0 -71.5 29.5t-28.5 68.5q0 41 38 88.5t38 71.5q0 41 -62 72q-51 29 -127 28q-150 0 -225 -102
q-43 -57 -43 -137q0 -86 41 -137q39 -51 102 -76l338 -137q100 -43 154 -125q61 -92 61 -207q0 -109 -55 -193q-70 -111 -201 -114q70 -35 111 -78q74 -78 74 -176q0 -139 -58 -234q-49 -80 -142 -130t-202 -50q-131 0 -231 68q-123 84 -123 204q0 53 30.5 94.5t82.5 41.5
q41 0 71.5 -27t30.5 -78t-39 -82q-47 -27 -47 -55q0 -43 76 -86q72 -41 145 -41q147 0 225 90q55 63 56 156q0 84 -45 137q-33 41 -103 72l-311 133q-94 39 -160 133q-67 90 -67 215zM188 602q0 -84 45 -141q37 -47 95 -70l344 -143q29 -12 67 -12q61 0 109 43q66 61 65 147
q0 78 -53 133q-41 45 -112 74l-299 123q-43 16 -80 16q-55 0 -105 -35q-76 -55 -76 -135z" />
    <glyph glyph-name="copyright" unicode="&#xa9;" horiz-adv-x="1564" 
d="M86 669.5q0 286.5 205 491.5t491.5 205t491.5 -205t205 -491.5t-205 -491.5t-491.5 -205t-491.5 205t-205 491.5zM143 670q0 -264 187.5 -451.5t452 -187.5t451.5 187.5t187 451.5t-187 451.5t-451.5 187.5t-452 -187.5t-187.5 -451.5zM389 651q0 186 100 314
q113 137 302 137q61 0 108 -15q39 -12 55 -12q29 0 35 27h31l12 -271h-35q-16 94 -55 152q-53 80 -160 80q-113 0 -166 -115q-45 -96 -45 -268q0 -193 52 -291q59 -113 168 -113q49 0 100 31t82 72q43 57 65 153h35l-10 -280h-35q2 39 -45 39q-6 0 -74 -27q-74 -27 -135 -26
q-186 0 -291 131q-94 118 -94 282z" />
    <glyph glyph-name="ordfeminine" unicode="&#xaa;" horiz-adv-x="974" 
d="M61 203q0 137 129 215q123 74 342 74h68v229q0 80 -39 113q-31 25 -98 24q-41 0 -82 -10q-51 -14 -51 -51q0 -8 5 -18.5t14 -27t16 -28.5q14 -31 13 -60q0 -32 -17 -60q-32 -54 -103 -54q-53 0 -92 31.5t-39 89.5q0 106 119 172q98 53 246 53q106 0 181 -29.5t101 -74.5
q27 -43 27 -148v-532q0 -68 51 -68q23 0 51.5 20.5t42.5 45.5l29 -27q-76 -104 -193 -105q-90 0 -137 54q-29 33 -45 80q-70 -59 -119 -86q-86 -47 -182 -47.5t-162 55.5q-76 61 -76 170zM291 221q0 -82 35 -121q35 -37 92 -37q51 0 110 37q72 45 72 74v285h-33
q-207 0 -256 -99q-20 -41 -20 -139z" />
    <glyph glyph-name="guillemotleft" unicode="&#xab;" horiz-adv-x="778" 
d="M57 434q285 176 494 428l18 -16q-119 -207 -284 -412q166 -205 284 -411l-18 -17q-222 256 -494 428zM418 434q156 94 282 234l21 -9q-55 -127 -143 -223q88 -100 143 -225l-21 -8q-120 137 -282 231z" />
    <glyph glyph-name="logicalnot" unicode="&#xac;" horiz-adv-x="1538" 
d="M86 379v92h1366v-393h-92v301h-1274z" />
    <glyph glyph-name="uni00AD" unicode="&#xad;" horiz-adv-x="716" 
d="M143 379v92h430v-92h-430z" />
    <glyph glyph-name="registered" unicode="&#xae;" horiz-adv-x="1576" 
d="M92 669.5q0 286.5 205 491.5t491.5 205t491.5 -205t205 -491.5t-205 -491.5t-491.5 -205t-491.5 205t-205 491.5zM150 670q0 -264 187 -451.5t451.5 -187.5t451.5 187.5t187 451.5t-187 451.5t-451.5 187.5t-451.5 -187.5t-187 -451.5zM426 289v22h90v713h-90v23h332
q166 0 237 -35q96 -49 97 -133q0 -78 -64 -125q-59 -43 -174 -60v-6q55 -12 100 -33q80 -37 99 -98q8 -33 20 -156q0 -4 1 -13t1 -13t1 -12.5t3 -12.5t3 -10t4.5 -9t6.5 -7.5t7 -5.5t10 -1q25 0 59 41l19 -20q-53 -61 -139 -62q-121 0 -144 109q-4 16 -13 107.5t-22 123.5
q-25 61 -114 62h-76v-367h88v-22h-342zM680 700h63q96 0 138 52q31 39 30 127q0 92 -47 122q-35 23 -112 23h-72v-324z" />
    <glyph glyph-name="degree" unicode="&#xb0;" horiz-adv-x="602" 
d="M115 1218.5q0 77.5 54 132t132 54.5t132 -53.5t54 -132.5q0 -76 -55 -131.5t-131 -55.5q-80 0 -133 54.5t-53 132zM166 1218.5q0 -55.5 40 -95.5t95 -40t95 40t40 95.5t-40 95.5t-95 40t-95 -40t-40 -95.5z" />
    <glyph glyph-name="plusminus" unicode="&#xb1;" horiz-adv-x="1376" 
d="M143 119v86h1090v-86h-1090zM143 670v86h504v397h86v-397h500v-86h-500v-310h-86v310h-504z" />
    <glyph glyph-name="mu" unicode="&#xb5;" horiz-adv-x="1083" 
d="M100 -334q0 23 4 51l12 79q7 50 13 100q35 276 35 348v628h201v-690q0 -61 28 -100q41 -49 109 -49q57 0 123 45q55 37 94 90v704h201v-837h129v-35h-330v117q-49 -59 -119 -99q-80 -45 -164 -45q-100 0 -166 68h-8q20 -111 37 -166q39 -152 39 -201q0 -137 -119 -137
t-119 129z" />
    <glyph glyph-name="mu" unicode="&#x3bc;" horiz-adv-x="1083" 
d="M100 -334q0 23 4 51l12 79q7 50 13 100q35 276 35 348v628h201v-690q0 -61 28 -100q41 -49 109 -49q57 0 123 45q55 37 94 90v704h201v-837h129v-35h-330v117q-49 -59 -119 -99q-80 -45 -164 -45q-100 0 -166 68h-8q20 -111 37 -166q39 -152 39 -201q0 -137 -119 -137
t-119 129z" />
    <glyph glyph-name="paragraph" unicode="&#xb6;" horiz-adv-x="960" 
d="M70 993q0 129 97 238.5t261 109.5h102v-1777h-102v1083q-164 2 -261 109.5t-97 236.5zM715 -436v1777h102v-1777h-102z" />
    <glyph glyph-name="uni2219" unicode="&#xb7;" horiz-adv-x="409" 
d="M94 756q0 47 33 79.5t80 32.5t78.5 -31.5t31.5 -80.5q0 -47 -31.5 -79t-78.5 -32q-49 0 -81 32t-32 79z" />
    <glyph glyph-name="uni2219" unicode="&#x2219;" horiz-adv-x="409" 
d="M94 756q0 47 33 79.5t80 32.5t78.5 -31.5t31.5 -80.5q0 -47 -31.5 -79t-78.5 -32q-49 0 -81 32t-32 79z" />
    <glyph glyph-name="ordmasculine" unicode="&#xba;" horiz-adv-x="978" 
d="M45 436q0 178 117 312q131 147 327.5 147t327.5 -147q117 -133 117 -312q0 -184 -117 -313q-59 -66 -147 -106t-180.5 -40t-180.5 40t-147 106q-117 129 -117 313zM274 303q0 -131 52 -207q55 -82 163.5 -82t163.5 82q51 76 52 207v205q0 188 -52 262q-61 88 -163.5 88
t-163.5 -88q-51 -74 -52 -262v-205z" />
    <glyph glyph-name="guillemotright" unicode="&#xbb;" horiz-adv-x="778" 
d="M57 211q53 115 144 225q-88 104 -144 223l23 9q121 -137 280 -234q-164 -94 -280 -231zM211 23q121 215 283 411q-162 197 -283 412l16 16q209 -252 494 -428q-272 -172 -494 -428z" />
    <glyph glyph-name="Agrave" unicode="&#xc0;" horiz-adv-x="1263" 
d="M219 1767h248l198 -280h-51zM0 0v41q72 6 121 59q29 31 47 80l453 1161h36l467 -1300h140v-41h-564v41h183l-152 414h-401l-74 -183q-39 -104 -39 -149q0 -51 55 -70q23 -6 76 -12v-41h-348zM340 496h377l-176 508z" />
    <glyph glyph-name="Acircumflex" unicode="&#xc2;" horiz-adv-x="1263" 
d="M301 1487l338 338l338 -338h-172l-166 166l-166 -166h-172zM0 0v41q72 6 121 59q29 31 47 80l453 1161h36l467 -1300h140v-41h-564v41h183l-152 414h-401l-74 -183q-39 -104 -39 -149q0 -51 55 -70q23 -6 76 -12v-41h-348zM340 496h377l-176 508z" />
    <glyph glyph-name="Atilde" unicode="&#xc3;" horiz-adv-x="1263" 
d="M209 1487q35 76 90 133q86 90 201 90q76 0 186 -31q27 -8 64.5 -18.5t57 -16.5t43 -10t40.5 -4q51 0 88 31q8 6 35 43h55q-29 -63 -70 -117q-76 -98 -190 -98q-41 0 -203 36q-158 35 -221 35q-47 0 -80 -24q-25 -23 -39 -49h-57zM0 0v41q72 6 121 59q29 31 47 80
l453 1161h36l467 -1300h140v-41h-564v41h183l-152 414h-401l-74 -183q-39 -104 -39 -149q0 -51 55 -70q23 -6 76 -12v-41h-348zM340 496h377l-176 508z" />
    <glyph glyph-name="Aring" unicode="&#xc5;" horiz-adv-x="1263" 
d="M453 1537.5q0 77.5 54 132t132 54.5t132 -53.5t54 -132.5q0 -76 -55 -131.5t-131 -55.5q-80 0 -133 54.5t-53 132zM504 1537.5q0 -55.5 40 -95.5t95 -40t95 40t40 95.5t-40 95.5t-95 40t-95 -40t-40 -95.5zM0 0v41q72 6 121 59q29 31 47 80l453 1161h36l467 -1300h140
v-41h-564v41h183l-152 414h-401l-74 -183q-39 -104 -39 -149q0 -51 55 -70q23 -6 76 -12v-41h-348zM340 496h377l-176 508z" />
    <glyph glyph-name="Egrave" unicode="&#xc8;" horiz-adv-x="1230" 
d="M170 1767h248l198 -280h-51zM86 0v41h158v1259h-158v41h1010l22 -387h-49q-23 141 -78 226q-82 121 -260 120h-258v-563h74q139 0 188 111q25 53 33 135h41v-537h-41q-18 106 -31 142q-43 109 -178 108h-86v-655h293q174 0 266 129q55 76 86 248h49l-43 -418h-1038z" />
    <glyph glyph-name="Ecircumflex" unicode="&#xca;" horiz-adv-x="1230" 
d="M252 1487l338 338l338 -338h-172l-166 166l-166 -166h-172zM86 0v41h158v1259h-158v41h1010l22 -387h-49q-23 141 -78 226q-82 121 -260 120h-258v-563h74q139 0 188 111q25 53 33 135h41v-537h-41q-18 106 -31 142q-43 109 -178 108h-86v-655h293q174 0 266 129
q55 76 86 248h49l-43 -418h-1038z" />
    <glyph glyph-name="Igrave" unicode="&#xcc;" horiz-adv-x="716" 
d="M-63 1767h248l198 -280h-51zM86 0v41h158v1259h-158v41h545v-41h-158v-1259h158v-41h-545z" />
    <glyph glyph-name="Icircumflex" unicode="&#xce;" horiz-adv-x="716" 
d="M21 1487l338 338l338 -338h-172l-166 166l-166 -166h-172zM86 0v41h158v1259h-158v41h545v-41h-158v-1259h158v-41h-545z" />
    <glyph glyph-name="Ntilde" unicode="&#xd1;" horiz-adv-x="1452" 
d="M308 1487q35 76 90 133q86 90 201 90q76 0 186 -31q27 -8 64.5 -18.5t57 -16.5t43 -10t40.5 -4q51 0 88 31q8 6 35 43h55q-29 -63 -70 -117q-76 -98 -190 -98q-41 0 -203 36q-158 35 -221 35q-47 0 -80 -24q-25 -23 -39 -49h-57zM86 0v41q13 -1 26 -1q77 0 119 54
q31 41 31 131v969q0 53 -48 78.5t-105 27.5v41h325l713 -942v766q0 66 -45 101q-44 35 -116 35q-8 0 -15 -1v41h395v-41q-4 0 -8 1q-98 0 -137 -50q-31 -39 -31 -135v-1139h-14l-871 1160v-912q0 -96 53 -141q51 -43 125 -43v-41h-397z" />
    <glyph glyph-name="Ograve" unicode="&#xd2;" horiz-adv-x="1495" 
d="M326 1767h248l198 -280h-51zM102 672q0 250 150 444q94 121 229 184.5t266.5 63.5t266.5 -63.5t229 -184.5q150 -195 150 -444.5t-150 -444.5q-104 -135 -240.5 -192.5t-255 -57.5t-255 57.5t-240.5 192.5q-150 195 -150 445zM360 672q0 -236 43 -365q47 -143 144.5 -217
t200 -74t199.5 74t145 217q43 129 43 365q0 238 -43 364q-47 141 -144.5 215t-200 74t-199.5 -73.5t-145 -215.5q-43 -126 -43 -364z" />
    <glyph glyph-name="Ocircumflex" unicode="&#xd4;" horiz-adv-x="1495" 
d="M410 1487l338 338l338 -338h-172l-166 166l-166 -166h-172zM102 672q0 250 150 444q94 121 229 184.5t266.5 63.5t266.5 -63.5t229 -184.5q150 -195 150 -444.5t-150 -444.5q-104 -135 -240.5 -192.5t-255 -57.5t-255 57.5t-240.5 192.5q-150 195 -150 445zM360 672
q0 -236 43 -365q47 -143 144.5 -217t200 -74t199.5 74t145 217q43 129 43 365q0 238 -43 364q-47 141 -144.5 215t-200 74t-199.5 -73.5t-145 -215.5q-43 -126 -43 -364z" />
    <glyph glyph-name="Otilde" unicode="&#xd5;" horiz-adv-x="1495" 
d="M318 1487q35 76 90 133q86 90 201 90q76 0 186 -31q27 -8 64.5 -18.5t57 -16.5t43 -10t40.5 -4q51 0 88 31q8 6 35 43h55q-29 -63 -70 -117q-76 -98 -190 -98q-41 0 -203 36q-158 35 -221 35q-47 0 -80 -24q-25 -23 -39 -49h-57zM102 672q0 250 150 444q94 121 229 184.5
t266.5 63.5t266.5 -63.5t229 -184.5q150 -195 150 -444.5t-150 -444.5q-104 -135 -240.5 -192.5t-255 -57.5t-255 57.5t-240.5 192.5q-150 195 -150 445zM360 672q0 -236 43 -365q47 -143 144.5 -217t200 -74t199.5 74t145 217q43 129 43 365q0 238 -43 364
q-47 141 -144.5 215t-200 74t-199.5 -73.5t-145 -215.5q-43 -126 -43 -364z" />
    <glyph glyph-name="Ugrave" unicode="&#xd9;" horiz-adv-x="1497" 
d="M328 1767h248l198 -280h-51zM86 1300v41h545v-41h-158v-958q0 -119 59 -186q94 -117 287 -117q176 0 277 94q45 43 67.5 103.5t24.5 91t2 90.5v739q0 72 -41 107q-33 27 -137 36v41h399v-41q-96 -4 -127 -22q-12 -8 -22 -23q-29 -33 -29 -139v-741q0 -174 -117 -281
q-127 -117 -332 -117q-162 0 -288 50q-104 41 -166 108q-86 94 -86 240v925h-158z" />
    <glyph glyph-name="Ucircumflex" unicode="&#xdb;" horiz-adv-x="1497" 
d="M412 1487l338 338l338 -338h-172l-166 166l-166 -166h-172zM86 1300v41h545v-41h-158v-958q0 -119 59 -186q94 -117 287 -117q176 0 277 94q45 43 67.5 103.5t24.5 91t2 90.5v739q0 72 -41 107q-33 27 -137 36v41h399v-41q-96 -4 -127 -22q-12 -8 -22 -23
q-29 -33 -29 -139v-741q0 -174 -117 -281q-127 -117 -332 -117q-162 0 -288 50q-104 41 -166 108q-86 94 -86 240v925h-158z" />
    <glyph glyph-name="agrave" unicode="&#xe0;" horiz-adv-x="974" 
d="M72 1298h248l198 -280h-51zM61 203q0 137 129 215q123 74 342 74h68v229q0 80 -39 113q-31 25 -98 24q-41 0 -82 -10q-51 -14 -51 -51q0 -8 5 -18.5t14 -27t16 -28.5q14 -31 13 -60q0 -32 -17 -60q-32 -54 -103 -54q-53 0 -92 31.5t-39 89.5q0 106 119 172q98 53 246 53
q106 0 181 -29.5t101 -74.5q27 -43 27 -148v-532q0 -68 51 -68q23 0 51.5 20.5t42.5 45.5l29 -27q-76 -104 -193 -105q-90 0 -137 54q-29 33 -45 80q-70 -59 -119 -86q-86 -47 -182 -47.5t-162 55.5q-76 61 -76 170zM291 221q0 -82 35 -121q35 -37 92 -37q51 0 110 37
q72 45 72 74v285h-33q-207 0 -256 -99q-20 -41 -20 -139z" />
    <glyph glyph-name="acircumflex" unicode="&#xe2;" horiz-adv-x="974" 
d="M154 1018l338 338l338 -338h-172l-166 166l-166 -166h-172zM61 203q0 137 129 215q123 74 342 74h68v229q0 80 -39 113q-31 25 -98 24q-41 0 -82 -10q-51 -14 -51 -51q0 -8 5 -18.5t14 -27t16 -28.5q14 -31 13 -60q0 -32 -17 -60q-32 -54 -103 -54q-53 0 -92 31.5
t-39 89.5q0 106 119 172q98 53 246 53q106 0 181 -29.5t101 -74.5q27 -43 27 -148v-532q0 -68 51 -68q23 0 51.5 20.5t42.5 45.5l29 -27q-76 -104 -193 -105q-90 0 -137 54q-29 33 -45 80q-70 -59 -119 -86q-86 -47 -182 -47.5t-162 55.5q-76 61 -76 170zM291 221
q0 -82 35 -121q35 -37 92 -37q51 0 110 37q72 45 72 74v285h-33q-207 0 -256 -99q-20 -41 -20 -139z" />
    <glyph glyph-name="atilde" unicode="&#xe3;" horiz-adv-x="974" 
d="M62 1018q35 76 90 133q86 90 201 90q76 0 186 -31q27 -8 64.5 -18.5t57 -16.5t43 -10t40.5 -4q51 0 88 31q8 6 35 43h55q-29 -63 -70 -117q-76 -98 -190 -98q-41 0 -203 36q-158 35 -221 35q-47 0 -80 -24q-25 -23 -39 -49h-57zM61 203q0 137 129 215q123 74 342 74h68
v229q0 80 -39 113q-31 25 -98 24q-41 0 -82 -10q-51 -14 -51 -51q0 -8 5 -18.5t14 -27t16 -28.5q14 -31 13 -60q0 -32 -17 -60q-32 -54 -103 -54q-53 0 -92 31.5t-39 89.5q0 106 119 172q98 53 246 53q106 0 181 -29.5t101 -74.5q27 -43 27 -148v-532q0 -68 51 -68
q23 0 51.5 20.5t42.5 45.5l29 -27q-76 -104 -193 -105q-90 0 -137 54q-29 33 -45 80q-70 -59 -119 -86q-86 -47 -182 -47.5t-162 55.5q-76 61 -76 170zM291 221q0 -82 35 -121q35 -37 92 -37q51 0 110 37q72 45 72 74v285h-33q-207 0 -256 -99q-20 -41 -20 -139z" />
    <glyph glyph-name="aring" unicode="&#xe5;" horiz-adv-x="974" 
d="M305 1204.5q0 77.5 54 132t132 54.5t132 -53.5t54 -132.5q0 -76 -55 -131.5t-131 -55.5q-80 0 -133 54.5t-53 132zM356 1204.5q0 -55.5 40 -95.5t95 -40t95 40t40 95.5t-40 95.5t-95 40t-95 -40t-40 -95.5zM61 203q0 137 129 215q123 74 342 74h68v229q0 80 -39 113
q-31 25 -98 24q-41 0 -82 -10q-51 -14 -51 -51q0 -8 5 -18.5t14 -27t16 -28.5q14 -31 13 -60q0 -32 -17 -60q-32 -54 -103 -54q-53 0 -92 31.5t-39 89.5q0 106 119 172q98 53 246 53q106 0 181 -29.5t101 -74.5q27 -43 27 -148v-532q0 -68 51 -68q23 0 51.5 20.5t42.5 45.5
l29 -27q-76 -104 -193 -105q-90 0 -137 54q-29 33 -45 80q-70 -59 -119 -86q-86 -47 -182 -47.5t-162 55.5q-76 61 -76 170zM291 221q0 -82 35 -121q35 -37 92 -37q51 0 110 37q72 45 72 74v285h-33q-207 0 -256 -99q-20 -41 -20 -139z" />
    <glyph glyph-name="egrave" unicode="&#xe8;" horiz-adv-x="901" 
d="M47 1298h248l198 -280h-51zM45 428q0 184 113 320q125 147 309 147t291 -139q86 -111 90 -273h-574v-139q0 -172 56 -248q61 -82 164 -82q109 0 215 97q55 51 112 133l35 -23q-55 -92 -127 -151q-109 -92 -252 -93q-90 0 -177 37t-144 103q-111 127 -111 311zM274 518
h361q1 32 1 60q0 113 -20 172q-37 111 -155 110q-113 0 -162 -94q-25 -49 -25 -119v-129z" />
    <glyph glyph-name="ecircumflex" unicode="&#xea;" horiz-adv-x="901" 
d="M129 1018l338 338l338 -338h-172l-166 166l-166 -166h-172zM45 428q0 184 113 320q125 147 309 147t291 -139q86 -111 90 -273h-574v-139q0 -172 56 -248q61 -82 164 -82q109 0 215 97q55 51 112 133l35 -23q-55 -92 -127 -151q-109 -92 -252 -93q-90 0 -177 37t-144 103
q-111 127 -111 311zM274 518h361q1 32 1 60q0 113 -20 172q-37 111 -155 110q-113 0 -162 -94q-25 -49 -25 -119v-129z" />
    <glyph glyph-name="igrave" unicode="&#xec;" horiz-adv-x="534" 
d="M-154 1722h248l198 -280h-51zM41 0v35h129v803h-129v34h203q63 0 127 11v-848h129v-35h-459zM152 1204q0 45 34.5 80t79.5 35t80 -35t35 -80t-35 -79.5t-80 -34.5t-79.5 34.5t-34.5 79.5z" />
    <glyph glyph-name="icircumflex" unicode="&#xee;" horiz-adv-x="534" 
d="M-71 1442l338 338l338 -338h-172l-166 166l-166 -166h-172zM41 0v35h129v803h-129v34h203q63 0 127 11v-848h129v-35h-459zM152 1204q0 45 34.5 80t79.5 35t80 -35t35 -80t-35 -79.5t-80 -34.5t-79.5 34.5t-34.5 79.5z" />
    <glyph glyph-name="ntilde" unicode="&#xf1;" horiz-adv-x="1089" 
d="M119 1018q35 76 90 133q86 90 201 90q76 0 186 -31q27 -8 64.5 -18.5t57 -16.5t43 -10t40.5 -4q51 0 88 31q8 6 35 43h55q-29 -63 -70 -117q-76 -98 -190 -98q-41 0 -203 36q-158 35 -221 35q-47 0 -80 -24q-25 -23 -39 -49h-57zM41 0v35h129v803h-129v34h205
q59 0 125 11v-129q61 66 118 98q74 43 170 43q141 0 211 -70q55 -55 56 -135v-655h129v-35h-445v35h115v655q0 68 -29 105q-37 45 -108 45q-66 0 -119 -41q-51 -41 -98 -94v-670h114v-35h-444z" />
    <glyph glyph-name="ograve" unicode="&#xf2;" horiz-adv-x="978" 
d="M68 1298h248l198 -280h-51zM45 436q0 178 117 312q131 147 327.5 147t327.5 -147q117 -133 117 -312q0 -184 -117 -313q-59 -66 -147 -106t-180.5 -40t-180.5 40t-147 106q-117 129 -117 313zM274 303q0 -131 52 -207q55 -82 163.5 -82t163.5 82q51 76 52 207v205
q0 188 -52 262q-61 88 -163.5 88t-163.5 -88q-51 -74 -52 -262v-205z" />
    <glyph glyph-name="ocircumflex" unicode="&#xf4;" horiz-adv-x="978" 
d="M152 1018l338 338l338 -338h-172l-166 166l-166 -166h-172zM45 436q0 178 117 312q131 147 327.5 147t327.5 -147q117 -133 117 -312q0 -184 -117 -313q-59 -66 -147 -106t-180.5 -40t-180.5 40t-147 106q-117 129 -117 313zM274 303q0 -131 52 -207q55 -82 163.5 -82
t163.5 82q51 76 52 207v205q0 188 -52 262q-61 88 -163.5 88t-163.5 -88q-51 -74 -52 -262v-205z" />
    <glyph glyph-name="otilde" unicode="&#xf5;" horiz-adv-x="978" 
d="M60 1018q35 76 90 133q86 90 201 90q76 0 186 -31q27 -8 64.5 -18.5t57 -16.5t43 -10t40.5 -4q51 0 88 31q8 6 35 43h55q-29 -63 -70 -117q-76 -98 -190 -98q-41 0 -203 36q-158 35 -221 35q-47 0 -80 -24q-25 -23 -39 -49h-57zM45 436q0 178 117 312q131 147 327.5 147
t327.5 -147q117 -133 117 -312q0 -184 -117 -313q-59 -66 -147 -106t-180.5 -40t-180.5 40t-147 106q-117 129 -117 313zM274 303q0 -131 52 -207q55 -82 163.5 -82t163.5 82q51 76 52 207v205q0 188 -52 262q-61 88 -163.5 88t-163.5 -88q-51 -74 -52 -262v-205z" />
    <glyph glyph-name="ugrave" unicode="&#xf9;" horiz-adv-x="1083" 
d="M221 1298h248l198 -280h-51zM35 838v34h205q59 0 125 11v-701q0 -70 30 -106q35 -43 107 -43q68 0 123 41q51 35 94 94v670h-115v34h191q70 0 125 11v-848h129v-35h-330v117q-61 -68 -119 -97q-82 -43 -170 -43q-137 0 -209 70q-57 57 -57 176v615h-129z" />
    <glyph glyph-name="ucircumflex" unicode="&#xfb;" horiz-adv-x="1083" 
d="M305 1018l338 338l338 -338h-172l-166 166l-166 -166h-172zM35 838v34h205q59 0 125 11v-701q0 -70 30 -106q35 -43 107 -43q68 0 123 41q51 35 94 94v670h-115v34h191q70 0 125 11v-848h129v-35h-330v117q-61 -68 -119 -97q-82 -43 -170 -43q-137 0 -209 70
q-57 57 -57 176v615h-129z" />
    <glyph glyph-name="dotlessi" unicode="&#x131;" horiz-adv-x="534" 
d="M41 0v35h129v803h-129v34h203q63 0 127 11v-848h129v-35h-459z" />
    <glyph glyph-name="OE" unicode="&#x152;" horiz-adv-x="2725" 
d="M1581 0v41h158v1259h-158v41h1010l22 -387h-49q-23 141 -78 226q-82 121 -260 120h-258v-563h74q139 0 188 111q25 53 33 135h41v-537h-41q-18 106 -31 142q-43 109 -178 108h-86v-655h293q174 0 266 129q55 76 86 248h49l-43 -418h-1038zM102 672q0 250 150 444
q94 121 229 184.5t266.5 63.5t266.5 -63.5t229 -184.5q150 -195 150 -444.5t-150 -444.5q-104 -135 -240.5 -192.5t-255 -57.5t-255 57.5t-240.5 192.5q-150 195 -150 445zM360 672q0 -236 43 -365q47 -143 144.5 -217t200 -74t199.5 74t145 217q43 129 43 365
q0 238 -43 364q-47 141 -144.5 215t-200 74t-199.5 -73.5t-145 -215.5q-43 -126 -43 -364z" />
    <glyph glyph-name="oe" unicode="&#x153;" horiz-adv-x="1880" 
d="M1024 428q0 184 113 320q125 147 309 147t291 -139q86 -111 90 -273h-574v-139q0 -172 56 -248q61 -82 164 -82q109 0 215 97q55 51 112 133l35 -23q-55 -92 -127 -151q-109 -92 -252 -93q-90 0 -177 37t-144 103q-111 127 -111 311zM1253 518h361q1 32 1 60
q0 113 -20 172q-37 111 -155 110q-113 0 -162 -94q-25 -49 -25 -119v-129zM45 436q0 178 117 312q131 147 327.5 147t327.5 -147q117 -133 117 -312q0 -184 -117 -313q-59 -66 -147 -106t-180.5 -40t-180.5 40t-147 106q-117 129 -117 313zM274 303q0 -131 52 -207
q55 -82 163.5 -82t163.5 82q51 76 52 207v205q0 188 -52 262q-61 88 -163.5 88t-163.5 -88q-51 -74 -52 -262v-205z" />
    <glyph glyph-name="circumflex" unicode="&#x2c6;" horiz-adv-x="745" 
d="M35 1010l338 338l338 -338h-172l-166 166l-166 -166h-172z" />
    <glyph glyph-name="uni0400" unicode="&#x400;" horiz-adv-x="1230" 
d="M170 1767h248l198 -280h-51zM86 0v41h158v1259h-158v41h1010l22 -387h-49q-23 141 -78 226q-82 121 -260 120h-258v-563h74q139 0 188 111q25 53 33 135h41v-537h-41q-18 106 -31 142q-43 109 -178 108h-86v-655h293q174 0 266 129q55 76 86 248h49l-43 -418h-1038z" />
    <glyph glyph-name="afii10023" unicode="&#x401;" horiz-adv-x="1230" 
d="M86 0v41h158v1259h-158v41h1010l22 -387h-49q-23 141 -78 226q-82 121 -260 120h-258v-563h74q139 0 188 111q25 53 33 135h41v-537h-41q-18 106 -31 142q-43 109 -178 108h-86v-655h293q174 0 266 129q55 76 86 248h49l-43 -418h-1038zM295 1556q0 43 27 66q31 25 92 25
q59 0 92 -25q27 -20 26 -66q0 -47 -34 -73q-29 -20 -84.5 -20.5t-83.5 20.5q-35 24 -35 73zM727 1556q0 43 27 66q31 25 92 25q59 0 92 -25q27 -20 27 -59q0 -55 -35 -80q-29 -20 -84 -21q-57 0 -84 21q-35 28 -35 73z" />
    <glyph glyph-name="afii10051" unicode="&#x402;" horiz-adv-x="1560" 
d="M45 948l37 393h1130l37 -393h-55q-20 154 -78 236q-86 119 -278 119h-76v-639q188 94 356 94q127 0 221 -47q176 -90 177 -328q0 -172 -76 -272q-100 -135 -279 -136q-104 0 -162 58q-49 49 -49 114q0 55 33 92t88 37q51 0 84 -31.5t33 -88.5q0 -51 -39 -80
q-23 -14 -23 -31q0 -35 43 -35q37 0 66 33q39 43 39 201v129q0 143 -31 205q-10 23 -26 40q-70 82 -207 82q-104 0 -248 -75v-584h129v-41h-516v41h157v1262h-75q-186 0 -277 -119q-61 -82 -80 -236h-55z" />
    <glyph glyph-name="afii10052" unicode="&#x403;" horiz-adv-x="1101" 
d="M86 0v41h158v1259h-158v41h977l24 -389h-49q-20 170 -96 262q-72 86 -194 86h-275v-1259h158v-41h-545zM328 1409l200 281h246l-393 -281h-53z" />
    <glyph glyph-name="afii10053" unicode="&#x404;" horiz-adv-x="1243" 
d="M109 659q0 264 137 459q172 246 461 246q74 0 157 -27q100 -31 115 -30q29 0 43 14q23 18 33 51l49 2l10 -436l-45 -2q-8 72 -32.5 150.5t-57.5 121.5q-41 53 -110.5 85t-139.5 32q-164 0 -264 -129q-98 -127 -98 -397v-62h538v-41h-538v-131q0 -242 55 -358
q41 -86 122 -138.5t179 -52.5q229 0 350 250q47 98 70 226h43q-12 -117 -66 -234q-127 -281 -420 -281q-315 0 -475 248q-116 180 -116 434z" />
    <glyph glyph-name="afii10054" unicode="&#x405;" horiz-adv-x="1081" 
d="M86 0v428h29q59 -147 125 -231q74 -96 170 -138.5t186 -42.5q143 0 223 90q66 70 66 181q0 92 -56 159q-53 61 -163 93l-242 65q-141 37 -217 133q-74 94 -74 240q0 203 131 309q94 78 223 78q94 0 193 -35l47 -18q27 -10 42 -15.5t28 -5.5q35 0 71 51h33l8 -323h-28
q-55 125 -125 194q-51 53 -124 83t-143 30q-119 0 -192 -74q-68 -72 -68 -176q0 -94 70 -162q49 -47 182 -82l209 -55q186 -51 258 -184q47 -84 47 -211q0 -156 -86 -262q-109 -141 -313 -142q-137 0 -250 52q-14 6 -36.5 17t-35 16.5t-28 10.5t-29.5 5q-33 0 -55.5 -21.5
t-26.5 -56.5h-49z" />
    <glyph glyph-name="afii10055" unicode="&#x406;" horiz-adv-x="716" 
d="M86 0v41h158v1259h-158v41h545v-41h-158v-1259h158v-41h-545z" />
    <glyph glyph-name="afii10056" unicode="&#x407;" horiz-adv-x="716" 
d="M37 1556q0 90 118.5 90.5t118.5 -90.5q0 -94 -118.5 -94t-118.5 94zM86 0v41h158v1259h-158v41h545v-41h-158v-1259h158v-41h-545zM469 1559q0 88 119 88t119 -91q0 -94 -119 -93.5t-119 96.5z" />
    <glyph glyph-name="afii10057" unicode="&#x408;" horiz-adv-x="929" 
d="M29 238q0 61 36.5 99t98.5 38q53 0 84 -36t31 -81q0 -49 -50 -94q-45 -39 -45 -62q0 -31 38 -57.5t91 -26.5q76 0 117 56q27 35 27 102v1124h-158v41h545v-41h-158v-954q0 -154 -70 -240q-100 -129 -282 -129q-104 0 -184 54q-55 37 -88 94.5t-33 112.5z" />
    <glyph glyph-name="afii10058" unicode="&#x409;" horiz-adv-x="1953" 
d="M35 172q0 68 38 110t105 42q55 0 90 -33t35 -78q0 -53 -26.5 -94t-26.5 -49q0 -16 14.5 -29.5t38.5 -13.5q80 0 115 92q18 45 20 213l8 330q6 244 7 432q0 104 -33 147q-47 59 -146 59h-49v41h1106v-41h-157v-557h180q137 0 229 -18t172 -78q141 -106 141 -280
q0 -158 -88 -250q-51 -55 -137 -83t-141 -31t-158 -3h-586v41h158v1259h-229q-109 0 -158 -45q-45 -39 -53 -127q-4 -37 -15 -466l-8 -330q-6 -195 -28 -246q-47 -109 -177 -109q-102 0 -165 46q-76 55 -76 149zM1174 41h245q119 0 178 74q41 53 41 145v158q0 129 -36 186
q-61 98 -246 98h-182v-661z" />
    <glyph glyph-name="afii10059" unicode="&#x40a;" horiz-adv-x="2086" 
d="M86 0v41h158v1259h-158v41h530v-41h-143v-563h604v563h-143v41h530v-41h-157v-563h180q276 0 401 -90q141 -100 142 -285q0 -152 -88 -245q-41 -43 -94.5 -68.5t-124 -35t-106.5 -11.5t-112 -2h-571v41h143v655h-604v-655h143v-41h-530zM1307 41h245q119 0 179 74
q41 53 41 145v156q0 131 -37 186q-61 94 -246 94h-182v-655z" />
    <glyph glyph-name="afii10060" unicode="&#x40b;" horiz-adv-x="1671" 
d="M45 948l37 393h1130l37 -393h-55q-20 154 -78 236q-86 119 -278 119h-76v-639q166 94 340 94q129 0 215 -39q168 -76 168 -273v-405h157v-41h-530v41h143v403q0 131 -53 191q-61 66 -180 65q-123 0 -260 -75v-584h143v-41h-530v41h157v1262h-75q-186 0 -277 -119
q-61 -80 -80 -236h-55z" />
    <glyph glyph-name="afii10061" unicode="&#x40c;" horiz-adv-x="1415" 
d="M86 0v41h158v1259h-158v41h545v-41h-158v-544h197q117 0 170 78q12 20 20 48.5t11 51t8.5 80t9.5 94.5q18 145 59 195q49 61 154 61q98 0 151 -51q55 -51 56 -125q0 -61 -31 -101q-33 -45 -102 -45q-53 0 -87 31t-34 76q0 23 10 65q14 47 14 60q0 35 -41 35
q-88 0 -106 -211q-4 -41 -8 -95.5t-7.5 -82t-11.5 -52.5q-37 -113 -137 -129v-10q37 -8 82 -15t72.5 -13.5t56.5 -20.5q129 -61 170 -211q16 -61 29 -279q2 -59 18 -95t31.5 -45t29.5 -9q51 0 105 68l31 -29q-94 -102 -211 -103q-127 0 -195 68q-55 57 -74 186
q-6 55 -11 162t-15 152q-43 170 -217 170h-197v-674h158v-41h-545zM483 1409l201 281h246l-393 -281h-54z" />
    <glyph glyph-name="uni040D" unicode="&#x40d;" horiz-adv-x="1550" 
d="M354 1767h248l198 -280h-51zM86 0v41h158v1259h-158v41h530v-41h-143v-1062l604 929v133h-143v41h530v-41h-157v-1259h157v-41h-530v41h143v1053l-604 -940v-113h143v-41h-530z" />
    <glyph glyph-name="afii10062" unicode="&#x40e;" horiz-adv-x="1273" 
d="M0 1300v41h563v-41h-172l404 -849l252 643q29 72 28 127q0 39 -26.5 59t-65.5 20h-29v41h349v-41q-55 0 -98.5 -28.5t-60 -53t-24.5 -51.5l-289 -747q-41 -102 -96 -203q-68 -123 -125 -176q-70 -63 -155 -64q-115 0 -193 68q-84 72 -84 180q0 59 36 105.5t103 46.5
q59 0 95.5 -35t36.5 -76q0 -49 -29 -84q-12 -16 -36 -33.5t-37 -32t-13 -28.5q0 -25 28.5 -47.5t79.5 -22.5q86 0 158 76q31 35 66 96l-525 1110h-141zM301 1630q0 57 36 91t83 34q45 0 76.5 -29.5t31.5 -72.5q0 -39 -28 -68q-37 -37 -37 -55q0 -37 59 -53
q49 -14 114.5 -14.5t115.5 14.5q59 16 59 53q0 20 -37 57q-29 33 -29 66q0 43 32 72.5t77 29.5q47 0 83 -33.5t36 -91.5q0 -102 -113 -160q-88 -47 -223 -47t-223 47q-113 58 -113 160z" />
    <glyph glyph-name="afii10145" unicode="&#x40f;" horiz-adv-x="1525" 
d="M86 0v41h158v1262h-158v38h530v-38h-143v-1262h580v1262h-144v38h531v-38h-158v-1262h158v-41h-465q-68 -51 -113 -147q-55 -119 -57 -271h-70q-6 143 -71 266q-53 98 -113 152h-465z" />
    <glyph glyph-name="afii10017" unicode="&#x410;" horiz-adv-x="1263" 
d="M0 0v41q72 6 121 59q29 31 47 80l453 1161h36l467 -1300h140v-41h-564v41h183l-152 414h-401l-74 -183q-39 -104 -39 -149q0 -51 55 -70q23 -6 76 -12v-41h-348zM340 496h377l-176 508z" />
    <glyph glyph-name="afii10018" unicode="&#x411;" horiz-adv-x="1314" 
d="M86 0v41h158v1259h-158v41h981l23 -374h-39q-41 182 -95 250q-41 53 -89 68t-117 15h-277v-528l145 -2q221 -2 359 -61q129 -55 179 -144.5t50 -177.5q0 -203 -145 -303q-121 -84 -404 -84h-571zM473 41h127h55q16 0 59.5 6t70 16.5t59.5 34t53 56.5q51 82 51 233
q0 180 -82 258q-88 86 -293 86h-100v-690z" />
    <glyph glyph-name="afii10019" unicode="&#x412;" horiz-adv-x="1361" 
d="M86 0v41h158v1259h-158v41h621q244 0 364 -84q117 -84 117 -221q0 -133 -131 -215q-119 -76 -273 -88v-10q186 -31 283 -82q186 -100 186 -279q0 -154 -110 -247q-131 -115 -410 -115h-647zM473 41h232q119 0 188 53q102 78 102 279q0 176 -102 256q-100 78 -256 78h-164
v-666zM473 748h150q162 0 239 77q66 66 66 209q0 135 -54 195q-66 72 -227 71h-174v-552z" />
    <glyph glyph-name="afii10020" unicode="&#x413;" horiz-adv-x="1101" 
d="M86 0v41h158v1259h-158v41h977l24 -389h-49q-20 170 -96 262q-72 86 -194 86h-275v-1259h158v-41h-545z" />
    <glyph glyph-name="afii10021" unicode="&#x414;" horiz-adv-x="1374" 
d="M16 -367l23 408h80q96 0 147 90q57 98 103 549q33 348 32 469q0 78 -36 113q-39 37 -158 41v38h1085v-41h-157v-1259h182l16 -408h-57q-31 188 -158 293q-57 47 -114.5 60.5t-141.5 13.5h-426q-184 0 -286 -166q-49 -80 -76 -201h-58zM256 41h649v1259h-176
q-168 0 -221 -40q-55 -43 -68 -203q-8 -160 -30 -383q-31 -332 -72 -484q-23 -94 -82 -149z" />
    <glyph glyph-name="afii10022" unicode="&#x415;" horiz-adv-x="1230" 
d="M86 0v41h158v1259h-158v41h1010l22 -387h-49q-23 141 -78 226q-82 121 -260 120h-258v-563h74q139 0 188 111q25 53 33 135h41v-537h-41q-18 106 -31 142q-43 109 -178 108h-86v-655h293q174 0 266 129q55 76 86 248h49l-43 -418h-1038z" />
    <glyph glyph-name="afii10024" unicode="&#x416;" horiz-adv-x="2170" 
d="M80 80l31 29q45 -63 102 -64q33 0 51.5 26.5t23.5 52.5t7 69q14 221 29 274q41 141 168 209q74 39 180 51v23q-45 18 -67.5 46.5t-37.5 84.5q-8 33 -28 225q-23 203 -107 203q-41 0 -41 -37q0 -18 19 -64q10 -31 10 -67q0 -43 -37 -71t-88 -28q-59 0 -94 42t-35 100
q0 80 51 127q57 53 160 53q121 0 172 -96q10 -18 16 -37t10.5 -48.5t6.5 -48t7 -68.5t7 -77q4 -43 7 -64.5t16.5 -60.5t34 -58.5t59.5 -35.5t94 -16h164v546h-158v41h545v-41h-158v-546h164q55 0 94 16t59.5 35.5t34 58.5t16.5 60.5t7 64.5q2 27 7 77t7 68.5t6 48t10.5 48
t16.5 37.5q51 96 172 96q102 0 160 -53q51 -47 51 -127q0 -57 -35 -99.5t-94 -42.5q-51 0 -88 28t-37 71q0 37 10 67q18 45 19 64q0 37 -41 37q-84 0 -107 -203q-20 -193 -28 -225q-14 -55 -37 -84t-68 -47v-23q106 -12 180 -51q127 -68 168 -209q14 -53 29 -274
q2 -43 7 -69t23.5 -52.5t51.5 -26.5q57 0 102 64l31 -29q-57 -61 -102 -82t-113 -21q-231 0 -264 256q-6 39 -11.5 150t-17.5 158q-6 23 -16.5 44t-34 54t-66.5 53.5t-98 20.5h-168v-672h158v-41h-545v41h158v672h-168q-55 0 -98 -20.5t-67 -53.5t-34 -54.5t-16 -43.5
q-12 -47 -17.5 -158t-11.5 -150q-33 -256 -264 -256q-68 0 -113 21t-102 82z" />
    <glyph glyph-name="afii10025" unicode="&#x417;" horiz-adv-x="1200" 
d="M92 303q0 66 42 106t99 40q61 0 96.5 -40t35.5 -85t-33 -78q-14 -12 -40 -25.5t-39 -26t-13 -36.5q0 -72 127 -115q74 -27 147 -27q193 0 268 121q51 82 52 213q0 141 -50 228q-68 121 -213 120h-178v41h170q106 0 172 76q57 66 58 213q0 156 -58 223q-61 74 -194 74
q-117 0 -201 -70q-70 -55 -101.5 -134t-50.5 -195h-38l40 438h39q20 -41 78 -41q23 0 66 12.5t71 18.5q53 10 154 10q168 0 283 -59q172 -88 172 -261q0 -106 -78 -182q-102 -98 -287 -135v-12q162 -31 270 -119q133 -106 134 -262q0 -166 -152 -266q-141 -90 -381 -91
q-244 0 -375 121q-92 86 -92 205z" />
    <glyph glyph-name="afii10026" unicode="&#x418;" horiz-adv-x="1550" 
d="M86 0v41h158v1259h-158v41h530v-41h-143v-1062l604 929v133h-143v41h530v-41h-157v-1259h157v-41h-530v41h143v1053l-604 -940v-113h143v-41h-530z" />
    <glyph glyph-name="afii10027" unicode="&#x419;" horiz-adv-x="1550" 
d="M86 0v41h158v1259h-158v41h530v-41h-143v-1062l604 929v133h-143v41h530v-41h-157v-1259h157v-41h-530v41h143v1053l-604 -940v-113h143v-41h-530zM438 1636q0 53 37 86t88 33q43 0 73 -28.5t30 -75.5q0 -33 -27 -64q-39 -43 -39 -57q0 -39 62 -55q49 -12 112.5 -12.5
t112.5 12.5q61 16 61 55q0 14 -39 57q-27 31 -26 64q0 47 29.5 75.5t72.5 28.5q51 0 88 -32.5t37 -86.5q0 -109 -113 -166q-90 -47 -223 -47t-223 47q-113 57 -113 166z" />
    <glyph glyph-name="afii10028" unicode="&#x41a;" horiz-adv-x="1415" 
d="M86 0v41h158v1259h-158v41h545v-41h-158v-544h197q117 0 170 78q12 20 20 48.5t11 51t8.5 80t9.5 94.5q18 145 59 195q49 61 154 61q98 0 151 -51q55 -51 56 -125q0 -61 -31 -101q-33 -45 -102 -45q-53 0 -87 31t-34 76q0 23 10 65q14 47 14 60q0 35 -41 35
q-88 0 -106 -211q-4 -41 -8 -95.5t-7.5 -82t-11.5 -52.5q-37 -113 -137 -129v-10q37 -8 82 -15t72.5 -13.5t56.5 -20.5q129 -61 170 -211q16 -61 29 -279q2 -59 18 -95t31.5 -45t29.5 -9q51 0 105 68l31 -29q-94 -102 -211 -103q-127 0 -195 68q-55 57 -74 186
q-6 55 -11 162t-15 152q-43 170 -217 170h-197v-674h158v-41h-545z" />
    <glyph glyph-name="afii10029" unicode="&#x41b;" horiz-adv-x="1417" 
d="M35 172q0 68 38 110t105 42q55 0 90 -33t35 -78q0 -53 -26.5 -94t-26.5 -49q0 -14 12 -28.5t43 -14.5q74 0 109 84q20 49 24 221l8 330q6 244 7 432q0 104 -33 147q-47 59 -146 59h-49v41h1106v-41h-157v-1259h157v-41h-545v41h158v1259h-229q-109 0 -158 -45
q-45 -39 -53 -127q-4 -37 -15 -466l-8 -330q-4 -184 -28 -244q-47 -111 -177 -111q-102 0 -165 46q-76 55 -76 149z" />
    <glyph glyph-name="afii10030" unicode="&#x41c;" horiz-adv-x="1734" 
d="M86 0v41q106 -6 145 74q20 41 21 98v973q0 115 -125 114h-37l2 41h387l400 -1038l383 1038h387v-41h-158v-1259h158v-41h-545v41h158v1178l-455 -1244h-37l-475 1233v-997q0 -72 27 -111q23 -33 49 -44t80 -15v-41h-365z" />
    <glyph glyph-name="afii10031" unicode="&#x41d;" horiz-adv-x="1550" 
d="M86 0v41h158v1259h-158v41h530v-41h-143v-563h604v563h-143v41h530v-41h-157v-1259h157v-41h-530v41h143v655h-604v-655h143v-41h-530z" />
    <glyph glyph-name="afii10032" unicode="&#x41e;" horiz-adv-x="1495" 
d="M102 672q0 250 150 444q94 121 229 184.5t266.5 63.5t266.5 -63.5t229 -184.5q150 -195 150 -444.5t-150 -444.5q-104 -135 -240.5 -192.5t-255 -57.5t-255 57.5t-240.5 192.5q-150 195 -150 445zM360 672q0 -236 43 -365q47 -143 144.5 -217t200 -74t199.5 74t145 217
q43 129 43 365q0 238 -43 364q-47 141 -144.5 215t-200 74t-199.5 -73.5t-145 -215.5q-43 -126 -43 -364z" />
    <glyph glyph-name="afii10033" unicode="&#x41f;" horiz-adv-x="1550" 
d="M86 0v41h158v1259h-158v41h1378v-41h-157v-1259h157v-41h-530v41h143v1259h-604v-1259h143v-41h-530z" />
    <glyph glyph-name="afii10034" unicode="&#x420;" horiz-adv-x="1286" 
d="M86 0v41h158v1259h-158v41h590q270 0 403 -122q121 -113 121 -285q0 -174 -108 -277q-131 -125 -418 -125h-201v-491h158v-41h-545zM473 573h141q131 0 211 48q61 37 89 102t28 131v150q0 162 -90 233q-80 63 -238 63h-141v-727z" />
    <glyph glyph-name="afii10035" unicode="&#x421;" horiz-adv-x="1208" 
d="M109 655q0 246 114 428q98 156 230.5 218.5t259.5 62.5q78 0 159 -29q98 -35 119 -35q55 0 74 64h49v-436h-41q-18 180 -84 274q-88 123 -254 123t-264 -125q-104 -131 -104 -397v-332q0 -252 125 -367q92 -88 208 -88q86 0 176.5 51.5t141.5 131.5q53 80 84 247h49
l-16 -446h-54q-8 82 -65 82q-27 0 -109 -45q-113 -59 -239.5 -59.5t-246.5 62t-202 191.5q-110 172 -110 424z" />
    <glyph glyph-name="afii10036" unicode="&#x422;" horiz-adv-x="1298" 
d="M45 920l10 421h1188l10 -421h-57q-20 166 -80 254q-66 96 -176 118q-23 6 -176 8v-1259h158v-41h-545v41h158v1259q-102 0 -152 -8q-131 -18 -201 -118q-57 -84 -80 -254h-57z" />
    <glyph glyph-name="afii10037" unicode="&#x423;" horiz-adv-x="1273" 
d="M0 1300v41h563v-41h-172l404 -849l252 643q29 72 28 127q0 39 -26.5 59t-65.5 20h-29v41h349v-41q-55 0 -98.5 -28.5t-60 -53t-24.5 -51.5l-289 -747q-41 -102 -96 -203q-68 -123 -125 -176q-70 -63 -155 -64q-115 0 -193 68q-84 72 -84 180q0 59 36 105.5t103 46.5
q59 0 95.5 -35t36.5 -76q0 -49 -29 -84q-12 -16 -36 -33.5t-37 -32t-13 -28.5q0 -25 28.5 -47.5t79.5 -22.5q86 0 158 76q31 35 66 96l-525 1110h-141z" />
    <glyph glyph-name="afii10038" unicode="&#x424;" horiz-adv-x="1814" 
d="M86 745q0 219 156 349q168 137 551 145v117h-158v41h545v-41h-158v-117q383 -8 551 -145q156 -129 156 -349q0 -225 -152 -346q-172 -141 -555 -141v-217h158v-41h-545v41h158v217q-383 0 -555 141q-152 121 -152 346zM344 674q0 -170 72 -250q109 -125 377 -125v899
q-102 2 -210 -27.5t-167 -103.5q-72 -88 -72 -260v-133zM1022 299q268 0 377 125q72 80 71 250v133q0 172 -71 260q-59 74 -167 103.5t-210 27.5v-899z" />
    <glyph glyph-name="afii10039" unicode="&#x425;" horiz-adv-x="1433" 
d="M45 0v41q102 27 154 59q57 39 108 113l291 444l-432 643h-121v41h524v-41h-131l307 -462l205 313q18 29 19 66q0 31 -28 57t-91 26h-29v41h449v-41q-94 -8 -140 -28q-63 -31 -139 -146l-215 -331l494 -754h119v-41h-545v41h160l-381 573l-238 -366q-29 -47 -29 -84
q0 -113 160 -123v-41h-471z" />
    <glyph glyph-name="afii10040" unicode="&#x426;" horiz-adv-x="1542" 
d="M86 0v41h158v1259h-158v41h530v-41h-143v-1259h596v1259h-143v41h528v-41h-156v-1259h150l49 -414h-49q-29 184 -127 277q-104 96 -336 96h-899z" />
    <glyph glyph-name="afii10041" unicode="&#x427;" horiz-adv-x="1382" 
d="M29 1300v41h530v-41h-143v-401q0 -102 41 -154q59 -76 190 -75q113 0 262 47v583h-143v41h530v-41h-157v-1259h157v-41h-544v41h157v637q-164 -66 -336 -66q-113 0 -198 29q-188 63 -189 254v405h-157z" />
    <glyph glyph-name="afii10042" unicode="&#x428;" horiz-adv-x="2199" 
d="M86 0v41h158v1259h-158v41h530v-41h-143v-1259h512v1259h-143v41h516v-41h-144v-1259h512v1259h-143v41h531v-41h-158v-1259h158v-41h-2028z" />
    <glyph glyph-name="afii10043" unicode="&#x429;" horiz-adv-x="2199" 
d="M86 0v41h158v1259h-158v41h530v-41h-143v-1259h512v1259h-143v41h516v-41h-144v-1259h512v1259h-143v41h531v-41h-158v-1259h149l49 -414h-49q-14 84 -43.5 151.5t-48 91.5t-33.5 34q-104 96 -338 96h-1556z" />
    <glyph glyph-name="afii10044" unicode="&#x42a;" horiz-adv-x="1509" 
d="M29 901l30 440h826v-41h-158v-557h178q242 0 367 -69q180 -98 180 -320q0 -162 -111 -258q-55 -47 -143 -69.5t-132 -24.5t-138 -2h-588v41h158v1259q-246 12 -338 -118q-45 -66 -82 -281h-49zM727 41h248q121 0 176 74q43 57 43 145v158q0 129 -37 186q-61 98 -248 98
h-182v-661z" />
    <glyph glyph-name="afii10045" unicode="&#x42b;" horiz-adv-x="1916" 
d="M86 0v41h158v1259h-158v41h545v-41h-158v-557h176q276 0 408 -96q139 -104 139 -280q0 -158 -88 -250q-51 -55 -137 -83t-141.5 -31t-157.5 -3h-586zM473 41h246q119 0 178 74q41 53 41 145v158q0 129 -37 186q-61 98 -246 98h-182v-661zM1300 0v41h158v1259h-158v41h531
v-41h-143v-1259h143v-41h-531z" />
    <glyph glyph-name="afii10046" unicode="&#x42c;" horiz-adv-x="1253" 
d="M86 0v41h158v1259h-158v41h545v-41h-158v-557h180q137 0 229.5 -18t172.5 -78q141 -106 141 -280q0 -158 -88 -250q-51 -55 -137 -83t-141.5 -31t-157.5 -3h-586zM473 41h246q119 0 178 74q41 53 41 145v158q0 129 -37 186q-61 98 -246 98h-182v-661z" />
    <glyph glyph-name="afii10047" unicode="&#x42d;" horiz-adv-x="1200" 
d="M57 289q0 63 41 105t99 42q53 0 90 -35.5t37 -87.5q0 -57 -52 -98q-2 -2 -11 -8t-14 -10t-13.5 -12.5t-11.5 -18.5t-3 -21q0 -49 80 -89t182 -40q31 0 58.5 3.5t75 18.5t84 43t73.5 83t53 131q31 145 31 240v157h-541v39h541v176q0 131 -41 230q-82 188 -289 188
q-182 0 -286 -162q-70 -111 -90 -243h-56l53 444h50q4 -55 69 -55q12 0 117 30q80 25 154 25q262 0 424 -190q154 -182 153 -490q0 -168 -58.5 -320.5t-160.5 -246.5q-152 -139 -385 -140q-186 0 -295 68q-66 39 -112 103.5t-46 140.5z" />
    <glyph glyph-name="afii10048" unicode="&#x42e;" horiz-adv-x="2146" 
d="M86 0v41h158v1259h-158v41h545v-41h-158v-579h279q14 125 42.5 207t96.5 174q193 262 508 262q317 0 506 -256q133 -182 133 -436q0 -248 -133 -434q-186 -260 -506 -261q-313 0 -506 261q-135 184 -141 442h-279v-639h158v-41h-545zM1010 670q0 -223 45 -363
q53 -158 149 -224.5t191 -66.5q106 0 200.5 74t141.5 217q43 133 43 364.5t-43 362.5q-43 129 -135.5 210t-206.5 81q-111 0 -202 -79t-138 -212q-45 -126 -45 -364z" />
    <glyph glyph-name="afii10049" unicode="&#x42f;" horiz-adv-x="1425" 
d="M16 88l33 33q70 -70 98 -70q49 0 68 74q6 20 21 211q4 55 11 91t25.5 80t55.5 77.5t94 60.5q92 43 194 57v11q-190 18 -292 104q-98 84 -99 215q0 168 152 248q115 61 407 61h555v-41h-157v-1259h157v-41h-544v41h157v647h-192q-86 0 -141.5 -19.5t-88.5 -88.5
q-6 -14 -11 -27.5t-9 -33t-7 -33t-6 -41t-5.5 -44t-6.5 -55.5l-6 -59q-23 -186 -57 -232q-55 -78 -182 -78q-134 0 -224 111zM483 1044q0 -59 2 -87.5t16.5 -67.5t45.5 -70q88 -90 262 -90h143v571h-155q-147 0 -217 -38q-97 -56 -97 -218z" />
    <glyph glyph-name="afii10065" unicode="&#x430;" horiz-adv-x="974" 
d="M61 203q0 137 129 215q123 74 342 74h68v229q0 80 -39 113q-31 25 -98 24q-41 0 -82 -10q-51 -14 -51 -51q0 -8 5 -18.5t14 -27t16 -28.5q29 -66 -3 -120t-104 -54q-53 0 -92 31.5t-39 89.5q0 106 119 172q98 53 246 53q106 0 181 -29.5t101 -74.5q27 -43 27 -148v-532
q0 -68 51 -68q23 0 51.5 20.5t42.5 45.5l29 -27q-76 -104 -193 -105q-90 0 -137 54q-29 33 -45 80q-70 -59 -119 -86q-86 -47 -182 -47.5t-162 55.5q-76 61 -76 170zM291 221q0 -82 35 -121q35 -37 92 -37q51 0 110 37q72 45 72 74v285h-33q-207 0 -256 -99
q-20 -41 -20 -139z" />
    <glyph glyph-name="afii10066" unicode="&#x431;" horiz-adv-x="976" 
d="M45 578q0 317 115 493q125 190 463 277q29 8 69.5 17t56 14t34 12.5t28.5 15.5q33 27 39 74h33q0 -193 -131 -277q-59 -37 -211 -84t-174 -55q-180 -68 -238 -213q-41 -100 -41 -231h18q41 84 97 143q123 131 299 131q186 0 313 -147q117 -133 117 -316q0 -168 -119 -301
q-139 -154 -326 -154q-195 0 -321 154q-121 148 -121 447zM279 285q0 -111 51 -187q55 -84 159.5 -84t161.5 84q51 72 51 187v299q0 115 -51 186q-29 39 -75 63.5t-87 24.5q-45 0 -90 -26.5t-69 -61.5q-51 -72 -51 -186v-299z" />
    <glyph glyph-name="afii10067" unicode="&#x432;" horiz-adv-x="978" 
d="M41 0v35h129v803h-129v34h479q123 0 215 -28q139 -49 139 -170q0 -96 -102 -156q-68 -39 -166 -49v-8q96 -6 191 -49q125 -59 125 -174t-113 -185q-88 -53 -186 -53h-582zM371 35h153q84 0 123 39q45 43 45 162q0 129 -51 174q-43 37 -113 36h-157v-411zM371 479h129
q49 0 82.5 15.5t47 39t17.5 41t4 35.5v68q0 106 -61 139q-39 20 -111 21h-108v-359z" />
    <glyph glyph-name="afii10068" unicode="&#x433;" horiz-adv-x="782" 
d="M41 0v35h129v803h-129v34h713l12 -282h-43q-37 164 -115 211q-57 37 -192 37h-45v-803h129v-35h-459z" />
    <glyph glyph-name="afii10069" unicode="&#x434;" horiz-adv-x="937" 
d="M12 -268l25 303h31q80 0 120 57q25 35 34 97.5t16 216.5q10 258 10 296q0 78 -35 109q-29 27 -90 27h-39v34h811v-34h-129v-803h137l19 -303h-43q-14 115 -78 184q-49 55 -110.5 69.5t-172.5 14.5h-170q-92 0 -146.5 -21.5t-88.5 -84.5q-31 -53 -56 -162h-45zM188 35h377
v803h-147q-98 0 -121 -62q-6 -16 -14 -211q-14 -346 -29 -411q-19 -74 -66 -119z" />
    <glyph glyph-name="afii10070" unicode="&#x435;" horiz-adv-x="901" 
d="M45 428q0 184 113 320q125 147 309 147t291 -139q86 -111 90 -273h-574v-139q0 -172 56 -248q61 -82 164 -82q109 0 215 97q55 51 112 133l35 -23q-55 -92 -127 -151q-109 -92 -252 -93q-90 0 -177 37t-144 103q-111 127 -111 311zM274 518h361q6 158 -19 232
q-37 111 -155 110q-113 0 -162 -94q-25 -49 -25 -119v-129z" />
    <glyph glyph-name="afii10072" unicode="&#x436;" horiz-adv-x="1552" 
d="M23 104l24 19q43 -59 76 -60q49 0 72 72q8 27 14 75t12 77q18 84 88 131q55 37 187 61q-31 23 -50 58q-18 33 -57 188q-8 31 -13 46t-16.5 28.5t-27.5 13.5q-29 0 -29 -31q0 -8 5 -23.5t5 -33.5q0 -53 -33.5 -76.5t-68.5 -23.5q-47 0 -81 35.5t-34 95.5q0 66 48.5 102.5
t111.5 36.5q86 0 131 -59q31 -41 62 -170q29 -129 79 -164q41 -27 125 -27h23v363h-129v34h459v-34h-129v-363h22q84 0 125 27q51 35 80 164q31 129 61 170q45 59 131 59q63 0 111.5 -37t48.5 -102q0 -59 -33.5 -95t-81.5 -36q-35 0 -68.5 23.5t-33.5 76.5q0 18 5 33.5
t5 23.5q0 31 -28 31q-16 0 -27.5 -13.5t-17 -28.5t-13.5 -46q-39 -156 -57 -188q-18 -35 -49 -58q131 -25 186 -61q70 -47 88 -131q6 -29 12.5 -77t14.5 -75q23 -72 72 -72q33 0 75 60l25 -19q-80 -127 -203 -127q-111 0 -153 97q-16 35 -27.5 112.5t-18.5 104.5
q-12 51 -35.5 85t-57.5 46t-57.5 15t-59.5 3h-41v-405h129v-35h-459v35h129v405h-41q-37 0 -60.5 -3t-57.5 -15t-57.5 -46t-35.5 -85q-6 -27 -17.5 -104.5t-27.5 -112.5q-43 -96 -154 -97q-122 0 -202 127z" />
    <glyph glyph-name="afii10073" unicode="&#x437;" horiz-adv-x="802" 
d="M20 203q0 57 31 91t80 34q45 0 80 -29t35 -76q0 -43 -31 -78q-39 -47 -39 -57q0 -16 17.5 -34.5t44.5 -26.5q53 -12 112 -13q92 0 137 56q37 45 37 125v88q0 94 -63 137q-51 35 -117 35h-94v34h84q102 0 141 58q27 39 27 100v78q0 49 -25 84q-35 49 -115 49
q-113 0 -178 -92q-47 -66 -71 -197h-35l31 326h36q20 -27 64 -27q16 0 46 7.5t50 11.5q49 8 98 8q150 0 226 -53q86 -59 86 -156q0 -84 -68 -141q-70 -57 -178 -68v-10q104 -14 182 -64q102 -66 103 -174q0 -119 -111 -188q-100 -63 -268 -64q-141 0 -230 46
q-125 63 -125 180z" />
    <glyph glyph-name="afii10074" unicode="&#x438;" horiz-adv-x="1089" 
d="M41 0v35h129v803h-129v34h444v-34h-114v-652l348 588v64h-115v34h445v-34h-129v-803h129v-35h-445v35h115v670l-348 -588v-82h114v-35h-444z" />
    <glyph glyph-name="afii10075" unicode="&#x439;" horiz-adv-x="1089" 
d="M41 0v35h129v803h-129v34h444v-34h-114v-652l348 588v64h-115v34h445v-34h-129v-803h129v-35h-445v35h115v670l-348 -588v-82h114v-35h-444zM236 1196q0 57 32.5 90t87.5 33q49 0 77 -29.5t28 -70.5q0 -59 -47 -80q-12 -6 -29.5 -9.5t-19.5 -3.5q-18 -8 -19 -24
q0 -39 74 -62q55 -16 126.5 -16t127.5 16q74 23 74 62q0 16 -19 24q-2 0 -19.5 3.5t-29.5 9.5q-47 20 -47 80q0 41 27.5 70.5t76.5 29.5q55 0 88 -33t33 -90q0 -115 -129 -174q-70 -33 -182.5 -33t-181.5 33q-129 59 -129 174z" />
    <glyph glyph-name="afii10076" unicode="&#x43a;" horiz-adv-x="1056" 
d="M41 0v35h129v803h-129v34h459v-34h-129v-359h73q100 0 142 80q14 29 28.5 98.5t26.5 108.5q37 129 164 129q66 0 113 -39t47 -106q0 -51 -29 -88t-82 -37q-49 0 -77.5 27.5t-28.5 68.5q0 18 6 37q6 25 6 26q0 12 -8.5 22.5t-20.5 10.5q-31 0 -43 -39q-16 -37 -43 -162
q-29 -123 -100 -143v-6q125 -6 200 -51q59 -37 80 -84t31 -125q0 -6 3 -25.5t4 -29t5 -25.5t8.5 -25.5t10.5 -19.5t16 -14.5t23 -4.5q53 0 82 56l26 -15q-29 -61 -80 -95t-106 -34q-53 0 -99.5 27t-68.5 68q-18 33 -35 153q-18 125 -47 164q-41 57 -139 57h-88v-409h129v-35
h-459z" />
    <glyph glyph-name="afii10077" unicode="&#x43b;" horiz-adv-x="995" 
d="M6 113q0 57 36 88.5t79 31.5q39 0 67.5 -23.5t28.5 -64.5q0 -20 -4 -28l-5 -11q-3 -6 -5 -11t-2 -9q0 -12 10 -24.5t29 -12.5q39 0 57 33q18 37 18 135v500q0 68 -28 96q-25 25 -84 25h-43v34h794v-34h-129v-803h129v-35h-458v35h129v803h-90q-121 0 -154 -31
q-31 -29 -31 -90v-527q0 -70 -16 -114q-37 -98 -164 -99q-72 0 -113 31q-51 37 -51 105z" />
    <glyph glyph-name="afii10078" unicode="&#x43c;" horiz-adv-x="1265" 
d="M41 838v34h348l254 -606l231 606h351v-34h-129v-803h129v-35h-459v35h129v780l-320 -815h-18l-328 807v-657q0 -59 17 -80q29 -35 112 -35v-35h-297v35q78 0 103 26q23 25 22 84v578q0 66 -34 94q-25 20 -76 21h-35z" />
    <glyph glyph-name="afii10079" unicode="&#x43d;" horiz-adv-x="1089" 
d="M41 0v35h129v803h-129v34h444v-34h-114v-351h348v351h-115v34h445v-34h-129v-803h129v-35h-445v35h115v420h-348v-420h114v-35h-444z" />
    <glyph glyph-name="afii10080" unicode="&#x43e;" horiz-adv-x="978" 
d="M45 436q0 178 117 312q131 147 327.5 147t327.5 -147q117 -133 117 -312q0 -184 -117 -313q-59 -66 -147 -106t-180.5 -40t-180.5 40t-147 106q-117 129 -117 313zM274 303q0 -131 52 -207q55 -82 163.5 -82t163.5 82q51 76 52 207v205q0 188 -52 262q-61 88 -163.5 88
t-163.5 -88q-51 -74 -52 -262v-205z" />
    <glyph glyph-name="afii10081" unicode="&#x43f;" horiz-adv-x="1089" 
d="M41 0v35h129v803h-129v34h1008v-34h-129v-803h129v-35h-445v35h115v803h-348v-803h114v-35h-444z" />
    <glyph glyph-name="afii10082" unicode="&#x440;" horiz-adv-x="1026" 
d="M35 -401h129v1239h-129v34h203q63 0 127 11v-123q25 51 75 92q55 43 142 43q88 0 171 -44t142 -132q86 -125 86 -287q0 -174 -115 -311q-121 -143 -288 -144q-78 0 -129 25q-49 25 -84 74v-477h129v-35h-459v35zM365 182q0 -68 57 -119q55 -49 127 -49q51 0 99 30t73 85
q31 68 31 188v273q0 117 -39 186q-47 82 -146 82q-104 0 -166 -94q-37 -57 -36 -125v-457z" />
    <glyph glyph-name="afii10083" unicode="&#x441;" horiz-adv-x="845" 
d="M45 414q0 127 54.5 233.5t140.5 169.5q102 78 237 78q137 0 225 -59q92 -63 93 -162q0 -55 -34 -90t-85 -35q-55 0 -90 33.5t-35 79t22 81.5q8 14 18 27l14 20q5 7 5 15q0 10 -8 21.5t-34.5 21.5t-67.5 10q-109 0 -160 -49q-66 -61 -66 -240v-258q0 -156 48 -219
q59 -78 177.5 -78t190.5 80q49 55 78 133l33 -14q-25 -68 -68 -123q-88 -113 -246 -113q-203 0 -329 142q-113 129 -113 295z" />
    <glyph glyph-name="afii10084" unicode="&#x442;" horiz-adv-x="892" 
d="M16 541l19 331h823l19 -331h-43q-10 53 -31 104q-31 84 -74 129q-72 72 -182 64v-803h129v-35h-459v35h129v803q-117 6 -182 -64q-49 -51 -74 -129l-31 -104h-43z" />
    <glyph glyph-name="afii10085" unicode="&#x443;" horiz-adv-x="956" 
d="M0 838v34h442v-34h-129l301 -631l164 465q12 33 13 67q0 55 -37 80q-27 18 -80 19h-19v34h330v-34q-80 -4 -125 -88q-6 -10 -39 -91l-362 -974q-29 -82 -88 -117q-53 -31 -121 -31q-78 0 -129 37q-68 47 -68 133q0 53 36 87t85 34q45 0 77 -30.5t32 -73.5q0 -12 -9 -37
q-12 -37 -12 -39q0 -18 13.5 -31.5t37.5 -13.5q41 0 74 32q20 20 33 54l96 252l-424 897h-92z" />
    <glyph glyph-name="afii10086" unicode="&#x444;" horiz-adv-x="1490" 
d="M45 442q0 174 96 299q57 76 138 115t159 39q135 0 207 -123v475h-129v35h205q86 0 125 12v-522q72 123 207 123q78 0 158.5 -39t138.5 -115q96 -125 96 -299q0 -193 -109 -325q-113 -139 -286 -140q-143 0 -205 119v-497h129v-35h-459v35h129v497q-61 -119 -205 -119
q-174 0 -286 140q-109 132 -109 325zM274 274q0 -127 56.5 -193.5t138.5 -66.5q27 0 52.5 9.5t56 34t49 77.5t18.5 131v357q0 113 -54 174t-130 61q-80 0 -133.5 -70.5t-53.5 -197.5v-316zM846 266q0 -143 56 -197.5t120 -54.5q82 0 138.5 66.5t56.5 193.5v316
q0 127 -53.5 197.5t-133.5 70.5q-76 0 -130 -61.5t-54 -173.5v-357z" />
    <glyph glyph-name="afii10087" unicode="&#x445;" horiz-adv-x="1028" 
d="M16 0v35h17q59 0 117 37q68 43 133 137l139 197l-297 432h-109v34h445v-34h-92l209 -299l92 135q49 74 49 100q0 10 -4 19.5t-14.5 20.5t-34 18.5t-56.5 5.5v34h355v-34h-31q-94 0 -180 -119l-158 -219l324 -465h92v-35h-453v35h119l-236 334l-129 -179q-43 -59 -30 -100
q6 -20 31.5 -37.5t58.5 -17.5h16v-35h-373z" />
    <glyph glyph-name="afii10088" unicode="&#x446;" horiz-adv-x="1101" 
d="M41 0v35h129v803h-129v34h444v-34h-114v-803h348v803h-115v34h445v-34h-129v-803h153l29 -330h-43q-37 201 -162 262q-66 33 -182 33h-674z" />
    <glyph glyph-name="afii10089" unicode="&#x447;" horiz-adv-x="966" 
d="M0 838v34h444v-34h-114v-332q0 -92 127 -92q53 0 139 28v396h-115v34h445v-34h-129v-803h129v-35h-459v35h129v375q-133 -55 -260 -56q-94 0 -148 41q-59 47 -59 148v295h-129z" />
    <glyph glyph-name="afii10090" unicode="&#x448;" horiz-adv-x="1556" 
d="M41 0v35h129v803h-129v34h444v-34h-114v-803h307v803h-115v34h430v-34h-114v-803h307v803h-115v34h445v-34h-130v-803h130v-35h-1475z" />
    <glyph glyph-name="afii10091" unicode="&#x449;" horiz-adv-x="1562" 
d="M41 0v35h129v803h-129v34h444v-34h-114v-803h307v803h-115v34h430v-34h-114v-803h307v803h-115v34h445v-34h-130v-803h148l29 -334h-43q-16 150 -111 227q-88 72 -248 72h-1120z" />
    <glyph glyph-name="afii10092" unicode="&#x44a;" horiz-adv-x="1083" 
d="M0 545l20 327h668v-34h-129v-330h98q176 0 269 -51q129 -70 129 -195q0 -162 -148 -229q-70 -33 -188 -33h-490v35h129v803h-43q-113 0 -170 -45q-94 -72 -110 -248h-35zM559 35h80q102 0 141 26q45 31 45 109v145q0 96 -59 134q-37 25 -109 24h-98v-438z" />
    <glyph glyph-name="afii10093" unicode="&#x44b;" horiz-adv-x="1384" 
d="M41 0v35h129v803h-129v34h459v-34h-129v-330h96q164 0 266 -51q133 -68 133 -195q0 -158 -147 -229q-70 -33 -189 -33h-489zM371 35h80q100 0 139 26q47 33 47 109v145q0 94 -59 134q-39 25 -109 24h-98v-438zM885 0v35h129v803h-129v34h458v-34h-129v-803h129v-35h-458z
" />
    <glyph glyph-name="afii10094" unicode="&#x44c;" horiz-adv-x="894" 
d="M41 0v35h129v803h-129v34h459v-34h-129v-330h96q164 0 266 -51q133 -68 133 -195q0 -158 -147 -229q-70 -33 -189 -33h-489zM371 35h80q100 0 139 26q47 33 47 109v145q0 94 -59 134q-39 25 -109 24h-98v-438z" />
    <glyph glyph-name="afii10095" unicode="&#x44d;" horiz-adv-x="862" 
d="M35 215q0 47 32.5 82t79.5 35q43 0 75 -30t32 -71q0 -31 -27 -65q-6 -6 -15 -17.5t-14 -18.5t-9.5 -15.5t-4.5 -16.5q0 -16 13.5 -33.5t53.5 -34t99 -16.5q119 0 178.5 72t59.5 238v112h-359v35h359v117q0 90 -23 143q-55 127 -190 127q-109 0 -175.5 -78t-78.5 -192h-41
l10 307h45q20 -39 55 -39q8 0 21 4l31 10l30 11q53 14 101 14q180 0 301 -107q66 -57 104.5 -148t38.5 -189q0 -180 -112 -316q-131 -158 -349 -158q-176 0 -266 103q-55 63 -55 135z" />
    <glyph glyph-name="afii10096" unicode="&#x44e;" horiz-adv-x="1478" 
d="M41 0v35h129v803h-129v34h459v-34h-129v-367h182q12 166 113 279q133 145 325 145q197 0 326 -145q117 -131 117 -313.5t-115 -311.5q-131 -147 -328 -148q-195 0 -327 148q-106 117 -111 311h-182v-401h129v-35h-459zM778 440q0 -264 51 -342q55 -84 166 -84
q104 0 162 84q33 49 41 116t8 194v30v59v63q0 15 -3 54t-8 58.5t-15.5 47.5t-24.5 50q-59 88 -160 88q-102 0 -161 -88q-43 -61 -52 -184q-4 -50 -4 -146z" />
    <glyph glyph-name="afii10097" unicode="&#x44f;" horiz-adv-x="1034" 
d="M6 80l25 29q47 -49 69 -50q18 0 31.5 8.5t21 28t11.5 33.5t9 48t9 50q20 92 78 140q78 61 217 73v9q-121 0 -196 36q-117 53 -117 168q0 121 117 178q86 41 219 41h493v-34h-129v-803h129v-35h-458v35h129v395h-91q-41 0 -77 -14q-61 -23 -88 -101q-4 -12 -18.5 -95
t-37.5 -134q-43 -109 -151 -109q-82 0 -146 54q-20 16 -49 49zM393 604q0 -76 66 -115q2 -2 13 -7t34.5 -11t46.5 -6h111v373h-115q-96 0 -135 -60q-20 -33 -21 -65v-109z" />
    <glyph glyph-name="uni0450" unicode="&#x450;" horiz-adv-x="901" 
d="M47 1298h248l198 -280h-51zM45 428q0 184 113 320q125 147 309 147t291 -139q86 -111 90 -273h-574v-139q0 -172 56 -248q61 -82 164 -82q109 0 215 97q55 51 112 133l35 -23q-55 -92 -127 -151q-109 -92 -252 -93q-90 0 -177 37t-144 103q-111 127 -111 311zM274 518
h361q6 158 -19 232q-37 111 -155 110q-113 0 -162 -94q-25 -49 -25 -119v-129z" />
    <glyph glyph-name="afii10071" unicode="&#x451;" horiz-adv-x="901" 
d="M45 428q0 184 113 320q125 147 309 147t291 -139q86 -111 90 -273h-574v-139q0 -172 56 -248q61 -82 164 -82q109 0 215 97q55 51 112 133l35 -23q-55 -92 -127 -151q-109 -92 -252 -93q-90 0 -177 37t-144 103q-111 127 -111 311zM152 1204q0 45 34.5 80t79.5 35t80 -35
t35 -80t-35 -79.5t-80 -34.5t-79.5 34.5t-34.5 79.5zM274 518h361q6 158 -19 232q-37 111 -155 110q-113 0 -162 -94q-25 -49 -25 -119v-129zM557 1204q0 45 35 80t80 35t79.5 -35t34.5 -80t-34.5 -79.5t-79.5 -34.5t-80 34.5t-35 79.5z" />
    <glyph glyph-name="afii10099" unicode="&#x452;" horiz-adv-x="976" 
d="M-12 1020v41h188v239h-129v35h205q86 0 125 13v-287h373v-41h-373v-266q70 70 121 100q70 41 137 41q72 0 133 -39t100 -102q63 -106 64 -326q0 -227 -47 -369q-61 -184 -199 -315q-102 -100 -223 -133v35q66 16 125 65q55 45 78 101q37 86 36 225v665q0 137 -112 138
q-59 0 -117 -41q-41 -31 -96 -94v-670h129v-35h-459v35h129v985h-188z" />
    <glyph glyph-name="afii10100" unicode="&#x453;" horiz-adv-x="782" 
d="M41 0v35h129v803h-129v34h713l12 -282h-43q-37 164 -115 211q-57 37 -192 37h-45v-803h129v-35h-459zM168 1061l201 280h245l-393 -280h-53z" />
    <glyph glyph-name="afii10101" unicode="&#x454;" horiz-adv-x="843" 
d="M45 451q0 207 145 337q121 109 297 109q49 0 105 -14q18 -4 37.5 -11.5t31 -10.5t21.5 -3q41 0 57 37h35l8 -307h-37q-16 109 -59 172q-63 100 -188 100q-152 0 -199 -127q-23 -61 -23 -145v-117h359v-35h-359v-112q0 -162 60 -238q55 -72 160 -72q131 0 202 80
q49 55 78 133l33 -14q-25 -68 -68 -123q-88 -113 -239 -113q-211 0 -344 158q-113 136 -113 316z" />
    <glyph glyph-name="afii10102" unicode="&#x455;" horiz-adv-x="751" 
d="M45 -8v274h29q43 -113 123 -180q82 -72 192 -72q102 0 150.5 46t48.5 106q0 51 -39 94q-29 33 -107 57l-166 48q-92 25 -143 79q-66 70 -65 179q0 143 106 219q76 53 176 53q51 0 119 -23q82 -29 90 -28q35 0 51 28h27v-241h-27q-47 113 -100 166q-66 61 -162 61
q-78 0 -127 -33q-55 -35 -55 -116q0 -88 117 -127l241 -76q90 -27 135 -84q47 -59 48 -150q0 -115 -62 -186q-90 -109 -254 -109q-84 0 -180 43q-53 23 -70 23q-49 0 -67 -51h-29z" />
    <glyph glyph-name="afii10103" unicode="&#x456;" horiz-adv-x="534" 
d="M41 0v35h129v803h-129v34h203q63 0 127 11v-848h129v-35h-459zM152 1204q0 45 34.5 80t79.5 35t80 -35t35 -80t-35 -79.5t-80 -34.5t-79.5 34.5t-34.5 79.5z" />
    <glyph glyph-name="afii10104" unicode="&#x457;" horiz-adv-x="835" 
d="M-6 0v35h129v803h-129v34h203q63 0 127 11v-848h129v-35h-459zM295 1204q0 37 25.5 64.5t66.5 27.5t66.5 -30.5t25.5 -61t-25.5 -61.5t-66.5 -31t-66.5 27.5t-25.5 64.5zM655 1204q0 39 28 65.5t65 26.5q41 0 66.5 -27.5t25.5 -64.5t-26 -64.5t-66 -27.5q-37 0 -65 26.5
t-28 65.5z" />
    <glyph glyph-name="afii10105" unicode="&#x458;" horiz-adv-x="563" 
d="M-115 -309q0 49 30 78.5t79 29.5t74.5 -28.5t25.5 -65.5q0 -29 -14 -56.5t-14 -33.5q0 -35 34 -35q23 0 50.5 20.5t42.5 67.5q16 51 16 170v1000h-158v34h234q61 0 125 11v-1006q0 -129 -68 -217q-90 -121 -252 -121q-109 0 -164 55q-41 42 -41 97zM190 1204q0 45 34 80
t81 35t81 -35t34 -80t-34 -79.5t-81 -34.5t-81 34.5t-34 79.5z" />
    <glyph glyph-name="afii10106" unicode="&#x459;" horiz-adv-x="1349" 
d="M6 113q0 57 36 88.5t79 31.5q39 0 67.5 -23.5t28.5 -64.5q0 -20 -4 -28l-5 -11q-3 -6 -5 -11t-2 -9q0 -12 10 -24.5t29 -12.5q39 0 57 33q18 37 18 135v500q0 68 -28 96q-25 25 -84 25h-43v34h794v-34h-129v-330h97q164 0 266 -51q133 -68 133 -195q0 -158 -147 -229
q-70 -33 -189 -33h-489v35h129v803h-90q-121 0 -154 -31q-31 -29 -31 -90v-527q0 -70 -16 -114q-37 -98 -164 -99q-72 0 -113 31q-51 37 -51 105zM825 35h80q100 0 139 26q47 33 48 109v145q0 94 -60 134q-39 25 -108 24h-99v-438z" />
    <glyph glyph-name="afii10107" unicode="&#x45a;" horiz-adv-x="1443" 
d="M41 0v35h129v803h-129v34h444v-34h-114v-338h348v338h-115v34h445v-34h-129v-338h96q168 0 268 -51q131 -70 131 -197q0 -70 -41 -129.5t-106 -89.5q-70 -33 -189 -33h-475v35h115v430h-348v-430h114v-35h-444zM920 35h79q100 0 140 26q47 33 47 109v137q0 94 -60 133
q-39 25 -108 25h-98v-430z" />
    <glyph glyph-name="afii10108" unicode="&#x45b;" horiz-adv-x="1097" 
d="M-12 1020v41h190v239h-129v35h205q84 0 125 13v-287h373v-41h-373v-266q59 63 121 100q68 41 168 41q143 0 211 -70q55 -55 55 -135v-655h129v-35h-445v35h115v655q0 68 -28 105q-37 45 -105 45t-123 -41q-57 -43 -98 -94v-670h115v-35h-445v35h129v985h-190z" />
    <glyph glyph-name="afii10109" unicode="&#x45c;" horiz-adv-x="1056" 
d="M41 0v35h129v803h-129v34h459v-34h-129v-359h73q100 0 142 80q14 29 28.5 98.5t26.5 108.5q37 129 164 129q66 0 113 -39t47 -106q0 -51 -29 -88t-82 -37q-49 0 -77.5 27.5t-28.5 68.5q0 18 6 37q6 25 6 26q0 12 -8.5 22.5t-20.5 10.5q-31 0 -43 -39q-16 -37 -43 -162
q-29 -123 -100 -143v-6q125 -6 200 -51q59 -37 80 -84t31 -125q0 -6 3 -25.5t4 -29t5 -25.5t8.5 -25.5t10.5 -19.5t16 -14.5t23 -4.5q53 0 82 56l26 -15q-29 -61 -80 -95t-106 -34q-53 0 -99.5 27t-68.5 68q-18 33 -35 153q-18 125 -47 164q-41 57 -139 57h-88v-409h129v-35
h-459zM305 1061l201 280h246l-394 -280h-53z" />
    <glyph glyph-name="uni045D" unicode="&#x45d;" horiz-adv-x="1089" 
d="M125 1298h248l198 -280h-51zM41 0v35h129v803h-129v34h444v-34h-114v-652l348 588v64h-115v34h445v-34h-129v-803h129v-35h-445v35h115v670l-348 -588v-82h114v-35h-444z" />
    <glyph glyph-name="afii10110" unicode="&#x45e;" horiz-adv-x="956" 
d="M0 838v34h442v-34h-129l301 -631l164 465q12 33 13 67q0 55 -37 80q-27 18 -80 19h-19v34h330v-34q-80 -4 -125 -88q-6 -10 -39 -91l-362 -974q-29 -82 -88 -117q-53 -31 -121 -31q-78 0 -129 37q-68 47 -68 133q0 53 36 87t85 34q45 0 77 -30.5t32 -73.5q0 -12 -9 -37
q-12 -37 -12 -39q0 -18 13.5 -31.5t37.5 -13.5q41 0 74 32q20 20 33 54l96 252l-424 897h-92zM166 1194q0 57 33.5 91t87.5 34q49 0 76.5 -31t27.5 -71q0 -53 -47 -78q-12 -6 -29.5 -9.5t-19.5 -3.5q-18 -8 -18.5 -24.5t18 -32.5t43.5 -25q53 -20 139 -20t139 20
q25 8 43.5 24.5t18.5 33t-19 24.5q-2 0 -19 3.5t-30 9.5q-47 25 -47 78q0 41 27.5 71.5t77.5 30.5q53 0 86.5 -34t33.5 -91q0 -111 -122 -170q-72 -35 -189 -35t-188 35q-123 59 -123 170z" />
    <glyph glyph-name="afii10193" unicode="&#x45f;" horiz-adv-x="1089" 
d="M41 0v35h129v803h-129v34h444v-34h-114v-803h348v803h-115v34h445v-34h-129v-803h129v-35h-357q-55 -63 -86 -158l-39 -137h-45l-39 137q-29 92 -86 158h-356z" />
    <glyph glyph-name="afii10050" unicode="&#x490;" horiz-adv-x="1081" 
d="M86 0v41h158v1259h-158v41h604q162 0 240 164q41 84 51 187h49v-553h-43q-29 74 -86 116q-59 45 -182 45h-246v-1259h158v-41h-545z" />
    <glyph glyph-name="afii10098" unicode="&#x491;" horiz-adv-x="804" 
d="M41 0v35h129v803h-129v34h457q76 0 128 23t85 98q18 41 34 125h43v-442h-43q-20 86 -108 129q-66 33 -205 33h-61v-803h129v-35h-459z" />
    <glyph glyph-name="uni04AE" unicode="&#x4ae;" horiz-adv-x="1343" 
d="M29 1300v41h538v-41h-145l344 -673l240 444q37 63 36 115q0 68 -53 94q-37 20 -112 20v41h438v-41q-2 0 -5 1q-85 0 -153 -72q-33 -35 -98 -158l-262 -485v-545h157v-41h-544v41h157v494l-413 765h-125z" />
    <glyph glyph-name="uni04C0" unicode="&#x4c0;" horiz-adv-x="716" 
d="M86 0v41h158v1259h-158v41h545v-41h-158v-1259h158v-41h-545z" />
    <glyph glyph-name="uni2000" unicode="&#x2000;" horiz-adv-x="911" 
 />
    <glyph glyph-name="uni2001" unicode="&#x2001;" horiz-adv-x="1824" 
 />
    <glyph glyph-name="uni2002" unicode="&#x2002;" horiz-adv-x="911" 
 />
    <glyph glyph-name="uni2003" unicode="&#x2003;" horiz-adv-x="1824" 
 />
    <glyph glyph-name="uni2004" unicode="&#x2004;" horiz-adv-x="608" 
 />
    <glyph glyph-name="uni2005" unicode="&#x2005;" horiz-adv-x="454" 
 />
    <glyph glyph-name="uni2006" unicode="&#x2006;" horiz-adv-x="303" 
 />
    <glyph glyph-name="uni2007" unicode="&#x2007;" horiz-adv-x="303" 
 />
    <glyph glyph-name="uni2008" unicode="&#x2008;" horiz-adv-x="227" 
 />
    <glyph glyph-name="uni2009" unicode="&#x2009;" horiz-adv-x="364" 
 />
    <glyph glyph-name="uni200A" unicode="&#x200a;" horiz-adv-x="100" 
 />
    <glyph glyph-name="uni2010" unicode="&#x2010;" horiz-adv-x="716" 
d="M143 379v92h430v-92h-430z" />
    <glyph glyph-name="uni2011" unicode="&#x2011;" horiz-adv-x="716" 
d="M143 379v92h430v-92h-430z" />
    <glyph glyph-name="figuredash" unicode="&#x2012;" horiz-adv-x="716" 
d="M143 379v92h430v-92h-430z" />
    <glyph glyph-name="endash" unicode="&#x2013;" horiz-adv-x="1429" 
d="M100 379v92h1229v-92h-1229z" />
    <glyph glyph-name="emdash" unicode="&#x2014;" horiz-adv-x="2013" 
d="M115 379v92h1783v-92h-1783z" />
    <glyph glyph-name="quoteleft" unicode="&#x2018;" horiz-adv-x="671" 
d="M201 1153q0 106 61 197q31 45 121 125l25 -33q-84 -63 -127 -154q-20 -49 -21 -76q0 -23 12.5 -37t24.5 -14q10 0 28.5 15.5t45.5 15.5q47 0 73.5 -36t26.5 -81q0 -49 -31.5 -80.5t-83.5 -31.5q-72 0 -116 55q-39 47 -39 135z" />
    <glyph glyph-name="quoteright" unicode="&#x2019;" horiz-adv-x="671" 
d="M201 1362q0 49 31.5 81t82.5 32q72 0 117 -56q39 -47 39 -135q0 -106 -61 -197q-31 -45 -121 -124l-25 32q84 63 127 154q20 49 21 76q0 23 -12.5 37t-24.5 14q-10 0 -28.5 -15.5t-45.5 -15.5q-47 0 -73.5 36t-26.5 81z" />
    <glyph glyph-name="quotesinglbase" unicode="&#x201a;" horiz-adv-x="671" 
d="M201 94q0 49 31.5 81t82.5 32q72 0 117 -55q39 -47 39 -136q0 -106 -61 -196q-31 -45 -121 -125l-25 33q84 63 127 153q20 49 21 76q0 23 -12.5 37t-24.5 14q-10 0 -28.5 -15.5t-45.5 -15.5q-47 0 -73.5 36t-26.5 81z" />
    <glyph glyph-name="quotedblleft" unicode="&#x201c;" horiz-adv-x="1077" 
d="M201 1153q0 106 61 197q31 45 121 125l25 -33q-84 -63 -127 -154q-20 -49 -21 -76q0 -23 12.5 -37t24.5 -14q10 0 28.5 15.5t45.5 15.5q47 0 73.5 -36t26.5 -81q0 -49 -31.5 -80.5t-83.5 -31.5q-72 0 -116 55q-39 47 -39 135zM606 1153q0 106 62 197q31 45 120 125
l25 -33q-84 -63 -127 -154q-20 -49 -20 -76q0 -23 12 -37t24 -14q10 0 29 15.5t45 15.5q47 0 74 -36t27 -81q0 -49 -32 -80.5t-83 -31.5q-72 0 -117 55q-39 47 -39 135z" />
    <glyph glyph-name="quotedblright" unicode="&#x201d;" horiz-adv-x="1077" 
d="M201 1362q0 49 31.5 81t82.5 32q72 0 117 -56q39 -47 39 -135q0 -106 -61 -197q-31 -45 -121 -124l-25 32q84 63 127 154q20 49 21 76q0 23 -12.5 37t-24.5 14q-10 0 -28.5 -15.5t-45.5 -15.5q-47 0 -73.5 36t-26.5 81zM606 1362q0 49 32 81t83 32q72 0 117 -56
q39 -47 39 -135q0 -106 -62 -197q-31 -45 -121 -124l-24 32q84 63 127 154q20 49 20 76q0 23 -12 37t-25 14q-10 0 -28.5 -15.5t-44.5 -15.5q-47 0 -74 36t-27 81z" />
    <glyph glyph-name="quotedblbase" unicode="&#x201e;" horiz-adv-x="1077" 
d="M201 94q0 49 31.5 81t82.5 32q72 0 117 -55q39 -47 39 -136q0 -106 -61 -196q-31 -45 -121 -125l-25 33q84 63 127 153q20 49 21 76q0 23 -12.5 37t-24.5 14q-10 0 -28.5 -15.5t-45.5 -15.5q-47 0 -73.5 36t-26.5 81zM606 94q0 49 32 81t83 32q72 0 117 -55
q39 -47 39 -136q0 -106 -62 -196q-31 -45 -121 -125l-24 33q84 63 127 153q20 49 20 76q0 23 -12 37t-25 14q-10 0 -28.5 -15.5t-44.5 -15.5q-47 0 -74 36t-27 81z" />
    <glyph glyph-name="dagger" unicode="&#x2020;" horiz-adv-x="1181" 
d="M86 887q0 59 33 88t80 29q20 0 42.5 -5.5t57.5 -18.5t43 -15q156 -51 221 -41v28q0 86 -43 213q-45 139 -45 170q0 119 115 119t115 -119q0 -31 -46 -170q-43 -127 -43 -213v-28q72 -8 222 41q6 2 41.5 15t59.5 18.5t44 5.5q51 0 82 -32t31 -85q0 -51 -30 -84t-83 -33
q-41 0 -160 47q-106 45 -207 41v-139q0 -188 35 -488q4 -43 20.5 -153.5t25 -194.5t8.5 -159q0 -174 -115 -174.5t-115 176.5q0 53 5 116.5t12 109.5l18 135q12 89 18 144q35 279 35 488v139q-98 4 -205 -41q-117 -47 -159 -47q-53 0 -83 33t-30 84z" />
    <glyph glyph-name="daggerdbl" unicode="&#x2021;" horiz-adv-x="1048" 
d="M86 45q0 104 94 105q39 0 137 -44q96 -39 183 -34v63q0 80 -3 127t-22.5 121t-56.5 149q53 109 67.5 194t14.5 204v63q-86 4 -183 -35q-98 -43 -137 -43q-94 0 -94 105q0 57 28.5 80.5t65.5 23.5q10 0 119 -34q139 -41 201 -37v26q0 59 -41 181q-41 117 -41 155
q0 41 26.5 71t80 30t80 -30t26.5 -71q0 -39 -41 -155q-41 -121 -41 -181v-26q61 -4 201 37q113 35 118 34q18 0 36 -4t38.5 -29.5t20.5 -70.5q0 -104 -95 -105q-39 0 -137 43q-96 39 -182 35v-63q0 -80 3 -127t22.5 -121t56.5 -150q-53 -109 -67.5 -193.5t-14.5 -203.5v-63
q86 -4 182 34q98 43 137 44q94 0 94.5 -104.5t-94.5 -104.5q-14 0 -30.5 4t-44 15t-43.5 15q-139 41 -201 37v-26q0 -59 41 -181q41 -117 41 -155q0 -41 -26.5 -71t-80 -30t-80 30t-26.5 71q0 39 41 155q41 121 41 181v26q-61 4 -201 -37q-113 -35 -119 -34
q-37 0 -65.5 23.5t-28.5 80.5z" />
    <glyph glyph-name="bullet" unicode="&#x2022;" horiz-adv-x="1429" 
d="M514 717q0 82 58.5 141.5t142.5 59.5t142 -59.5t58 -141.5t-58 -141.5t-142 -59.5t-142.5 59.5t-58.5 141.5z" />
    <glyph glyph-name="ellipsis" unicode="&#x2026;" horiz-adv-x="1777" 
d="M201 92q0 47 34.5 81t79.5 34t80 -34t35 -81t-35 -81t-80 -34t-79.5 34t-34.5 81zM774 92q0 47 35 81t80 34t80 -34t35 -81t-35 -81t-80 -34t-80 34t-35 81zM1348 92q0 47 34.5 81t79.5 34t80 -34t35 -81t-35 -81t-80 -34t-79.5 34t-34.5 81z" />
    <glyph glyph-name="uni202F" unicode="&#x202f;" horiz-adv-x="364" 
 />
    <glyph glyph-name="perthousand" unicode="&#x2030;" horiz-adv-x="2478" 
d="M172 1047q0 174 131 266q72 51 162 51q94 0 166 -51q131 -90 131 -266q0 -166 -127 -263q-74 -55 -170 -55q-90 0 -166 55q-127 95 -127 263zM319 1004q0 -106 29 -164q43 -80 121 -80q76 0 117 80q29 57 28 164v86q0 106 -30 163q-43 80 -115 80q-74 0 -117 -80
q-33 -63 -33 -163v-86zM408 -166l854 1692l65 -29l-856 -1692zM967 297q0 174 131 266q72 51 162 51q94 0 165 -51q131 -90 131 -266q0 -166 -126 -262q-74 -55 -170 -55q-90 0 -166 55q-127 94 -127 262zM1114 254q0 -106 29 -164q43 -80 121 -80q76 0 116 80q29 57 29 164
v86q0 106 -31 164q-43 80 -114 80q-74 0 -117 -80q-33 -63 -33 -164v-86zM1716 297q0 174 131 266q72 51 162 51q94 0 166 -51q131 -90 131 -266q0 -166 -127 -262q-74 -55 -170 -55q-90 0 -166 55q-127 94 -127 262zM1864 254q0 -106 28 -164q43 -80 121 -80q76 0 117 80
q29 57 29 164v86q0 106 -31 164q-43 80 -115 80q-74 0 -117 -80q-33 -63 -32 -164v-86z" />
    <glyph glyph-name="guilsinglleft" unicode="&#x2039;" horiz-adv-x="626" 
d="M57 434q285 176 494 428l18 -16q-119 -207 -284 -412q166 -205 284 -411l-18 -17q-222 256 -494 428z" />
    <glyph glyph-name="guilsinglright" unicode="&#x203a;" horiz-adv-x="626" 
d="M57 23q119 215 283 411q-164 197 -283 412l19 16q211 -258 493 -428q-279 -172 -493 -428z" />
    <glyph glyph-name="uni205F" unicode="&#x205f;" horiz-adv-x="454" 
 />
    <glyph glyph-name="Euro" unicode="&#x20ac;" 
d="M37 530l33 80h94q-2 16 -2 66q0 41 2 57h-127l33 80h100q29 279 143.5 418t352.5 139q227 0 323 -104l10 -168h-43q-27 186 -243 186q-152 0 -224.5 -118.5t-93.5 -352.5h502l-31 -80h-473q-2 -18 -2 -59v-64h422l-33 -80h-385q14 -227 96 -347t224 -120q94 0 160.5 46.5
t80.5 142.5h43l-10 -162q-92 -111 -323 -110q-444 0 -492 550h-137z" />
    <glyph glyph-name="trademark" unicode="&#x2122;" horiz-adv-x="1204" 
d="M86 1192l4 149h422l4 -149h-20q-10 66 -29 90q-31 45 -98 45h-27v-448h55v-15h-192v15h55v448h-27q-68 0 -98 -45q-18 -25 -29 -90h-20zM563 864v15h15q23 0 34 24q8 14 9 37v346q0 10 -3 14q0 4 -4 13q-8 14 -36 14h-13v14h137l142 -368l137 368h137v-14h-55v-448h55
v-15h-194v15h57v419l-162 -442h-14l-168 438v-354q0 -23 10 -39q18 -23 39 -22h6v-15h-129z" />
    <glyph glyph-name="notequal" unicode="&#x2260;" horiz-adv-x="1429" 
d="M286 -241l756 1777h102l-755 -1777h-103zM100 461v86h1229v-86h-1229zM100 748v86h1229v-86h-1229z" />
    <glyph glyph-name="uniE000" unicode="&#xe000;" horiz-adv-x="870" 
d="M0 870h870v-870h-870v870z" />
    <glyph glyph-name="uniFB01" unicode="&#xfb01;" horiz-adv-x="1136" 
d="M643 0v35h129v803h-129v34h203q63 0 127 11v-848h129v-35h-459zM754 1204q0 45 34.5 80t79.5 35t80 -35t35 -80t-35 -79.5t-80 -34.5t-79.5 34.5t-34.5 79.5zM41 0v35h129v803h-115v34h115v68q0 201 115 315q92 92 207 93q86 0 143 -56q53 -49 53 -116q0 -47 -24.5 -77
t-67.5 -30q-31 0 -56.5 19.5t-25.5 58.5q0 37 31 67q35 35 35 54q0 25 -31 41q-27 14 -51 14q-86 0 -111 -86q-16 -57 -16 -203v-162h211v-34h-211v-803h129v-35h-459z" />
    <glyph glyph-name="uniFB02" unicode="&#xfb02;" horiz-adv-x="1130" 
d="M637 0v35h129v1265h-129v35h205q86 0 125 13v-1313h129v-35h-459zM41 0v35h129v803h-115v34h115v68q0 201 115 315q92 92 207 93q86 0 143 -56q53 -49 53 -116q0 -47 -24.5 -77t-67.5 -30q-31 0 -56.5 19.5t-25.5 58.5q0 37 31 67q35 35 35 54q0 25 -31 41q-27 14 -51 14
q-86 0 -111 -86q-16 -57 -16 -203v-162h211v-34h-211v-803h129v-35h-459z" />
    </font>
</defs>
</svg>
