<svg width="717" height="790" viewBox="0 0 717 790" fill="none" xmlns="http://www.w3.org/2000/svg">
<path fill-rule="evenodd" clip-rule="evenodd" d="M221.995 329.32H170.722L126.4 284.749L82.0768 329.32H48.3178V363.761L16.6688 395.588L48.3178 427.415V460.871H82.0768L126.4 505.442L170.722 460.871H221.995V460.997H495.006V460.871H546.279L590.599 505.442L634.924 460.871H668.681V427.415L700.331 395.588L668.681 363.761V329.32H634.924L590.599 284.749L546.279 329.32H495.006V329.249H221.995V329.32ZM221.995 619.914V472.818H495.006V619.909L358.397 772.274L221.995 619.914ZM495.006 256.602V276.796H391.986V184.754L461.375 256.602H495.006ZM495.006 244.782V170.277L391.986 55.2443V167.739L466.391 244.782H495.006ZM380.168 155.501V42.0477L358.385 17.7248L338.802 39.6271V155.436L359.183 133.773L380.168 155.501ZM338.802 172.686V288.616H221.995V317.428H495.006V288.616H380.168V172.516L359.295 150.903L338.802 172.686ZM326.984 185.249V276.796H221.995V256.602H259.856L326.984 185.249ZM326.984 167.999V52.8458L221.995 170.271V244.782H254.749L326.984 167.999ZM358.377 0L390.576 35.9539H391.986V37.5279L506.824 165.757V317.5H541.365L590.599 267.989V267.986L639.839 317.5H680.5V358.884L717 395.587V395.588L680.5 432.293V472.691H639.839L590.604 522.203H590.599L541.365 472.691H506.824V624.435L358.377 790V789.97L210.177 624.435V472.691H175.637L126.402 522.203H126.4H126.397L77.1627 472.691H36.4991V432.293L0 395.588L0.00137899 395.587L36.4991 358.884V317.5H77.1627L126.4 267.986L175.637 317.5H210.177V165.757L358.377 0Z" fill="url(#paint0_linear_0_4)"/>
<defs>
<linearGradient id="paint0_linear_0_4" x1="358.5" y1="0" x2="358.5" y2="790" gradientUnits="userSpaceOnUse">
<stop stop-color="#957633"/>
<stop offset="0.296875" stop-color="#DDB24F"/>
<stop offset="0.481782" stop-color="#AE8428"/>
<stop offset="0.807292" stop-color="#FEE382"/>
<stop offset="1" stop-color="#D5B967"/>
</linearGradient>
</defs>
</svg>
