<svg width="555" height="232" viewBox="0 0 555 232" fill="none" xmlns="http://www.w3.org/2000/svg">
<path d="M22 19V1H2V19H22ZM22 19H40M22 19V213M532 19V1H552V19H532ZM532 19H514M532 19V213M532 213H552V231H532V213ZM532 213H513.5M22 213V231H2V213H22ZM22 213H40M1 70V49C24.1302 48.2302 38.5159 33.984 40 19M1 70V162M1 70C30 68 55 51.5 60.5 19M40 19H60.5M40 213C34.8403 195.782 22.0596 182.511 1 183V162M40 213H61M1 162C29.6785 164.12 51.264 176.274 61 213M61 213H493.5M60.5 19H493M493 19C496.5 49 523.5 69.5 554 70.5M493 19H514M554 70.5V49C528.841 47.2835 520.272 40.015 514 19M554 70.5V161.5M513.5 213C519.485 193.387 531.297 182.414 554 183V161.5M513.5 213H493.5M554 161.5C523.5 164 501 177.5 493.5 213" stroke="#E1D2AE" stroke-width="2"/>
</svg>
