<?xml version="1.0" standalone="no"?>
<!DOCTYPE svg PUBLIC "-//W3C//DTD SVG 1.1//EN" "http://www.w3.org/Graphics/SVG/1.1/DTD/svg11.dtd" >
<svg xmlns="http://www.w3.org/2000/svg" xmlns:xlink="http://www.w3.org/1999/xlink" version="1.1">
<metadata>
Created by FontForge 20150318 at Mon Oct 19 19:22:06 2015
 By uniteet7
Copyright (c) 1990 Neufville SL, Copyright (c) 1990-2000 ParaType, Inc. All Rights Reserved. Futura is a registered trade mark of Neufville SL.
</metadata>
<defs>
<font id="futurademicwebfont" horiz-adv-x="1163" >
  <font-face 
    font-family="futurademicwebfont"
    font-weight="600"
    font-stretch="normal"
    units-per-em="2048"
    panose-1="4 0 7 0 0 0 0 0 0 0"
    ascent="1536"
    descent="-512"
    x-height="887"
    cap-height="1366"
    bbox="-252 -512 2551 2212"
    underline-thickness="102"
    underline-position="-102"
    unicode-range="U+0020-FB02"
  />
<missing-glyph horiz-adv-x="477" 
 />
    <glyph glyph-name=".notdef" horiz-adv-x="477" 
 />
    <glyph glyph-name=".null" horiz-adv-x="0" 
 />
    <glyph glyph-name="nonmarkingreturn" horiz-adv-x="682" 
 />
    <glyph glyph-name="space" unicode=" " horiz-adv-x="477" 
 />
    <glyph glyph-name="exclam" unicode="!" horiz-adv-x="516" 
d="M98 133.5q0 67.5 46 113.5t114 46t114 -46t46 -113.5t-46 -114t-114 -46.5t-114 46.5t-46 114zM131 416v950h254v-950h-254z" />
    <glyph glyph-name="quotedbl" unicode="&#x22;" horiz-adv-x="819" 
d="M86 1366h279l-48 -549h-184zM455 1366h278l-47 -549h-184z" />
    <glyph glyph-name="numbersign" unicode="#" horiz-adv-x="1228" 
d="M20 381l35 213h209l33 207h-209l35 213h209l57 352h250l-57 -352h192l57 352h250l-57 -352h209l-35 -213h-209l-33 -207h209l-35 -213h-208l-62 -381h-250l62 381h-193l-61 -381h-250l61 381h-209zM514 594h193l32 207h-192z" />
    <glyph glyph-name="dollar" unicode="$" 
d="M98 244l154 157q121 -180 303 -180q92 0 149.5 47t57.5 133q0 57 -38 99.5t-151 91.5q-10 4 -40.5 17.5t-41 18.5t-36 16t-37.5 19l-34 19q-22 12 -36 24l-31 24q-16 13 -30 30q-88 94 -88 239q0 27 6 57.5t23.5 82t62.5 100.5t110 82q61 33 140 41v197h127v-197
q180 -12 315 -154l-135 -172q-84 111 -215 111q-84 0 -131 -43t-47 -103q0 -18 6 -35.5t13 -29.5t23.5 -25.5t28 -21.5t35.5 -20l36 -16q11 -5 40 -16l39 -16q186 -82 248 -139q104 -96 104 -254q0 -160 -97 -276.5t-263 -147.5v-207h-127v203q-182 10 -322 117
q-76 57 -121 127z" />
    <glyph glyph-name="percent" unicode="%" horiz-adv-x="1585" 
d="M61 1059q0 141 93.5 232t251 91t251 -91t93.5 -232t-93.5 -232.5t-251 -91.5t-251 91.5t-93.5 232.5zM233 1059q0 -78 48.5 -127t124 -49t124 49t48.5 127t-48.5 127t-124 49t-124 -49t-48.5 -127zM332 6l813 1405l108 -61l-813 -1407zM836 303q0 141 93 232.5
t250.5 91.5t251 -91.5t93.5 -232.5t-93.5 -232t-251 -91t-250.5 91t-93 232zM1008 303q0 -78 48 -127t123.5 -49t124 49t48.5 127t-48.5 127t-124 49t-123.5 -49t-48 -127z" />
    <glyph glyph-name="ampersand" unicode="&#x26;" horiz-adv-x="1454" 
d="M106 360q0 215 220 347l106 63q-137 137 -137 287q0 139 98.5 239.5t278.5 100.5q170 0 268 -96.5t98 -229.5q0 -186 -192 -303l-58 -35l226 -258q111 109 170 189l155 -154q-74 -92 -147 -166l-31 -31l277 -313h-330l-133 154q-205 -184 -440 -185q-199 0 -314 116.5
t-115 274.5zM373 383q0 -78 57 -129t143 -51q133 0 252 119l-258 296q-194 -102 -194 -235zM545 1077q0 -59 57 -129l60 -74l61 44q94 66 94 151q0 55 -33.5 95t-99.5 40q-68 0 -103.5 -38t-35.5 -89z" />
    <glyph glyph-name="quotesingle" unicode="'" horiz-adv-x="450" 
d="M86 1366h279l-48 -549h-184z" />
    <glyph glyph-name="parenleft" unicode="(" horiz-adv-x="655" 
d="M139 610q0 340 72 615q51 201 131 344l199 -109q-66 -135 -103 -293q-61 -268 -61 -556.5t61 -557.5q37 -158 103 -293l-199 -108q-80 143 -131 344q-72 274 -72 614z" />
    <glyph glyph-name="parenright" unicode=")" horiz-adv-x="655" 
d="M115 -240q66 135 102 293q61 268 61.5 557t-61.5 557q-37 158 -102 293l198 109q80 -143 131 -344q72 -274 72 -614.5t-72 -614.5q-51 -201 -131 -344z" />
    <glyph glyph-name="asterisk" unicode="*" 
d="M238 1214l57 181l233 -119l-41 258h189l-41 -258l233 121l58 -180l-260 -41l186 -185l-154 -110l-116 235l-117 -237l-154 110l187 187z" />
    <glyph glyph-name="plus" unicode="+" horiz-adv-x="1024" 
d="M68 580v229h319v319h250v-319h319v-229h-319v-320h-250v320h-319z" />
    <glyph glyph-name="comma" unicode="," horiz-adv-x="671" 
d="M8 -268l217 551l230 -27l-289 -543z" />
    <glyph glyph-name="hyphen" unicode="-" horiz-adv-x="696" 
d="M82 356v230h532v-230h-532z" />
    <glyph glyph-name="period" unicode="." horiz-adv-x="516" 
d="M98 133.5q0 67.5 46 113.5t114 46t114 -46t46 -113.5t-46 -114t-114 -46.5t-114 46.5t-46 114z" />
    <glyph glyph-name="slash" unicode="/" horiz-adv-x="1126" 
d="M0 -293l782 1811l181 -82l-783 -1811z" />
    <glyph glyph-name="zero" unicode="0" 
d="M53 684q0 334 154.5 523.5t374 189.5t374 -189.5t154.5 -525.5q0 -334 -154.5 -523.5t-374 -189.5t-374 189.5t-154.5 525.5zM319 684q0 -244 80 -364.5t182.5 -120.5t182.5 120.5t80 364.5t-81 363.5t-181.5 119.5t-181.5 -119.5t-81 -363.5z" />
    <glyph glyph-name="one" unicode="1" 
d="M270 1137v229h463v-1366h-266v1137h-197z" />
    <glyph glyph-name="two" unicode="2" 
d="M37 0l401 457q197 229 234 284q80 119 80 220q0 92 -58.5 149t-144.5 57q-98 0 -155.5 -66.5t-61.5 -160.5h-275q8 207 141.5 332t338.5 125q225 0 353 -129t128 -305q0 -98 -45 -196.5t-86 -149t-117 -132.5l-235 -256h493v-229h-991z" />
    <glyph glyph-name="three" unicode="3" 
d="M49 393h266q12 -88 71.5 -141t156.5 -53q106 0 162.5 64.5t56.5 152.5q0 86 -56.5 149.5t-170.5 63.5h-35v192h37q92 0 139 54.5t47 132.5q0 82 -49 131t-131 49q-76 0 -130.5 -47t-58.5 -131h-250q18 182 141.5 284.5t303.5 102.5q197 0 312.5 -102.5t115.5 -274.5
q0 -199 -158 -287q209 -86 209 -325q0 -205 -138 -322t-349 -117q-201 0 -338.5 115.5t-153.5 308.5z" />
    <glyph glyph-name="four" unicode="4" 
d="M45 242v118l678 1031h240v-936h159v-213h-159v-242h-250v242h-668zM360 455h353v542z" />
    <glyph glyph-name="five" unicode="5" 
d="M53 143l88 230q141 -174 346 -174q123 0 199 73.5t76 190.5q0 115 -80 194.5t-229 79.5q-145 0 -263 -88h-16l162 717h631v-229h-455l-49 -215q53 8 90 8q207 0 341 -124t134 -339q0 -211 -134 -354.5t-400 -143.5q-263 0 -441 174z" />
    <glyph glyph-name="six" unicode="6" 
d="M61 440.5q0 198.5 172 425.5l416 557l189 -143l-324 -414q76 33 154 33q176 0 303 -120t127 -324q0 -201 -131 -343.5t-387 -142.5q-248 0 -383.5 136.5t-135.5 335zM328 434.5q0 -108.5 71.5 -180.5t180 -72t180 72t71.5 180.5t-71.5 180t-180 71.5t-180 -71.5
t-71.5 -180z" />
    <glyph glyph-name="seven" unicode="7" 
d="M94 1137v229h1053l-832 -1423l-202 139l616 1055h-635z" />
    <glyph glyph-name="eight" unicode="8" 
d="M106 373q0 119 66 211t178 129q-86 43 -141 119.5t-55 183.5q0 160 112.5 270.5t315 110.5t315.5 -110.5t113 -270.5q0 -106 -55.5 -183t-141.5 -120q113 -37 178.5 -129t65.5 -211q0 -174 -130 -289t-345 -115t-345.5 115t-130.5 289zM373 391q0 -92 59.5 -152.5
t149.5 -60.5t149.5 60.5t59.5 152.5t-59.5 152.5t-149.5 60.5t-149.5 -60.5t-59.5 -152.5zM391 1014q0 -84 53.5 -137.5t137.5 -53.5t137 53.5t53 137.5t-53 137t-137 53t-137.5 -53t-53.5 -137z" />
    <glyph glyph-name="nine" unicode="9" 
d="M66 911q0 201 131 343.5t387 142.5q248 0 383 -136.5t135 -335t-172 -425.5l-416 -557l-188 143l323 414q-76 -33 -153 -33q-176 0 -303 119.5t-127 324.5zM332 931.5q0 -108.5 71.5 -180t180 -71.5t180.5 71.5t72 180t-72 180.5t-180.5 72t-180 -72t-71.5 -180.5z" />
    <glyph glyph-name="colon" unicode=":" horiz-adv-x="516" 
d="M98 133.5q0 67.5 46 113.5t114 46t114 -46t46 -113.5t-46 -114t-114 -46.5t-114 46.5t-46 114zM98 757.5q0 67.5 46 114t114 46.5t114 -46.5t46 -114t-46 -113.5t-114 -46t-114 46t-46 113.5z" />
    <glyph glyph-name="semicolon" unicode=";" horiz-adv-x="671" 
d="M8 -268l217 551l230 -27l-289 -543zM172 757.5q0 67.5 46 114t113.5 46.5t114 -46.5t46.5 -114t-46.5 -113.5t-114 -46t-113.5 46t-46 113.5z" />
    <glyph glyph-name="less" unicode="&#x3c;" horiz-adv-x="1024" 
d="M68 578v213l888 446v-246l-626 -307l626 -307v-246z" />
    <glyph glyph-name="equal" unicode="=" horiz-adv-x="1024" 
d="M68 410v217h888v-217h-888zM68 762v217h888v-217h-888z" />
    <glyph glyph-name="greater" unicode="&#x3e;" horiz-adv-x="1024" 
d="M68 131v246l626 307l-626 307v246l888 -446v-213z" />
    <glyph glyph-name="question" unicode="?" horiz-adv-x="1003" 
d="M86 1006v12q0 178 119 278.5t297 100.5q184 0 300 -104.5t116 -278.5q0 -147 -90.5 -253t-247.5 -130v-215h-254v401q35 -8 73 -8q131 0 191.5 62.5t60.5 142.5q0 70 -42 116t-111 46q-49 0 -82 -20.5t-45.5 -53.5t-15.5 -50.5t-3 -33.5v-12h-266zM293 133.5
q0 67.5 46 113.5t113.5 46t113.5 -46t46 -113.5t-46 -114t-113.5 -46.5t-113.5 46.5t-46 114z" />
    <glyph glyph-name="at" unicode="@" horiz-adv-x="1503" 
d="M68 672q0 317 207.5 517t519.5 200q301 0 471 -176.5t170 -421.5q0 -205 -103.5 -341.5t-234.5 -136.5q-57 0 -101.5 30t-56.5 85q-94 -131 -252 -131q-123 0 -206 85t-83 236q0 188 109.5 299t247.5 111q141 0 202 -106l17 86h172l-82 -416q-8 -41 -8 -70q0 -70 53 -69
q45 0 94 67q80 109 80 256q0 184 -126 321.5t-363 137.5q-178 0 -309.5 -89t-190.5 -214t-59 -262q0 -170 90 -310.5t239 -195.5q98 -35 228 -35q197 0 383 68l38 -156q-195 -66 -409 -66q-328 0 -522 181q-109 100 -162 236.5t-53 279.5zM594 627q0 -76 42 -116t97 -40
q70 0 125 63.5t55 163.5q0 63 -33.5 107.5t-99.5 44.5q-78 0 -132 -64.5t-54 -158.5z" />
    <glyph glyph-name="A" unicode="A" horiz-adv-x="1376" 
d="M4 0l592 1395h201l575 -1395h-287l-120 287h-551l-121 -287h-289zM498 504h389l-193 491z" />
    <glyph glyph-name="B" unicode="B" horiz-adv-x="1167" 
d="M156 0v1366h338q223 0 333 -86q127 -98 127 -283q0 -182 -153 -268q104 -16 178 -86q98 -94 98 -256q0 -172 -116 -276q-125 -111 -347 -111h-458zM422 217h115q119 0 182 37q84 49 84 158q0 111 -101 155q-57 27 -182 27h-98v-377zM422 799h76q20 0 37.5 1t51.5 11
t57.5 27.5t42 53.5t18.5 85q0 88 -57.5 130t-147.5 42h-78v-350z" />
    <glyph glyph-name="C" unicode="C" horiz-adv-x="1236" 
d="M90 682q0 332 219 535q193 180 502 180q180 0 336 -84v-312q-133 154 -330 154q-201 0 -326.5 -140.5t-125.5 -336.5q0 -215 139 -341t323 -126q193 0 320 149v-311q-152 -80 -338 -80q-299 0 -500 191q-219 211 -219 522z" />
    <glyph glyph-name="D" unicode="D" horiz-adv-x="1372" 
d="M156 0v1366h356q162 0 282.5 -27.5t225.5 -105.5q125 -94 193.5 -237.5t68.5 -313.5q0 -358 -274 -551q-111 -78 -225.5 -104.5t-274.5 -26.5h-352zM422 229h82q209 0 334 90q80 57 125 154.5t45 208.5q0 109 -44 206t-124 159q-121 90 -336 90h-82v-908z" />
    <glyph glyph-name="E" unicode="E" horiz-adv-x="1015" 
d="M156 0v1366h757v-229h-491v-306h471v-229h-471v-373h491v-229h-757z" />
    <glyph glyph-name="F" unicode="F" horiz-adv-x="954" 
d="M156 0v1366h725v-229h-459v-306h430v-229h-430v-602h-266z" />
    <glyph glyph-name="G" unicode="G" horiz-adv-x="1564" 
d="M90 682q0 317 204 516t521 199q135 0 245.5 -37t180.5 -98.5t102.5 -101.5t57.5 -85l-232 -125q-16 27 -37.5 54.5t-64.5 65.5t-109.5 61.5t-144.5 23.5q-199 0 -323.5 -138t-124.5 -339q0 -182 112.5 -324.5t333.5 -142.5q154 0 261.5 71.5t127.5 219.5h-352v229h627
v-35q0 -281 -125 -460q-184 -266 -543 -267q-317 0 -517 198t-200 515z" />
    <glyph glyph-name="H" unicode="H" horiz-adv-x="1421" 
d="M156 0v1366h266v-528h577v528h267v-1366h-267v608h-577v-608h-266z" />
    <glyph glyph-name="I" unicode="I" horiz-adv-x="577" 
d="M156 0v1366h266v-1366h-266z" />
    <glyph glyph-name="J" unicode="J" horiz-adv-x="798" 
d="M-53 96l162 195q51 -74 133 -74q74 0 104 47q31 45 31 221v881h266v-922q0 -305 -160 -413q-94 -61 -223 -62q-180 0 -313 127z" />
    <glyph glyph-name="K" unicode="K" horiz-adv-x="1302" 
d="M156 0v1366h266v-578l502 578h336l-578 -631l608 -735h-352l-485 612l-31 -30v-582h-266z" />
    <glyph glyph-name="L" unicode="L" horiz-adv-x="872" 
d="M156 0v1366h266v-1137h422v-229h-688z" />
    <glyph glyph-name="M" unicode="M" horiz-adv-x="1781" 
d="M86 0l254 1391h184l371 -893l387 893h184l230 -1391h-271l-122 842l-375 -860h-74l-358 860l-140 -842h-270z" />
    <glyph glyph-name="N" unicode="N" horiz-adv-x="1593" 
d="M156 0v1397h184l831 -951v920h267v-1393h-185l-831 951v-924h-266z" />
    <glyph glyph-name="O" unicode="O" horiz-adv-x="1638" 
d="M90 682q0 313 204 514t525.5 201t525 -201t203.5 -514t-203.5 -513t-525 -200t-525.5 200t-204 513zM365 682q0 -207 126.5 -339t327.5 -132t328 132t127 339t-128 340t-326.5 133t-326.5 -133t-128 -340z" />
    <glyph glyph-name="P" unicode="P" horiz-adv-x="1093" 
d="M156 0v1366h397q127 0 208 -21.5t152 -82.5q139 -123 140 -330q0 -193 -113 -305q-121 -121 -346 -121h-172v-506h-266zM422 735h108q117 0 175 43q74 57 73 160q0 100 -76 156q-61 43 -188 43h-92v-402z" />
    <glyph glyph-name="Q" unicode="Q" horiz-adv-x="1638" 
d="M90 682q0 313 204 514t525.5 201t525 -201t203.5 -514q0 -285 -180 -485l221 -224l-268 -26l-113 121q-166 -98 -389 -99q-322 0 -525.5 200t-203.5 513zM365 682q0 -207 128 -339t332 -132q113 0 203 45l-278 270l276 23l158 -162q90 121 90 295q0 207 -128 340
t-326.5 133t-326.5 -133t-128 -340z" />
    <glyph glyph-name="R" unicode="R" horiz-adv-x="1175" 
d="M156 0v1366h395q225 0 348 -102q135 -115 135 -308q0 -215 -160 -321q-61 -43 -149 -60l426 -575h-332l-364 549h-33v-549h-266zM422 737h76q33 0 64.5 5.5t82.5 22.5t83 63t32 116t-31 116t-82 63.5t-81.5 21.5t-63.5 4h-80v-412z" />
    <glyph glyph-name="S" unicode="S" horiz-adv-x="1093" 
d="M70 227l174 166q45 -92 125 -137t161 -45q92 0 151.5 52t59.5 136q0 72 -53 123q-49 45 -211 101q-152 51 -227 118q-109 94 -109 254q0 166 113 284t326 118q231 0 387 -160l-140 -182q-88 117 -223 116q-98 0 -143 -48t-45 -111q0 -55 43 -92q33 -31 164 -78
q203 -70 276 -137q117 -104 117 -287q0 -201 -132 -325t-343 -124q-295 0 -471 258z" />
    <glyph glyph-name="T" unicode="T" horiz-adv-x="905" 
d="M12 1137v229h881v-229h-307v-1137h-267v1137h-307z" />
    <glyph glyph-name="U" unicode="U" horiz-adv-x="1409" 
d="M156 530v836h266v-858q0 -129 65 -203q78 -94 217.5 -94t217.5 94q66 74 65 203v858h266v-836q0 -233 -102 -364q-72 -94 -191.5 -145.5t-255 -51.5t-255 51.5t-191.5 145.5q-102 131 -102 364z" />
    <glyph glyph-name="V" unicode="V" horiz-adv-x="1318" 
d="M4 1366h291l364 -917l365 917h291l-586 -1397h-143z" />
    <glyph glyph-name="W" unicode="W" horiz-adv-x="2002" 
d="M4 1366h283l305 -930l334 942h147l316 -942l327 930h283l-514 -1397h-189l-303 897l-317 -897h-189z" />
    <glyph glyph-name="X" unicode="X" horiz-adv-x="1310" 
d="M16 0l484 721l-408 645h320l239 -424l252 424h320l-420 -645l467 -721h-320l-299 500l-315 -500h-320z" />
    <glyph glyph-name="Y" unicode="Y" horiz-adv-x="1208" 
d="M-4 1366h315l293 -475l293 475h315l-481 -741v-625h-266v625z" />
    <glyph glyph-name="Z" unicode="Z" horiz-adv-x="1196" 
d="M45 0l664 1137h-559v229h1001l-664 -1137h631v-229h-1073z" />
    <glyph glyph-name="bracketleft" unicode="[" horiz-adv-x="716" 
d="M184 -328v1862h430v-213h-192v-1436h192v-213h-430z" />
    <glyph glyph-name="backslash" unicode="\" horiz-adv-x="1126" 
d="M164 1436l180 82l782 -1811l-180 -82z" />
    <glyph glyph-name="bracketright" unicode="]" horiz-adv-x="716" 
d="M102 -115h193v1436h-193v213h430v-1862h-430v213z" />
    <glyph glyph-name="asciicircum" unicode="^" horiz-adv-x="1024" 
d="M16 694l332 678h328l332 -678h-260l-236 494l-236 -494h-260z" />
    <glyph glyph-name="underscore" unicode="_" horiz-adv-x="1024" 
d="M0 -111h1024v-213h-1024v213z" />
    <glyph glyph-name="grave" unicode="`" horiz-adv-x="1024" 
d="M193 1319l180 115l241 -308l-114 -82z" />
    <glyph glyph-name="a" unicode="a" horiz-adv-x="1167" 
d="M74 444q0 201 122.5 336t317.5 135q193 0 285 -143v115h250v-887h-250v115q-100 -143 -273 -144q-201 0 -326.5 137t-125.5 336zM332 444.5q0 -106.5 69.5 -179t176 -72.5t176 72.5t69.5 179t-69.5 178t-176 71.5t-176 -71.5t-69.5 -178z" />
    <glyph glyph-name="b" unicode="b" horiz-adv-x="1167" 
d="M119 0v1534h250v-762q102 143 288 143q195 0 316 -133t121 -337.5t-124 -339t-319 -134.5q-178 0 -282 144v-115h-250zM344 444.5q0 -106.5 69.5 -179t176 -72.5t176.5 72.5t70 179t-70 178t-176.5 71.5t-176 -71.5t-69.5 -178z" />
    <glyph glyph-name="c" unicode="c" horiz-adv-x="856" 
d="M74 440q0 225 153 361q129 115 320 114q129 0 239 -53v-246q-84 78 -204 78q-119 0 -184.5 -72.5t-65.5 -177.5q0 -109 72.5 -180t185.5 -71q111 0 196 77v-243q-111 -55 -229 -56q-207 0 -342 129q-141 133 -141 340z" />
    <glyph glyph-name="d" unicode="d" horiz-adv-x="1167" 
d="M74 444q0 201 122.5 336t317.5 135q193 0 285 -143v762h250v-1534h-250v115q-100 -143 -273 -144q-201 0 -326.5 137t-125.5 336zM332 444.5q0 -106.5 69.5 -179t176 -72.5t176 72.5t69.5 179t-69.5 178t-176 71.5t-176 -71.5t-69.5 -178z" />
    <glyph glyph-name="e" unicode="e" horiz-adv-x="1069" 
d="M74 442q0 213 135 349q127 125 334 124q225 0 346 -145q106 -127 106 -348v-21h-663q0 -90 43 -149q61 -84 178 -84q139 0 207 117l229 -37q-14 -37 -37.5 -73t-73 -88t-133 -84t-192.5 -32q-209 0 -340 125q-139 131 -139 346zM340 561h420q-14 86 -74.5 132t-136.5 46
q-74 0 -134.5 -47t-74.5 -131z" />
    <glyph glyph-name="f" unicode="f" horiz-adv-x="598" 
d="M29 674v213h94v284q0 217 117 314q88 74 219 74q78 0 143 -31v-228q-49 37 -113 37q-59 0 -90 -45q-27 -43 -26 -153v-252h229v-213h-229v-674h-250v674h-94z" />
    <glyph glyph-name="g" unicode="g" 
d="M74 444q0 195 120.5 333t321.5 138q184 0 279 -143v115h249v-854q0 -78 -3 -119t-26.5 -110.5t-70.5 -125.5q-137 -156 -371 -155q-190 0 -322 100.5t-155 272.5h271q14 -76 69.5 -118t138.5 -42q61 0 105.5 22.5t66 50t33 68.5t13.5 62.5t2 46.5v133q-96 -147 -273 -148
q-199 0 -323.5 137t-124.5 336zM332 444.5q0 -106.5 69.5 -179t176 -72.5t176 72.5t69.5 179t-69.5 178t-176 71.5t-176 -71.5t-69.5 -178z" />
    <glyph glyph-name="h" unicode="h" horiz-adv-x="1093" 
d="M119 0v1534h250v-762q102 143 274 143q174 0 262 -108q70 -86 70 -250v-557h-250v483q0 125 -47 174q-43 45 -117 45q-102 0 -153 -77q-39 -61 -39 -172v-453h-250z" />
    <glyph glyph-name="i" unicode="i" horiz-adv-x="487" 
d="M94 1261.5q0 61.5 44 105.5t105.5 44t105.5 -44t44 -105.5t-44 -105.5t-105.5 -44t-105.5 44t-44 105.5zM119 0v887h250v-887h-250z" />
    <glyph glyph-name="j" unicode="j" horiz-adv-x="487" 
d="M94 1261.5q0 61.5 44 105.5t105.5 44t105.5 -44t44 -105.5t-44 -105.5t-105.5 -44t-105.5 44t-44 105.5zM119 -475v1362h250v-1362h-250z" />
    <glyph glyph-name="k" unicode="k" horiz-adv-x="1048" 
d="M119 0v1534h250v-971l331 324h324l-416 -389l449 -498h-332l-330 379l-26 -25v-354h-250z" />
    <glyph glyph-name="l" unicode="l" horiz-adv-x="487" 
d="M119 0v1534h250v-1534h-250z" />
    <glyph glyph-name="m" unicode="m" horiz-adv-x="1617" 
d="M119 0v887h250v-101q102 129 264 129q199 0 280 -161q100 162 285 161q156 0 240 -108q39 -51 50 -106.5t11 -143.5v-557h-250v483q0 125 -41 174q-37 45 -102 45q-94 0 -137 -77q-35 -57 -35 -172v-453h-250v483q0 125 -41 174q-37 45 -102 45q-94 0 -138 -77
q-35 -57 -34 -172v-453h-250z" />
    <glyph glyph-name="n" unicode="n" horiz-adv-x="1093" 
d="M119 0v887h250v-115q102 143 274 143q174 0 262 -108q70 -86 70 -250v-557h-250v483q0 125 -47 174q-43 45 -117 45q-102 0 -153 -77q-39 -61 -39 -172v-453h-250z" />
    <glyph glyph-name="o" unicode="o" 
d="M74 442q0 213 149 349q135 125 358.5 124.5t358.5 -124.5q150 -135 150 -349q0 -211 -150 -346q-135 -125 -358.5 -125t-358.5 125q-149 135 -149 346zM332 442q0 -102 71.5 -175.5t178 -73.5t178 73.5t71.5 175.5q0 104 -71.5 178t-178 74t-178 -74t-71.5 -178z" />
    <glyph glyph-name="p" unicode="p" horiz-adv-x="1167" 
d="M119 -475v1362h250v-115q102 143 288 143q195 0 316 -133t121 -337.5t-124 -339t-319 -134.5q-178 0 -282 144v-590h-250zM344 444.5q0 -106.5 69.5 -179t176 -72.5t176.5 72.5t70 179t-70 178t-176.5 71.5t-176 -71.5t-69.5 -178z" />
    <glyph glyph-name="q" unicode="q" horiz-adv-x="1167" 
d="M74 444q0 201 122.5 336t317.5 135q193 0 285 -143v115h250v-1362h-250v590q-100 -143 -273 -144q-201 0 -326.5 137t-125.5 336zM332 444.5q0 -106.5 69.5 -179t176 -72.5t176 72.5t69.5 179t-69.5 178t-176 71.5t-176 -71.5t-69.5 -178z" />
    <glyph glyph-name="r" unicode="r" horiz-adv-x="737" 
d="M119 0v887h250v-133q45 86 110 123q61 39 148 38q49 0 106 -20l-33 -233q-47 33 -116 32q-109 0 -166 -71q-49 -61 -49 -197v-426h-250z" />
    <glyph glyph-name="s" unicode="s" horiz-adv-x="827" 
d="M61 119l132 151q88 -102 196 -102q53 0 88 25.5t35 70.5q0 61 -78 90l-57 21q-133 47 -191 106q-68 72 -67 170q0 123 92 201q80 63 231 63q160 0 283 -94l-123 -145q-63 59 -145 59q-45 0 -71 -19.5t-26 -51.5q0 -53 80 -80l60 -19q174 -55 225 -127q45 -61 45 -147
q0 -135 -98 -225q-102 -94 -266 -95q-208 1 -345 148z" />
    <glyph glyph-name="t" unicode="t" horiz-adv-x="552" 
d="M20 674v213h99v303h250v-303h172v-213h-172v-674h-250v674h-99z" />
    <glyph glyph-name="u" unicode="u" horiz-adv-x="1097" 
d="M119 344v543h250v-502q0 -106 53 -156q51 -45 127 -45t127 45q53 49 53 156v502h250v-543q0 -178 -109 -272q-115 -100 -321.5 -100.5t-321.5 100.5q-108 94 -108 272z" />
    <glyph glyph-name="v" unicode="v" horiz-adv-x="1032" 
d="M4 887h279l233 -500l234 500h278l-455 -905h-114z" />
    <glyph glyph-name="w" unicode="w" horiz-adv-x="1622" 
d="M4 887h279l233 -512l242 536h106l242 -536l233 512h279l-455 -905h-114l-238 540l-238 -540h-114z" />
    <glyph glyph-name="x" unicode="x" horiz-adv-x="1159" 
d="M4 0l422 483l-340 404h315l181 -230l184 230h315l-346 -404l420 -483h-319l-254 309l-258 -309h-320z" />
    <glyph glyph-name="y" unicode="y" horiz-adv-x="1101" 
d="M4 887h291l274 -504l246 504h283l-715 -1362h-283l326 608z" />
    <glyph glyph-name="z" unicode="z" horiz-adv-x="991" 
d="M25 0l503 674h-426v213h865l-504 -674h469v-213h-907z" />
    <glyph glyph-name="braceleft" unicode="{" horiz-adv-x="1024" 
d="M254 385v213q51 8 78 37q35 41 35 123v332q0 53 3 84.5t21.5 75.5t54.5 73q72 59 242 59q66 0 131 -4v-213h-37q-121 0 -151 -30q-27 -27 -27 -95v-292q0 -104 -24.5 -156.5t-98.5 -99.5q74 -47 98.5 -99.5t24.5 -156.5v-293q0 -68 27 -95q31 -31 151 -30h37v-213
q-66 -4 -131 -4q-170 0 -242 59q-37 29 -55 73t-21 75.5t-3 85.5v331q0 82 -35 123q-27 29 -78 37z" />
    <glyph glyph-name="bar" unicode="|" horiz-adv-x="1024" 
d="M387 -512v2048h250v-2048h-250z" />
    <glyph glyph-name="braceright" unicode="}" horiz-adv-x="1024" 
d="M205 -182h37q121 0 151 30q27 27 27 95v293q0 104 24.5 156t98.5 100q-74 47 -98.5 99t-24.5 157v292q0 68 -27 95q-31 31 -151 30h-37v213q66 4 131 4q170 0 242 -59q37 -29 55 -73t21 -75.5t3 -84.5v-332q0 -82 35 -123q27 -29 78 -37v-213q-51 -8 -78 -37
q-35 -41 -35 -123v-331q0 -53 -3 -85t-21.5 -76t-54.5 -73q-72 -59 -242 -59q-66 0 -131 4v213z" />
    <glyph glyph-name="asciitilde" unicode="~" horiz-adv-x="1368" 
d="M184 1235q61 176 158 244q57 43 145 43q72 0 222 -56q145 -51 180 -51q94 0 151 111l144 -82q-76 -180 -189 -238q-61 -31 -121 -30q-72 0 -217 55q-137 51 -184 51q-41 0 -76 -28.5t-48 -53t-21 -47.5z" />
    <glyph glyph-name="uni00A0" unicode="&#xa0;" horiz-adv-x="477" 
 />
    <glyph glyph-name="section" unicode="&#xa7;" 
d="M150 604q0 117 57 211t178 125q-86 37 -134 110.5t-48 170.5q0 150 107.5 239.5t283.5 89.5q236 0 330 -168q45 -82 47 -200h-246q8 72 -33 118t-106 46q-61 0 -101.5 -34t-40.5 -100q0 -57 37 -89.5t178 -92.5q190 -80 263 -153q92 -98 92 -244q0 -27 -5 -56.5
t-24.5 -89t-74 -114t-136.5 -88.5q25 -10 49.5 -26.5t59.5 -47.5t56.5 -84t21.5 -117q0 -145 -103.5 -251.5t-286.5 -106.5q-172 0 -282.5 105.5t-108.5 283.5h250q0 -74 41 -125t109 -51q59 0 99 42t40 105q0 53 -32 92t-69.5 57.5t-107.5 43.5q-6 2 -38 13t-42 15l-36 15
q-26 10 -39 18l-34 21q-22 12 -38.5 26.5t-32.5 30.5q-100 108 -100 260zM412 612q0 -82 52 -130t117.5 -48t118 48t52.5 130t-52.5 130.5t-118 48.5t-117.5 -48.5t-52 -130.5z" />
    <glyph glyph-name="copyright" unicode="&#xa9;" horiz-adv-x="1556" 
d="M68 682q0 305 205.5 510t504.5 205t505 -205t206 -510t-206 -509t-505 -204t-504.5 204t-205.5 509zM211 682q0 -244 165 -415t402.5 -171t402.5 171t165 415q0 246 -165 417t-402.5 171t-402.5 -171t-165 -417zM373 678q0 168 120.5 300t327.5 132q129 0 226 -53v-223
l-23 22q-86 86 -195 86q-115 0 -187.5 -74.5t-72.5 -187.5q0 -115 73 -186.5t192 -71.5q106 0 190 84l23 22v-223q-96 -51 -220 -51q-195 0 -324.5 122t-129.5 302z" />
    <glyph glyph-name="ordfeminine" unicode="&#xaa;" horiz-adv-x="1167" 
d="M74 444q0 201 122.5 336t317.5 135q193 0 285 -143v115h250v-887h-250v115q-100 -143 -273 -144q-201 0 -326.5 137t-125.5 336zM332 444.5q0 -106.5 69.5 -179t176 -72.5t176 72.5t69.5 179t-69.5 178t-176 71.5t-176 -71.5t-69.5 -178z" />
    <glyph glyph-name="guillemotleft" unicode="&#xab;" horiz-adv-x="1052" 
d="M82 449l324 438l143 -103l-250 -335l250 -336l-143 -103zM483 449l324 438l143 -103l-250 -335l250 -336l-143 -103z" />
    <glyph glyph-name="logicalnot" unicode="&#xac;" horiz-adv-x="1024" 
d="M68 322v229h888v-551h-249v322h-639z" />
    <glyph glyph-name="uni00AD" unicode="&#xad;" horiz-adv-x="696" 
d="M82 356v230h532v-230h-532z" />
    <glyph glyph-name="registered" unicode="&#xae;" horiz-adv-x="1556" 
d="M68 682q0 305 205.5 510t504.5 205t505 -205t206 -510t-206 -509t-505 -204t-504.5 204t-205.5 509zM211 682q0 -244 165 -415t402.5 -171t402.5 171t165 415q0 246 -165 417t-402.5 171t-402.5 -171t-165 -417zM539 352v686h229q121 0 185.5 -63.5t64.5 -149.5
q0 -72 -44 -125t-118 -67l211 -281h-182l-191 254v-254h-155zM694 733h27q129 0 129 86q0 37 -22.5 57.5t-45 23.5t-57.5 3h-31v-170z" />
    <glyph glyph-name="degree" unicode="&#xb0;" horiz-adv-x="1024" 
d="M199 1048.5q0 133.5 90 220.5t223 87t223 -87t90 -220.5t-90 -220.5t-223 -87t-223 87t-90 220.5zM350 1048.5q0 -69.5 45 -114.5t117 -45t117 45t45 114.5t-45 114.5t-117 45t-117 -45t-45 -114.5z" />
    <glyph glyph-name="plusminus" unicode="&#xb1;" horiz-adv-x="1024" 
d="M68 106v230h888v-230h-888zM68 727v229h319v320h250v-320h319v-229h-319v-319h-250v319h-319z" />
    <glyph glyph-name="mu" unicode="&#xb5;" horiz-adv-x="1146" 
d="M119 -352v1239h250v-428q0 -31 2 -57.5t14 -72.5t32.5 -77t61.5 -55.5t99 -24.5q201 0 200 295v420h250v-887h-250v123q-25 -66 -79 -109t-128 -43q-137 0 -202 135v-458h-250z" />
    <glyph glyph-name="mu" unicode="&#x3bc;" horiz-adv-x="1146" 
d="M119 -352v1239h250v-428q0 -31 2 -57.5t14 -72.5t32.5 -77t61.5 -55.5t99 -24.5q201 0 200 295v420h250v-887h-250v123q-25 -66 -79 -109t-128 -43q-137 0 -202 135v-458h-250z" />
    <glyph glyph-name="paragraph" unicode="&#xb6;" horiz-adv-x="1339" 
d="M53 1004q0 225 193 317q96 45 278 45h668v-192h-143v-1364h-213v1364h-177v-1364h-213v845h-26q-162 0 -264.5 95.5t-102.5 253.5z" />
    <glyph glyph-name="uni2219" unicode="&#xb7;" horiz-adv-x="409" 
d="M16 586q0 78 55.5 133t133.5 55t133 -55t55 -133t-55 -133.5t-133 -55.5t-133.5 55.5t-55.5 133.5z" />
    <glyph glyph-name="uni2219" unicode="&#x2219;" horiz-adv-x="409" 
d="M16 586q0 78 55.5 133t133.5 55t133 -55t55 -133t-55 -133.5t-133 -55.5t-133.5 55.5t-55.5 133.5z" />
    <glyph glyph-name="ordmasculine" unicode="&#xba;" 
d="M74 442q0 213 149 349q135 125 358.5 124.5t358.5 -124.5q150 -135 150 -349q0 -211 -150 -346q-135 -125 -358.5 -125t-358.5 125q-149 135 -149 346zM332 442q0 -102 71.5 -175.5t178 -73.5t178 73.5t71.5 175.5q0 104 -71.5 178t-178 74t-178 -74t-71.5 -178z" />
    <glyph glyph-name="guillemotright" unicode="&#xbb;" horiz-adv-x="1052" 
d="M102 113l250 336l-250 335l144 103l323 -438l-323 -439zM504 113l250 336l-250 335l143 103l324 -438l-324 -439z" />
    <glyph glyph-name="Agrave" unicode="&#xc0;" horiz-adv-x="1376" 
d="M390 1794l180 115l241 -308l-114 -82zM4 0l592 1395h201l575 -1395h-287l-120 287h-551l-121 -287h-289zM498 504h389l-193 491z" />
    <glyph glyph-name="Acircumflex" unicode="&#xc2;" horiz-adv-x="1376" 
d="M200 1519l332 678h328l332 -678h-260l-236 494l-236 -494h-260zM4 0l592 1395h201l575 -1395h-287l-120 287h-551l-121 -287h-289zM498 504h389l-193 491z" />
    <glyph glyph-name="Atilde" unicode="&#xc3;" horiz-adv-x="1376" 
d="M196 1602q61 176 158 244q57 43 145 43q72 0 222 -56q145 -51 180 -51q94 0 151 111l144 -82q-76 -180 -189 -238q-61 -31 -121 -30q-72 0 -217 55q-137 51 -184 51q-41 0 -76 -28.5t-48 -53t-21 -47.5zM4 0l592 1395h201l575 -1395h-287l-120 287h-551l-121 -287h-289z
M498 504h389l-193 491z" />
    <glyph glyph-name="Aring" unicode="&#xc5;" horiz-adv-x="1376" 
d="M383 1683.5q0 133.5 90 220.5t223 87t223 -87t90 -220.5t-90 -220.5t-223 -87t-223 87t-90 220.5zM534 1683.5q0 -69.5 45 -114.5t117 -45t117 45t45 114.5t-45 114.5t-117 45t-117 -45t-45 -114.5zM4 0l592 1395h201l575 -1395h-287l-120 287h-551l-121 -287h-289z
M498 504h389l-193 491z" />
    <glyph glyph-name="Egrave" unicode="&#xc8;" horiz-adv-x="1015" 
d="M228 1794l180 115l241 -308l-114 -82zM156 0v1366h757v-229h-491v-306h471v-229h-471v-373h491v-229h-757z" />
    <glyph glyph-name="Ecircumflex" unicode="&#xca;" horiz-adv-x="1015" 
d="M39 1519l332 678h328l332 -678h-260l-236 494l-236 -494h-260zM156 0v1366h757v-229h-491v-306h471v-229h-471v-373h491v-229h-757z" />
    <glyph glyph-name="Igrave" unicode="&#xcc;" horiz-adv-x="577" 
d="M-18 1794l180 115l241 -308l-114 -82zM156 0v1366h266v-1366h-266z" />
    <glyph glyph-name="Icircumflex" unicode="&#xce;" horiz-adv-x="577" 
d="M-207 1519l332 678h328l332 -678h-260l-236 494l-236 -494h-260zM156 0v1366h266v-1366h-266z" />
    <glyph glyph-name="Ntilde" unicode="&#xd1;" horiz-adv-x="1593" 
d="M-252 1602q61 176 158 244q57 43 145 43q72 0 222 -56q145 -51 180 -51q94 0 151 111l144 -82q-76 -180 -189 -238q-61 -31 -121 -30q-72 0 -217 55q-137 51 -184 51q-41 0 -76 -28.5t-48 -53t-21 -47.5zM156 0v1397h184l831 -951v920h267v-1393h-185l-831 951v-924h-266
z" />
    <glyph glyph-name="Ograve" unicode="&#xd2;" horiz-adv-x="1638" 
d="M512 1794l180 115l241 -308l-114 -82zM90 682q0 313 204 514t525.5 201t525 -201t203.5 -514t-203.5 -513t-525 -200t-525.5 200t-204 513zM365 682q0 -207 126.5 -339t327.5 -132t328 132t127 339t-128 340t-326.5 133t-326.5 -133t-128 -340z" />
    <glyph glyph-name="Ocircumflex" unicode="&#xd4;" horiz-adv-x="1638" 
d="M323 1519l332 678h328l332 -678h-260l-236 494l-236 -494h-260zM90 682q0 313 204 514t525.5 201t525 -201t203.5 -514t-203.5 -513t-525 -200t-525.5 200t-204 513zM365 682q0 -207 126.5 -339t327.5 -132t328 132t127 339t-128 340t-326.5 133t-326.5 -133t-128 -340z
" />
    <glyph glyph-name="Otilde" unicode="&#xd5;" horiz-adv-x="1638" 
d="M319 1602q61 176 158 244q57 43 145 43q72 0 222 -56q145 -51 180 -51q94 0 151 111l144 -82q-76 -180 -189 -238q-61 -31 -121 -30q-72 0 -217 55q-137 51 -184 51q-41 0 -76 -28.5t-48 -53t-21 -47.5zM90 682q0 313 204 514t525.5 201t525 -201t203.5 -514t-203.5 -513
t-525 -200t-525.5 200t-204 513zM365 682q0 -207 126.5 -339t327.5 -132t328 132t127 339t-128 340t-326.5 133t-326.5 -133t-128 -340z" />
    <glyph glyph-name="Ugrave" unicode="&#xd9;" horiz-adv-x="1409" 
d="M398 1794l180 115l241 -308l-114 -82zM156 530v836h266v-858q0 -129 65 -203q78 -94 217.5 -94t217.5 94q66 74 65 203v858h266v-836q0 -233 -102 -364q-72 -94 -191.5 -145.5t-255 -51.5t-255 51.5t-191.5 145.5q-102 131 -102 364z" />
    <glyph glyph-name="Ucircumflex" unicode="&#xdb;" horiz-adv-x="1409" 
d="M209 1519l332 678h328l332 -678h-260l-236 494l-236 -494h-260zM156 530v836h266v-858q0 -129 65 -203q78 -94 217.5 -94t217.5 94q66 74 65 203v858h266v-836q0 -233 -102 -364q-72 -94 -191.5 -145.5t-255 -51.5t-255 51.5t-191.5 145.5q-102 131 -102 364z" />
    <glyph glyph-name="agrave" unicode="&#xe0;" horiz-adv-x="1167" 
d="M207 1313l180 115l241 -308l-114 -82zM74 444q0 201 122.5 336t317.5 135q193 0 285 -143v115h250v-887h-250v115q-100 -143 -273 -144q-201 0 -326.5 137t-125.5 336zM332 444.5q0 -106.5 69.5 -179t176 -72.5t176 72.5t69.5 179t-69.5 178t-176 71.5t-176 -71.5
t-69.5 -178z" />
    <glyph glyph-name="acircumflex" unicode="&#xe2;" horiz-adv-x="1167" 
d="M18 1038l332 678h328l332 -678h-260l-236 494l-236 -494h-260zM74 444q0 201 122.5 336t317.5 135q193 0 285 -143v115h250v-887h-250v115q-100 -143 -273 -144q-201 0 -326.5 137t-125.5 336zM332 444.5q0 -106.5 69.5 -179t176 -72.5t176 72.5t69.5 179t-69.5 178
t-176 71.5t-176 -71.5t-69.5 -178z" />
    <glyph glyph-name="atilde" unicode="&#xe3;" horiz-adv-x="1167" 
d="M14 1120q61 176 158 244q57 43 145 43q72 0 222 -56q145 -51 180 -51q94 0 151 111l144 -82q-76 -180 -189 -238q-61 -31 -121 -30q-72 0 -217 55q-137 51 -184 51q-41 0 -76 -28.5t-48 -53t-21 -47.5zM74 444q0 201 122.5 336t317.5 135q193 0 285 -143v115h250v-887
h-250v115q-100 -143 -273 -144q-201 0 -326.5 137t-125.5 336zM332 444.5q0 -106.5 69.5 -179t176 -72.5t176 72.5t69.5 179t-69.5 178t-176 71.5t-176 -71.5t-69.5 -178z" />
    <glyph glyph-name="aring" unicode="&#xe5;" horiz-adv-x="1167" 
d="M201 1345.5q0 133.5 90 220.5t223 87t223 -87t90 -220.5t-90 -220.5t-223 -87t-223 87t-90 220.5zM352 1345.5q0 -69.5 45 -114.5t117 -45t117 45t45 114.5t-45 114.5t-117 45t-117 -45t-45 -114.5zM74 444q0 201 122.5 336t317.5 135q193 0 285 -143v115h250v-887h-250
v115q-100 -143 -273 -144q-201 0 -326.5 137t-125.5 336zM332 444.5q0 -106.5 69.5 -179t176 -72.5t176 72.5t69.5 179t-69.5 178t-176 71.5t-176 -71.5t-69.5 -178z" />
    <glyph glyph-name="egrave" unicode="&#xe8;" horiz-adv-x="1069" 
d="M236 1313l180 115l241 -308l-114 -82zM74 442q0 213 135 349q127 125 334 124q225 0 346 -145q106 -127 106 -348v-21h-663q0 -90 43 -149q61 -84 178 -84q139 0 207 117l229 -37q-14 -37 -37.5 -73t-73 -88t-133 -84t-192.5 -32q-209 0 -340 125q-139 131 -139 346z
M340 561h420q-14 86 -74.5 132t-136.5 46q-74 0 -134.5 -47t-74.5 -131z" />
    <glyph glyph-name="ecircumflex" unicode="&#xea;" horiz-adv-x="1069" 
d="M47 1038l332 678h328l332 -678h-260l-236 494l-236 -494h-260zM74 442q0 213 135 349q127 125 334 124q225 0 346 -145q106 -127 106 -348v-21h-663q0 -90 43 -149q61 -84 178 -84q139 0 207 117l229 -37q-14 -37 -37.5 -73t-73 -88t-133 -84t-192.5 -32q-209 0 -340 125
q-139 131 -139 346zM340 561h420q-14 86 -74.5 132t-136.5 46q-74 0 -134.5 -47t-74.5 -131z" />
    <glyph glyph-name="igrave" unicode="&#xec;" horiz-adv-x="487" 
d="M-63 1808l180 115l241 -308l-114 -82zM94 1261.5q0 61.5 44 105.5t105.5 44t105.5 -44t44 -105.5t-44 -105.5t-105.5 -44t-105.5 44t-44 105.5zM119 0v887h250v-887h-250z" />
    <glyph glyph-name="icircumflex" unicode="&#xee;" horiz-adv-x="487" 
d="M-252 1534l332 678h328l332 -678h-260l-236 494l-236 -494h-260zM94 1261.5q0 61.5 44 105.5t105.5 44t105.5 -44t44 -105.5t-44 -105.5t-105.5 -44t-105.5 44t-44 105.5zM119 0v887h250v-887h-250z" />
    <glyph glyph-name="ntilde" unicode="&#xf1;" horiz-adv-x="1093" 
d="M47 1120q61 176 158 244q57 43 145 43q72 0 222 -56q145 -51 180 -51q94 0 151 111l144 -82q-76 -180 -189 -238q-61 -31 -121 -30q-72 0 -217 55q-137 51 -184 51q-41 0 -76 -28.5t-48 -53t-21 -47.5zM119 0v887h250v-115q102 143 274 143q174 0 262 -108
q70 -86 70 -250v-557h-250v483q0 125 -47 174q-43 45 -117 45q-102 0 -153 -77q-39 -61 -39 -172v-453h-250z" />
    <glyph glyph-name="ograve" unicode="&#xf2;" 
d="M275 1313l180 115l241 -308l-114 -82zM74 442q0 213 149 349q135 125 358.5 124.5t358.5 -124.5q150 -135 150 -349q0 -211 -150 -346q-135 -125 -358.5 -125t-358.5 125q-149 135 -149 346zM332 442q0 -102 71.5 -175.5t178 -73.5t178 73.5t71.5 175.5q0 104 -71.5 178
t-178 74t-178 -74t-71.5 -178z" />
    <glyph glyph-name="ocircumflex" unicode="&#xf4;" 
d="M86 1038l332 678h328l332 -678h-260l-236 494l-236 -494h-260zM74 442q0 213 149 349q135 125 358.5 124.5t358.5 -124.5q150 -135 150 -349q0 -211 -150 -346q-135 -125 -358.5 -125t-358.5 125q-149 135 -149 346zM332 442q0 -102 71.5 -175.5t178 -73.5t178 73.5
t71.5 175.5q0 104 -71.5 178t-178 74t-178 -74t-71.5 -178z" />
    <glyph glyph-name="otilde" unicode="&#xf5;" 
d="M82 1120q61 176 158 244q57 43 145 43q72 0 222 -56q145 -51 180 -51q94 0 151 111l144 -82q-76 -180 -189 -238q-61 -31 -121 -30q-72 0 -217 55q-137 51 -184 51q-41 0 -76 -28.5t-48 -53t-21 -47.5zM74 442q0 213 149 349q135 125 358.5 124.5t358.5 -124.5
q150 -135 150 -349q0 -211 -150 -346q-135 -125 -358.5 -125t-358.5 125q-149 135 -149 346zM332 442q0 -102 71.5 -175.5t178 -73.5t178 73.5t71.5 175.5q0 104 -71.5 178t-178 74t-178 -74t-71.5 -178z" />
    <glyph glyph-name="ugrave" unicode="&#xf9;" horiz-adv-x="1097" 
d="M242 1313l180 115l241 -308l-114 -82zM119 344v543h250v-502q0 -106 53 -156q51 -45 127 -45t127 45q53 49 53 156v502h250v-543q0 -178 -109 -272q-115 -100 -321.5 -100.5t-321.5 100.5q-108 94 -108 272z" />
    <glyph glyph-name="ucircumflex" unicode="&#xfb;" horiz-adv-x="1097" 
d="M53 1038l332 678h328l332 -678h-260l-236 494l-236 -494h-260zM119 344v543h250v-502q0 -106 53 -156q51 -45 127 -45t127 45q53 49 53 156v502h250v-543q0 -178 -109 -272q-115 -100 -321.5 -100.5t-321.5 100.5q-108 94 -108 272z" />
    <glyph glyph-name="dotlessi" unicode="&#x131;" horiz-adv-x="487" 
d="M119 0v887h250v-887h-250z" />
    <glyph glyph-name="OE" unicode="&#x152;" horiz-adv-x="2654" 
d="M1794 0v1366h757v-229h-491v-306h471v-229h-471v-373h491v-229h-757zM90 682q0 313 204 514t525.5 201t525 -201t203.5 -514t-203.5 -513t-525 -200t-525.5 200t-204 513zM365 682q0 -207 126.5 -339t327.5 -132t328 132t127 339t-128 340t-326.5 133t-326.5 -133
t-128 -340z" />
    <glyph glyph-name="oe" unicode="&#x153;" horiz-adv-x="2232" 
d="M1237 442q0 213 135 349q127 125 334 124q225 0 346 -145q106 -127 106 -348v-21h-663q0 -90 43 -149q61 -84 178 -84q139 0 207 117l229 -37q-14 -37 -37.5 -73t-73 -88t-133 -84t-192.5 -32q-209 0 -340 125q-139 131 -139 346zM1503 561h420q-14 86 -74.5 132
t-136.5 46q-74 0 -134.5 -47t-74.5 -131zM74 442q0 213 149 349q135 125 358.5 124.5t358.5 -124.5q150 -135 150 -349q0 -211 -150 -346q-135 -125 -358.5 -125t-358.5 125q-149 135 -149 346zM332 442q0 -102 71.5 -175.5t178 -73.5t178 73.5t71.5 175.5q0 104 -71.5 178
t-178 74t-178 -74t-71.5 -178z" />
    <glyph glyph-name="circumflex" unicode="&#x2c6;" horiz-adv-x="1024" 
d="M16 694l332 678h328l332 -678h-260l-236 494l-236 -494h-260z" />
    <glyph glyph-name="uni0400" unicode="&#x400;" horiz-adv-x="1015" 
d="M228 1794l180 115l241 -308l-114 -82zM156 0v1366h757v-229h-491v-306h471v-229h-471v-373h491v-229h-757z" />
    <glyph glyph-name="afii10023" unicode="&#x401;" horiz-adv-x="1015" 
d="M156 0v1366h757v-229h-491v-306h471v-229h-471v-373h491v-229h-757zM156 1661q0 59 44 103t103 44t103.5 -44t44.5 -103t-44.5 -103.5t-103.5 -44.5t-103 44.5t-44 103.5zM614 1661q0 59 44 103t103.5 44t103.5 -44t44 -103t-44 -103.5t-103.5 -44.5t-103.5 44.5
t-44 103.5z" />
    <glyph glyph-name="afii10051" unicode="&#x402;" horiz-adv-x="1392" 
d="M12 1137v229h1004v-229h-451v-316q143 14 262 15q311 0 439 -164q86 -106 86 -283q0 -188 -113 -300t-293 -112q-143 0 -262 62l70 211q72 -43 153 -43q78 0 124 48t46 130q0 98 -49 154q-61 68 -211 67q-117 0 -252 -14v-592h-266v1137h-287z" />
    <glyph glyph-name="afii10052" unicode="&#x403;" horiz-adv-x="892" 
d="M156 0v1366h725v-229h-459v-1137h-266zM410 1593l286 291l185 -143l-357 -250z" />
    <glyph glyph-name="afii10053" unicode="&#x404;" horiz-adv-x="1251" 
d="M90 682q0 156 54.5 298t150.5 237q188 180 510 180q193 0 356 -84v-312q-137 154 -358 154q-170 0 -289 -101.5t-149 -252.5h653v-230h-653q31 -170 160.5 -265t291.5 -95q207 0 344 149v-311q-166 -80 -358 -80q-319 0 -510 191q-203 196 -203 522z" />
    <glyph glyph-name="afii10054" unicode="&#x405;" horiz-adv-x="1093" 
d="M70 227l174 166q45 -92 125 -137t161 -45q92 0 151.5 52t59.5 136q0 72 -53 123q-49 45 -211 101q-152 51 -227 118q-109 94 -109 254q0 166 113 284t326 118q231 0 387 -160l-140 -182q-88 117 -223 116q-98 0 -143 -48t-45 -111q0 -55 43 -92q33 -31 164 -78
q203 -70 276 -137q117 -104 117 -287q0 -201 -132 -325t-343 -124q-295 0 -471 258z" />
    <glyph glyph-name="afii10055" unicode="&#x406;" horiz-adv-x="577" 
d="M156 0v1366h266v-1366h-266z" />
    <glyph glyph-name="afii10056" unicode="&#x407;" horiz-adv-x="577" 
d="M0 1671q0 51 36 87t87 36t87 -36t36 -87t-36 -87t-87 -36t-87 36t-36 87zM156 0v1366h266v-1366h-266zM332 1671q0 51 35.5 87t87 36t87.5 -36t36 -87t-36 -87t-87.5 -36t-87 36t-35.5 87z" />
    <glyph glyph-name="afii10057" unicode="&#x408;" horiz-adv-x="798" 
d="M-53 96l162 195q51 -74 133 -74q74 0 104 47q31 45 31 221v881h266v-922q0 -305 -160 -413q-94 -61 -223 -62q-180 0 -313 127z" />
    <glyph glyph-name="afii10058" unicode="&#x409;" horiz-adv-x="1933" 
d="M20 0v229q41 -12 76 -12q74 0 123 49q33 33 48.5 90.5t17.5 98.5t2 129v782h930v-535h213q213 0 335 -112q127 -117 127 -305q0 -139 -73 -246q-115 -168 -387 -168h-482v1137h-397v-607q0 -78 -2 -116.5t-14.5 -110.5t-45 -126t-85.5 -99q-106 -90 -273 -90
q-58 0 -113 12zM1217 229h155q246 0 246 185q0 78 -54.5 133t-187.5 55h-159v-373z" />
    <glyph glyph-name="afii10059" unicode="&#x40a;" horiz-adv-x="1982" 
d="M156 0v1366h266v-528h577v528h267v-535h213q213 0 336 -112q127 -117 127 -305q0 -139 -74 -246q-115 -168 -387 -168h-482v608h-577v-608h-266zM1266 229h155q246 0 246 185q0 78 -54 133t-188 55h-159v-373z" />
    <glyph glyph-name="afii10060" unicode="&#x40b;" horiz-adv-x="1413" 
d="M12 1137v229h963v-229h-410v-316q139 14 244 15q248 0 365 -88q137 -102 137 -328v-420h-267v373q0 135 -67 188q-59 45 -195 45q-117 0 -217 -14v-592h-266v1137h-287z" />
    <glyph glyph-name="afii10061" unicode="&#x40c;" horiz-adv-x="1302" 
d="M156 0v1366h266v-578l502 578h336l-578 -631l608 -735h-352l-485 612l-31 -30v-582h-266zM487 1593l287 291l184 -143l-356 -250z" />
    <glyph glyph-name="uni040D" unicode="&#x40d;" horiz-adv-x="1515" 
d="M961 1794l180 115l241 -308l-114 -82zM156 -27v1393h266v-917l754 948h184v-1397h-266v922l-754 -949h-184z" />
    <glyph glyph-name="afii10062" unicode="&#x40e;" horiz-adv-x="1249" 
d="M4 1366h311l347 -688l292 688h291l-633 -1366h-290l190 381zM266 1729l185 73q45 -119 184 -119t184 119l185 -73q-41 -106 -136.5 -168t-232.5 -62t-232.5 62t-136.5 168z" />
    <glyph glyph-name="afii10145" unicode="&#x40f;" horiz-adv-x="1384" 
d="M156 0v1366h266v-1137h541v1137h266v-1366h-414v-369h-246v369h-413z" />
    <glyph glyph-name="afii10017" unicode="&#x410;" horiz-adv-x="1376" 
d="M4 0l592 1395h201l575 -1395h-287l-120 287h-551l-121 -287h-289zM498 504h389l-193 491z" />
    <glyph glyph-name="afii10018" unicode="&#x411;" horiz-adv-x="1167" 
d="M156 0v1366h790v-229h-524v-314h184q217 0 342 -110q129 -115 129 -303q0 -135 -76 -244q-117 -166 -393 -166h-452zM422 229h127q254 0 254 179q0 78 -56.5 132t-193.5 54h-131v-365z" />
    <glyph glyph-name="afii10019" unicode="&#x412;" horiz-adv-x="1167" 
d="M156 0v1366h338q223 0 333 -86q127 -98 127 -283q0 -182 -153 -268q104 -16 178 -86q98 -94 98 -256q0 -172 -116 -276q-125 -111 -347 -111h-458zM422 217h115q119 0 182 37q84 49 84 158q0 111 -101 155q-57 27 -182 27h-98v-377zM422 799h76q20 0 37.5 1t51.5 11
t57.5 27.5t42 53.5t18.5 85q0 88 -57.5 130t-147.5 42h-78v-350z" />
    <glyph glyph-name="afii10020" unicode="&#x413;" horiz-adv-x="892" 
d="M156 0v1366h725v-229h-459v-1137h-266z" />
    <glyph glyph-name="afii10021" unicode="&#x414;" horiz-adv-x="1372" 
d="M20 229q70 -2 127.5 50.5t90.5 134.5q49 125 49 358v594h921v-1137h144v-536h-246v307h-840v-307h-246v536zM391 229h551v908h-397v-365q0 -256 -47 -381q-37 -94 -107 -162z" />
    <glyph glyph-name="afii10022" unicode="&#x415;" horiz-adv-x="1015" 
d="M156 0v1366h757v-229h-491v-306h471v-229h-471v-373h491v-229h-757z" />
    <glyph glyph-name="afii10024" unicode="&#x416;" horiz-adv-x="1830" 
d="M12 0l541 735l-522 631h303l454 -578v578h254v-578l455 578h303l-522 -631l541 -735h-308l-438 612l-31 -30v-582h-254v582l-30 30l-439 -612h-307z" />
    <glyph glyph-name="afii10025" unicode="&#x417;" horiz-adv-x="1228" 
d="M82 227l174 166q45 -102 142.5 -152.5t203.5 -50.5q129 0 195.5 59.5t66.5 143.5q0 209 -299 209h-123v229h123q104 0 166 46.5t62 128.5q0 76 -49.5 116.5t-145.5 40.5q-176 0 -274 -108l-140 182q178 160 420 160q207 0 328 -97.5t121 -259.5q0 -195 -168 -288
q123 -31 188.5 -127.5t65.5 -225.5q0 -193 -151.5 -311.5t-391.5 -118.5q-354 0 -514 258z" />
    <glyph glyph-name="afii10026" unicode="&#x418;" horiz-adv-x="1515" 
d="M156 -27v1393h266v-917l754 948h184v-1397h-266v922l-754 -949h-184z" />
    <glyph glyph-name="afii10027" unicode="&#x419;" horiz-adv-x="1515" 
d="M156 -27v1393h266v-917l754 948h184v-1397h-266v922l-754 -949h-184zM389 1729l184 73q45 -119 184.5 -119t184.5 119l184 -73q-41 -106 -136 -168t-232 -62t-232.5 62t-136.5 168z" />
    <glyph glyph-name="afii10028" unicode="&#x41a;" horiz-adv-x="1302" 
d="M156 0v1366h266v-578l502 578h336l-578 -631l608 -735h-352l-485 612l-31 -30v-582h-266z" />
    <glyph glyph-name="afii10029" unicode="&#x41b;" horiz-adv-x="1372" 
d="M20 0v229q41 -12 76 -12q74 0 123 49q33 33 48.5 90.5t17.5 98.5t2 129v782h930v-1366h-267v1137h-397v-607q0 -78 -2 -116.5t-14.5 -110.5t-45 -126t-85.5 -99q-106 -90 -273 -90q-58 0 -113 12z" />
    <glyph glyph-name="afii10030" unicode="&#x41c;" horiz-adv-x="1781" 
d="M86 0l254 1391h184l371 -893l387 893h184l230 -1391h-271l-122 842l-375 -860h-74l-358 860l-140 -842h-270z" />
    <glyph glyph-name="afii10031" unicode="&#x41d;" horiz-adv-x="1421" 
d="M156 0v1366h266v-528h577v528h267v-1366h-267v608h-577v-608h-266z" />
    <glyph glyph-name="afii10032" unicode="&#x41e;" horiz-adv-x="1638" 
d="M90 682q0 313 204 514t525.5 201t525 -201t203.5 -514t-203.5 -513t-525 -200t-525.5 200t-204 513zM365 682q0 -207 126.5 -339t327.5 -132t328 132t127 339t-128 340t-326.5 133t-326.5 -133t-128 -340z" />
    <glyph glyph-name="afii10033" unicode="&#x41f;" horiz-adv-x="1392" 
d="M156 0v1366h1081v-1366h-266v1137h-549v-1137h-266z" />
    <glyph glyph-name="afii10034" unicode="&#x420;" horiz-adv-x="1093" 
d="M156 0v1366h397q127 0 208 -21.5t152 -82.5q139 -123 140 -330q0 -193 -113 -305q-121 -121 -346 -121h-172v-506h-266zM422 735h108q117 0 175 43q74 57 73 160q0 100 -76 156q-61 43 -188 43h-92v-402z" />
    <glyph glyph-name="afii10035" unicode="&#x421;" horiz-adv-x="1236" 
d="M90 682q0 332 219 535q193 180 502 180q180 0 336 -84v-312q-133 154 -330 154q-201 0 -326.5 -140.5t-125.5 -336.5q0 -215 139 -341t323 -126q193 0 320 149v-311q-152 -80 -338 -80q-299 0 -500 191q-219 211 -219 522z" />
    <glyph glyph-name="afii10036" unicode="&#x422;" horiz-adv-x="905" 
d="M12 1137v229h881v-229h-307v-1137h-267v1137h-307z" />
    <glyph glyph-name="afii10037" unicode="&#x423;" horiz-adv-x="1249" 
d="M4 1366h311l347 -688l292 688h291l-633 -1366h-290l190 381z" />
    <glyph glyph-name="afii10038" unicode="&#x424;" horiz-adv-x="1699" 
d="M90 725q0 289 205 434q145 102 385 103h37v159h266v-159h37q240 0 385 -103q205 -145 205 -434t-205 -434q-145 -102 -385 -103h-37v-188h-266v188h-37q-240 0 -385 103q-205 145 -205 434zM365 725q0 -162 110 -250q74 -57 201 -57h41v614h-41q-123 0 -201 -57
q-110 -82 -110 -250zM983 418h41q129 0 203 57q109 84 108 250q0 170 -108 250q-78 57 -203 57h-41v-614z" />
    <glyph glyph-name="afii10039" unicode="&#x425;" horiz-adv-x="1310" 
d="M16 0l484 721l-408 645h320l239 -424l252 424h320l-420 -645l467 -721h-320l-299 500l-315 -500h-320z" />
    <glyph glyph-name="afii10040" unicode="&#x426;" horiz-adv-x="1413" 
d="M156 0v1366h266v-1137h541v1137h266v-1137h164v-536h-246v307h-991z" />
    <glyph glyph-name="afii10041" unicode="&#x427;" horiz-adv-x="1269" 
d="M102 946v420h267v-373q0 -135 67 -188q59 -45 195 -45q117 0 217 14v592h266v-1366h-266v545q-139 -14 -244 -15q-248 0 -364 88q-138 103 -138 328z" />
    <glyph glyph-name="afii10042" unicode="&#x428;" horiz-adv-x="1986" 
d="M156 0v1366h266v-1137h438v1137h266v-1137h439v1137h266v-1366h-1675z" />
    <glyph glyph-name="afii10043" unicode="&#x429;" horiz-adv-x="2015" 
d="M156 0v1366h266v-1137h438v1137h266v-1137h439v1137h266v-1137h164v-536h-246v307h-1593z" />
    <glyph glyph-name="afii10044" unicode="&#x42a;" horiz-adv-x="1282" 
d="M12 1137v229h553v-535h213q213 0 336 -112q127 -117 127 -305q0 -139 -74 -246q-115 -168 -387 -168h-481v1137h-287zM565 229h156q246 0 246 185q0 78 -54.5 133t-187.5 55h-160v-373z" />
    <glyph glyph-name="afii10045" unicode="&#x42b;" horiz-adv-x="1638" 
d="M156 0v1366h266v-535h213q213 0 336 -112q127 -117 127 -305q0 -139 -74 -246q-115 -168 -387 -168h-481zM422 229h156q246 0 245 185q0 78 -54 133t-187 55h-160v-373zM1217 0v1366h266v-1366h-266z" />
    <glyph glyph-name="afii10046" unicode="&#x42c;" horiz-adv-x="1138" 
d="M156 0v1366h266v-535h213q213 0 336 -112q127 -117 127 -305q0 -139 -74 -246q-115 -168 -387 -168h-481zM422 229h156q246 0 245 185q0 78 -54 133t-187 55h-160v-373z" />
    <glyph glyph-name="afii10047" unicode="&#x42d;" horiz-adv-x="1251" 
d="M90 49v311q147 -150 361 -149q160 0 283.5 94t152.5 266h-613v230h609q-29 168 -150 261t-272 93q-219 0 -371 -154v312q164 84 356 84q322 0 510 -180q96 -94 150.5 -236.5t54.5 -298.5q0 -326 -203 -522q-190 -190 -509 -191q-193 0 -359 80z" />
    <glyph glyph-name="afii10048" unicode="&#x42e;" horiz-adv-x="2101" 
d="M156 0v1366h266v-528h188q35 201 172 350q193 209 525 209q313 0 508.5 -201t195.5 -514q0 -311 -195.5 -512t-508.5 -201q-309 0 -497.5 182.5t-207.5 456.5h-180v-608h-266zM877 682q0 -209 118.5 -340t311 -131t311.5 131t119 340q0 229 -130 351t-300 122t-300 -122
t-130 -351z" />
    <glyph glyph-name="afii10049" unicode="&#x42f;" 
d="M25 0l405 553q-82 12 -149 61q-154 111 -154 330q0 199 135 318q119 104 350 104h396v-1366h-267v528h-49l-348 -528h-319zM401 944q0 -207 263 -207h77v412h-82q-33 0 -63.5 -4t-81.5 -21.5t-82 -63.5t-31 -116z" />
    <glyph glyph-name="afii10065" unicode="&#x430;" horiz-adv-x="1167" 
d="M74 444q0 201 122.5 336t317.5 135q193 0 285 -143v115h250v-887h-250v115q-100 -143 -273 -144q-201 0 -326.5 137t-125.5 336zM332 444.5q0 -106.5 69.5 -179t176 -72.5t176 72.5t69.5 179t-69.5 178t-176 71.5t-176 -71.5t-69.5 -178z" />
    <glyph glyph-name="afii10066" unicode="&#x431;" horiz-adv-x="1179" 
d="M90 537q0 412 135 598q53 74 133 122t131.5 63t135.5 32q98 20 142 47.5t60 75.5h230q-41 -244 -291 -320q-45 -14 -115.5 -31.5t-103.5 -27t-75 -35t-75 -66.5q-66 -84 -75 -200h4q47 61 133 90.5t178 29.5q205 0 332 -124q137 -131 137 -344.5t-150 -350.5
q-137 -125 -352 -125q-225 0 -354 117q-160 144 -160 449zM348 442q0 -106 70.5 -177.5t179.5 -71.5t179.5 71.5t70.5 177.5q0 109 -69.5 180.5t-180.5 71.5t-180.5 -71.5t-69.5 -180.5z" />
    <glyph glyph-name="afii10067" unicode="&#x432;" horiz-adv-x="933" 
d="M119 0v887h391q141 0 211 -53q86 -66 86 -175q0 -57 -32 -107t-91 -75q66 -12 117 -57q68 -61 67 -166q0 -125 -94 -197q-78 -57 -199 -57h-456zM369 197h116q63 0 93 22q33 25 32 72q0 43 -32 63q-29 20 -86 21h-123v-178zM369 535h114q39 0 66 16q33 20 33 61
q0 43 -29 64q-20 14 -74 14h-110v-155z" />
    <glyph glyph-name="afii10068" unicode="&#x433;" horiz-adv-x="696" 
d="M119 0v887h565v-213h-315v-674h-250z" />
    <glyph glyph-name="afii10069" unicode="&#x434;" horiz-adv-x="1085" 
d="M8 213q104 6 158 113q35 76 35 227v334h737v-674h131v-471h-225v258h-611v-258h-225v471zM328 213h360v461h-262v-197q0 -180 -98 -264z" />
    <glyph glyph-name="afii10070" unicode="&#x435;" horiz-adv-x="1069" 
d="M74 442q0 213 135 349q127 125 334 124q225 0 346 -145q106 -127 106 -348v-21h-663q0 -90 43 -149q61 -84 178 -84q139 0 207 117l229 -37q-14 -37 -37.5 -73t-73 -88t-133 -84t-192.5 -32q-209 0 -340 125q-139 131 -139 346zM340 561h420q-14 86 -74.5 132t-136.5 46
q-74 0 -134.5 -47t-74.5 -131z" />
    <glyph glyph-name="afii10072" unicode="&#x436;" horiz-adv-x="1368" 
d="M-4 0l356 483l-338 404h291l266 -344v344h226v-344l266 344h291l-338 -404l356 -483h-303l-240 348l-32 -37v-311h-226v311l-32 37l-240 -348h-303z" />
    <glyph glyph-name="afii10073" unicode="&#x437;" horiz-adv-x="901" 
d="M53 119l123 151q100 -94 238 -94q86 0 120.5 31t34.5 69q0 49 -47 74q-33 16 -106 17h-105v180h101q68 0 98.5 20.5t30.5 61.5q0 90 -135 90q-115 0 -197 -70l-115 156q139 111 336 110q150 0 236 -59q100 -68 100 -188q0 -123 -123 -191q66 -16 117 -59q68 -61 67 -164
q0 -129 -102 -205q-102 -78 -291 -78q-238 1 -381 148z" />
    <glyph glyph-name="afii10074" unicode="&#x438;" horiz-adv-x="1146" 
d="M119 0v887h250v-547l409 547h250v-887h-250v547l-409 -547h-250z" />
    <glyph glyph-name="afii10075" unicode="&#x439;" horiz-adv-x="1146" 
d="M119 0v887h250v-547l409 547h250v-887h-250v547l-409 -547h-250zM238 1253l163 78q12 -55 60.5 -92t111.5 -37q59 0 108.5 33t63.5 96l164 -78q-41 -115 -137 -163t-198.5 -48t-198.5 48t-137 163z" />
    <glyph glyph-name="afii10076" unicode="&#x43a;" horiz-adv-x="1024" 
d="M119 0v887h250v-344l331 344h312l-402 -395l422 -492h-319l-307 367l-37 -37v-330h-250z" />
    <glyph glyph-name="afii10077" unicode="&#x43b;" horiz-adv-x="1024" 
d="M16 0v213q25 -4 39 -4q68 0 103 43q31 37 30 113v522h717v-887h-250v674h-241v-326q0 -172 -84 -262q-84 -94 -240 -94q-41 0 -74 8z" />
    <glyph glyph-name="afii10078" unicode="&#x43c;" horiz-adv-x="1228" 
d="M25 0l161 911h185l243 -534l244 534h184l162 -911h-250l-73 481l-230 -499h-73l-230 499l-74 -481h-249z" />
    <glyph glyph-name="afii10079" unicode="&#x43d;" horiz-adv-x="1085" 
d="M119 0v887h250v-314h348v314h250v-887h-250v360h-348v-360h-250z" />
    <glyph glyph-name="afii10080" unicode="&#x43e;" 
d="M74 442q0 213 149 349q135 125 358.5 124.5t358.5 -124.5q150 -135 150 -349q0 -211 -150 -346q-135 -125 -358.5 -125t-358.5 125q-149 135 -149 346zM332 442q0 -102 71.5 -175.5t178 -73.5t178 73.5t71.5 175.5q0 104 -71.5 178t-178 74t-178 -74t-71.5 -178z" />
    <glyph glyph-name="afii10081" unicode="&#x43f;" horiz-adv-x="1077" 
d="M119 0v887h839v-887h-249v674h-340v-674h-250z" />
    <glyph glyph-name="afii10082" unicode="&#x440;" horiz-adv-x="1167" 
d="M119 -475v1362h250v-115q102 143 288 143q195 0 316 -133t121 -337.5t-124 -339t-319 -134.5q-178 0 -282 144v-590h-250zM344 444.5q0 -106.5 69.5 -179t176 -72.5t176.5 72.5t70 179t-70 178t-176.5 71.5t-176 -71.5t-69.5 -178z" />
    <glyph glyph-name="afii10083" unicode="&#x441;" horiz-adv-x="856" 
d="M74 440q0 225 153 361q129 115 320 114q129 0 239 -53v-246q-84 78 -204 78q-119 0 -184.5 -72.5t-65.5 -177.5q0 -109 72.5 -180t185.5 -71q111 0 196 77v-243q-111 -55 -229 -56q-207 0 -342 129q-141 133 -141 340z" />
    <glyph glyph-name="afii10084" unicode="&#x442;" horiz-adv-x="765" 
d="M12 674v213h742v-213h-246v-674h-250v674h-246z" />
    <glyph glyph-name="afii10085" unicode="&#x443;" horiz-adv-x="1101" 
d="M4 887h291l274 -504l246 504h283l-715 -1362h-283l326 608z" />
    <glyph glyph-name="afii10086" unicode="&#x444;" horiz-adv-x="1413" 
d="M74 444q0 242 176 369q123 86 311 86h21v467h249v-467h21q188 0 311 -86q176 -127 176 -369q0 -246 -176 -368q-123 -88 -311 -88h-21v-463h-249v463h-21q-188 0 -311 88q-176 122 -176 368zM332 444q0 -133 90 -192q61 -43 160 -43v469q-92 4 -158 -41q-92 -64 -92 -193
zM831 209q98 0 160 43q90 59 90 192q0 129 -92 193q-66 45 -158 41v-469z" />
    <glyph glyph-name="afii10087" unicode="&#x445;" horiz-adv-x="1159" 
d="M4 0l422 483l-340 404h315l181 -230l184 230h315l-346 -404l420 -483h-319l-254 309l-258 -309h-320z" />
    <glyph glyph-name="afii10088" unicode="&#x446;" horiz-adv-x="1110" 
d="M119 0v887h250v-674h331v674h250v-674h144v-471h-226v258h-749z" />
    <glyph glyph-name="afii10089" unicode="&#x447;" horiz-adv-x="991" 
d="M86 573v314h250v-262q0 -68 31 -97q35 -33 127 -32q61 0 129 12v379h249v-887h-249v303q-106 -20 -209 -20q-162 0 -248 82q-80 75 -80 208z" />
    <glyph glyph-name="afii10090" unicode="&#x448;" horiz-adv-x="1560" 
d="M119 0v887h250v-674h286v674h250v-674h287v674h250v-887h-1323z" />
    <glyph glyph-name="afii10091" unicode="&#x449;" horiz-adv-x="1601" 
d="M119 0v887h250v-674h286v674h250v-674h287v674h250v-674h143v-471h-225v258h-1241z" />
    <glyph glyph-name="afii10092" unicode="&#x44a;" horiz-adv-x="1032" 
d="M12 674v213h467v-316h195q156 0 237 -90q68 -72 68 -190q0 -145 -94 -225q-76 -66 -199 -66h-457v674h-217zM479 197h117q63 0 92 22q33 25 33 72q0 43 -33 63q-29 20 -86 21h-123v-178z" />
    <glyph glyph-name="afii10093" unicode="&#x44b;" horiz-adv-x="1331" 
d="M119 0v887h250v-316h194q156 0 238 -90q68 -72 67 -190q0 -145 -94 -225q-76 -66 -199 -66h-456zM369 197h116q63 0 93 22q33 25 32 72q0 43 -32 63q-29 20 -86 21h-123v-178zM963 0v887h249v-887h-249z" />
    <glyph glyph-name="afii10094" unicode="&#x44c;" horiz-adv-x="921" 
d="M119 0v887h250v-316h194q156 0 238 -90q68 -72 67 -190q0 -145 -94 -225q-76 -66 -199 -66h-456zM369 197h116q63 0 93 22q33 25 32 72q0 43 -32 63q-29 20 -86 21h-123v-178z" />
    <glyph glyph-name="afii10095" unicode="&#x44d;" horiz-adv-x="888" 
d="M70 18v242q106 -86 258 -86q106 0 164 49q55 49 59 135h-367v181h367q-12 80 -68 125q-61 55 -157 55q-141 0 -252 -76v217q133 55 270 55q221 0 346 -133q125 -129 125 -340q0 -219 -131 -346q-127 -127 -340 -127q-159 0 -274 49z" />
    <glyph glyph-name="afii10096" unicode="&#x44e;" horiz-adv-x="1536" 
d="M119 0v887h250v-334h120q23 137 127 238q131 125 347 124q217 0 352 -124q147 -133 147 -349q0 -209 -147 -346q-135 -125 -352 -125q-213 0 -347 125q-104 100 -127 244h-120v-340h-250zM721 442q0 -104 68.5 -176.5t173 -72.5t173 72.5t68.5 176.5q0 106 -68.5 179
t-173 73t-173 -73t-68.5 -179z" />
    <glyph glyph-name="afii10097" unicode="&#x44f;" horiz-adv-x="942" 
d="M41 0l262 332q-86 12 -143 69q-70 70 -70 189q0 137 107 223q94 74 274 74h352v-887h-250v311h-28l-217 -311h-287zM348 588q0 -49 33 -74q29 -23 84 -22h108v198h-108q-57 0 -84 -24q-33 -31 -33 -78z" />
    <glyph glyph-name="uni0450" unicode="&#x450;" horiz-adv-x="1069" 
d="M236 1313l180 115l241 -308l-114 -82zM74 442q0 213 135 349q127 125 334 124q225 0 346 -145q106 -127 106 -348v-21h-663q0 -90 43 -149q61 -84 178 -84q139 0 207 117l229 -37q-14 -37 -37.5 -73t-73 -88t-133 -84t-192.5 -32q-209 0 -340 125q-139 131 -139 346z
M340 561h420q-14 86 -74.5 132t-136.5 46q-74 0 -134.5 -47t-74.5 -131z" />
    <glyph glyph-name="afii10071" unicode="&#x451;" horiz-adv-x="1069" 
d="M74 442q0 213 135 349q127 125 334 124q225 0 346 -145q106 -127 106 -348v-21h-663q0 -90 43 -149q61 -84 178 -84q139 0 207 117l229 -37q-14 -37 -37.5 -73t-73 -88t-133 -84t-192.5 -32q-209 0 -340 125q-139 131 -139 346zM184 1200.5q0 59.5 44 103.5t103.5 44
t103.5 -44t44 -103.5t-44 -103.5t-103.5 -44t-103.5 44t-44 103.5zM340 561h420q-14 86 -74.5 132t-136.5 46q-74 0 -134.5 -47t-74.5 -131zM610 1200.5q0 59.5 44 103.5t103.5 44t103.5 -44t44 -103.5t-44 -103.5t-103.5 -44t-103.5 44t-44 103.5z" />
    <glyph glyph-name="afii10099" unicode="&#x452;" horiz-adv-x="1114" 
d="M-20 1165v160h159v209h250v-209h410v-160h-410v-393q102 143 275 143q174 0 262 -108q70 -86 69 -250v-756q0 -168 -100 -239q-80 -55 -203 -56q-86 0 -155 19v221q45 -18 96 -18q68 0 94 45q18 31 18 123v587q0 125 -47 174q-43 45 -116 45q-102 0 -154 -77
q-39 -61 -39 -172v-453h-250v1165h-159z" />
    <glyph glyph-name="afii10100" unicode="&#x453;" horiz-adv-x="696" 
d="M119 0v887h565v-213h-315v-674h-250zM287 1126l241 308l181 -115l-308 -275z" />
    <glyph glyph-name="afii10101" unicode="&#x454;" horiz-adv-x="888" 
d="M74 436q0 207 137 340q139 139 364 139q139 0 240 -61v-217q-106 82 -231 82q-98 0 -168 -60q-63 -51 -84 -127h393v-180h-393q8 -88 82 -135q61 -41 188 -41q133 0 217 78v-242q-96 -41 -237 -41q-231 0 -365 119q-68 61 -105.5 155.5t-37.5 190.5z" />
    <glyph glyph-name="afii10102" unicode="&#x455;" horiz-adv-x="827" 
d="M61 119l132 151q88 -102 196 -102q53 0 88 25.5t35 70.5q0 61 -78 90l-57 21q-133 47 -191 106q-68 72 -67 170q0 123 92 201q80 63 231 63q160 0 283 -94l-123 -145q-63 59 -145 59q-45 0 -71 -19.5t-26 -51.5q0 -53 80 -80l60 -19q174 -55 225 -127q45 -61 45 -147
q0 -135 -98 -225q-102 -94 -266 -95q-208 1 -345 148z" />
    <glyph glyph-name="afii10103" unicode="&#x456;" horiz-adv-x="487" 
d="M94 1261.5q0 61.5 44 105.5t105.5 44t105.5 -44t44 -105.5t-44 -105.5t-105.5 -44t-105.5 44t-44 105.5zM119 0v887h250v-887h-250z" />
    <glyph glyph-name="afii10104" unicode="&#x457;" horiz-adv-x="487" 
d="M-2 1200q0 45 31.5 78t79 33t79 -33t31.5 -78t-31.5 -77.5t-79 -32.5t-79 32.5t-31.5 77.5zM119 0v887h250v-887h-250zM268 1200q0 45 32 78t79 33t78.5 -33t31.5 -78t-31.5 -77.5t-78.5 -32.5t-79 32.5t-32 77.5z" />
    <glyph glyph-name="afii10105" unicode="&#x458;" horiz-adv-x="487" 
d="M94 1261.5q0 61.5 44 105.5t105.5 44t105.5 -44t44 -105.5t-44 -105.5t-105.5 -44t-105.5 44t-44 105.5zM119 -475v1362h250v-1362h-250z" />
    <glyph glyph-name="afii10106" unicode="&#x459;" horiz-adv-x="1458" 
d="M16 0v213q25 -4 39 -4q68 0 103 43q31 37 30 113v522h717v-316h195q156 0 237 -90q68 -72 68 -190q0 -145 -94 -225q-76 -66 -199 -66h-457v674h-241v-326q0 -172 -84 -262q-84 -94 -240 -94q-41 0 -74 8zM905 197h117q63 0 92 22q33 25 33 72q0 43 -33 63q-29 20 -86 21
h-123v-178z" />
    <glyph glyph-name="afii10107" unicode="&#x45a;" horiz-adv-x="1519" 
d="M119 0v887h250v-314h348v314h250v-316h194q156 0 238 -90q68 -72 67 -190q0 -145 -94 -225q-76 -66 -198 -66h-457v360h-348v-360h-250zM967 197h116q63 0 93 22q33 25 32 72q0 43 -32 63q-29 20 -86 21h-123v-178z" />
    <glyph glyph-name="afii10108" unicode="&#x45b;" horiz-adv-x="1114" 
d="M-20 1165v160h159v209h250v-209h410v-160h-410v-393q102 143 275 143q174 0 262 -108q70 -86 69 -250v-557h-250v483q0 125 -47 174q-43 45 -116 45q-102 0 -154 -77q-39 -61 -39 -172v-453h-250v1165h-159z" />
    <glyph glyph-name="afii10109" unicode="&#x45c;" horiz-adv-x="1024" 
d="M119 0v887h250v-344l331 344h312l-402 -395l422 -492h-319l-307 367l-37 -37v-330h-250zM410 1126l241 308l180 -115l-307 -275z" />
    <glyph glyph-name="uni045D" unicode="&#x45d;" horiz-adv-x="1146" 
d="M267 1313l180 115l241 -308l-114 -82zM119 0v887h250v-547l409 547h250v-887h-250v547l-409 -547h-250z" />
    <glyph glyph-name="afii10110" unicode="&#x45e;" horiz-adv-x="1101" 
d="M4 887h291l274 -504l246 504h283l-715 -1362h-283l326 608zM225 1253l164 78q12 -55 60.5 -92t111.5 -37q59 0 108.5 33t63.5 96l164 -78q-41 -115 -137 -163t-198.5 -48t-199 48t-137.5 163z" />
    <glyph glyph-name="afii10193" unicode="&#x45f;" horiz-adv-x="1069" 
d="M119 0v887h250v-674h331v674h250v-887h-303v-328h-225v328h-303z" />
    <glyph glyph-name="afii10050" unicode="&#x490;" horiz-adv-x="974" 
d="M156 0v1366h561v307h246v-536h-541v-1137h-266z" />
    <glyph glyph-name="afii10098" unicode="&#x491;" horiz-adv-x="778" 
d="M119 0v887h422v258h225v-471h-397v-674h-250z" />
    <glyph glyph-name="uni04AE" unicode="&#x4ae;" horiz-adv-x="1208" 
d="M-4 1366h315l293 -475l293 475h315l-481 -741v-625h-266v625z" />
    <glyph glyph-name="uni04C0" unicode="&#x4c0;" horiz-adv-x="577" 
d="M156 0v1366h266v-1366h-266z" />
    <glyph glyph-name="uni2000" unicode="&#x2000;" horiz-adv-x="1105" 
 />
    <glyph glyph-name="uni2001" unicode="&#x2001;" horiz-adv-x="2211" 
 />
    <glyph glyph-name="uni2002" unicode="&#x2002;" horiz-adv-x="1105" 
 />
    <glyph glyph-name="uni2003" unicode="&#x2003;" horiz-adv-x="2211" 
 />
    <glyph glyph-name="uni2004" unicode="&#x2004;" horiz-adv-x="737" 
 />
    <glyph glyph-name="uni2005" unicode="&#x2005;" horiz-adv-x="552" 
 />
    <glyph glyph-name="uni2006" unicode="&#x2006;" horiz-adv-x="368" 
 />
    <glyph glyph-name="uni2007" unicode="&#x2007;" horiz-adv-x="368" 
 />
    <glyph glyph-name="uni2008" unicode="&#x2008;" horiz-adv-x="276" 
 />
    <glyph glyph-name="uni2009" unicode="&#x2009;" horiz-adv-x="442" 
 />
    <glyph glyph-name="uni200A" unicode="&#x200a;" horiz-adv-x="122" 
 />
    <glyph glyph-name="uni2010" unicode="&#x2010;" horiz-adv-x="696" 
d="M82 356v230h532v-230h-532z" />
    <glyph glyph-name="uni2011" unicode="&#x2011;" horiz-adv-x="696" 
d="M82 356v230h532v-230h-532z" />
    <glyph glyph-name="figuredash" unicode="&#x2012;" horiz-adv-x="696" 
d="M82 356v230h532v-230h-532z" />
    <glyph glyph-name="endash" unicode="&#x2013;" horiz-adv-x="1228" 
d="M102 365v213h1024v-213h-1024z" />
    <glyph glyph-name="emdash" unicode="&#x2014;" horiz-adv-x="1638" 
d="M102 365v213h1434v-213h-1434z" />
    <glyph glyph-name="quoteleft" unicode="&#x2018;" horiz-adv-x="622" 
d="M86 848l289 543l157 -19l-217 -551z" />
    <glyph glyph-name="quoteright" unicode="&#x2019;" horiz-adv-x="757" 
d="M86 842l217 551l229 -27l-288 -543z" />
    <glyph glyph-name="quotesinglbase" unicode="&#x201a;" horiz-adv-x="757" 
d="M86 -268l217 551l229 -27l-288 -543z" />
    <glyph glyph-name="quotedblleft" unicode="&#x201c;" horiz-adv-x="1007" 
d="M86 848l289 543l157 -19l-217 -551zM471 848l289 543l158 -19l-218 -551z" />
    <glyph glyph-name="quotedblright" unicode="&#x201d;" horiz-adv-x="1167" 
d="M86 842l217 551l229 -27l-288 -543zM471 842l217 551l230 -27l-289 -543z" />
    <glyph glyph-name="quotedblbase" unicode="&#x201e;" horiz-adv-x="1167" 
d="M86 -268l217 551l229 -27l-288 -543zM471 -268l217 551l230 -27l-289 -543z" />
    <glyph glyph-name="dagger" unicode="&#x2020;" 
d="M139 995v213h324v326h237v-326h324v-213h-324v-1323h-237v1323h-324z" />
    <glyph glyph-name="daggerdbl" unicode="&#x2021;" 
d="M139 344v213h324v438h-324v213h324v326h237v-326h324v-213h-324v-438h324v-213h-324v-672h-237v672h-324z" />
    <glyph glyph-name="bullet" unicode="&#x2022;" horiz-adv-x="1368" 
d="M397 696.5q0 118.5 84 202.5t203 84t203 -84t84 -202.5t-84 -202.5t-203 -84t-203 84t-84 202.5z" />
    <glyph glyph-name="ellipsis" unicode="&#x2026;" horiz-adv-x="1732" 
d="M129 133.5q0 67.5 46 113.5t113.5 46t114 -46t46.5 -113.5t-46.5 -114t-114 -46.5t-113.5 46.5t-46 114zM707 133.5q0 67.5 46 113.5t113.5 46t113.5 -46t46 -113.5t-46 -114t-113.5 -46.5t-113.5 46.5t-46 114zM1284 133.5q0 67.5 46 113.5t113.5 46t114 -46
t46.5 -113.5t-46.5 -114t-114 -46.5t-113.5 46.5t-46 114z" />
    <glyph glyph-name="uni202F" unicode="&#x202f;" horiz-adv-x="442" 
 />
    <glyph glyph-name="perthousand" unicode="&#x2030;" horiz-adv-x="2396" 
d="M61 1059q0 141 93.5 232t251 91t251 -91t93.5 -232t-93.5 -232.5t-251 -91.5t-251 91.5t-93.5 232.5zM233 1059q0 -78 48.5 -127t124 -49t124 49t48.5 127t-48.5 127t-124 49t-124 -49t-48.5 -127zM332 6l813 1405l108 -61l-813 -1407zM836 303q0 141 93 232.5
t250.5 91.5t251 -91.5t93.5 -232.5t-93.5 -232t-251 -91t-250.5 91t-93 232zM1008 303q0 -78 48 -127t123.5 -49t124 49t48.5 127t-48.5 127t-124 49t-123.5 -49t-48 -127zM1647 303q0 141 93 232.5t250.5 91.5t251 -91.5t93.5 -232.5t-93.5 -232t-251 -91t-250.5 91
t-93 232zM1819 303q0 -78 48 -127t123.5 -49t124 49t48.5 127t-48.5 127t-124 49t-123.5 -49t-48 -127z" />
    <glyph glyph-name="guilsinglleft" unicode="&#x2039;" horiz-adv-x="651" 
d="M82 449l324 438l143 -103l-250 -335l250 -336l-143 -103z" />
    <glyph glyph-name="guilsinglright" unicode="&#x203a;" horiz-adv-x="651" 
d="M102 113l250 336l-250 335l144 103l323 -438l-323 -439z" />
    <glyph glyph-name="uni205F" unicode="&#x205f;" horiz-adv-x="552" 
 />
    <glyph glyph-name="Euro" unicode="&#x20ac;" 
d="M39 444l67 185h80q-2 16 -2 61q0 39 2 55h-147l67 185h99q86 467 540 467q217 0 328 -72v-242q-102 90 -293 91q-272 0 -319 -244h545l-66 -185h-506q0 -6 -1 -24.5t-1 -28.5q0 -12 1 -33.5t1 -29.5h461l-66 -185h-366q45 -252 319 -251q186 0 291 92v-246
q-98 -68 -328 -68q-459 0 -538 473h-168z" />
    <glyph glyph-name="trademark" unicode="&#x2122;" horiz-adv-x="1474" 
d="M-4 1210v156h510v-156h-168v-622h-174v622h-168zM532 588l140 792h127l190 -473l201 473h127l125 -792h-174l-60 428l-184 -438h-70l-180 438l-67 -428h-175z" />
    <glyph glyph-name="notequal" unicode="&#x2260;" horiz-adv-x="1024" 
d="M31 -170l782 1811l181 -82l-783 -1811zM68 410v217h888v-217h-888zM68 762v217h888v-217h-888z" />
    <glyph glyph-name="uniE000" unicode="&#xe000;" horiz-adv-x="885" 
d="M0 885h885v-885h-885v885z" />
    <glyph glyph-name="uniFB01" unicode="&#xfb01;" horiz-adv-x="1085" 
d="M692 1261.5q0 61.5 44 105.5t105.5 44t105.5 -44t44 -105.5t-44 -105.5t-105.5 -44t-105.5 44t-44 105.5zM717 0v887h250v-887h-250zM29 674v213h94v284q0 217 117 314q88 74 219 74q78 0 143 -31v-228q-49 37 -113 37q-59 0 -90 -45q-27 -43 -26 -153v-252h229v-213
h-229v-674h-250v674h-94z" />
    <glyph glyph-name="uniFB02" unicode="&#xfb02;" horiz-adv-x="1085" 
d="M717 0v1534h250v-1534h-250zM29 674v213h94v284q0 217 117 314q88 74 219 74q78 0 143 -31v-228q-49 37 -113 37q-59 0 -90 -45q-27 -43 -26 -153v-252h229v-213h-229v-674h-250v674h-94z" />
    </font>
</defs>
</svg>
