<svg width="614" height="884" viewBox="0 0 614 884" fill="none" xmlns="http://www.w3.org/2000/svg">
<path fill-rule="evenodd" clip-rule="evenodd" d="M30.5 0.5H30H0.5V30.5H27V70.8159C22.4639 71.9238 18.3076 72.4282 14.9678 72.5005L13.5 72.5317V102V781.5H15C19.1699 781.5 23.168 781.769 27 782.274V809.604C23.1445 808.706 19.5615 808.221 16.5 808.056V808H13.5V810.968L14.9678 811C18.2715 811.07 22.4336 811.573 27 812.689V853H0.5V853.5V855V882V883V883.5H2H29H30.5V883V882V856.5H583.5V883H584V883.5H585.5H612H613.5V883V882V855V853.5V853H587V812.689C591.566 811.573 595.729 811.07 599.032 811L600.5 810.968V808H597.5V808.056C594.438 808.221 590.855 808.706 587 809.604V782.274C590.832 781.768 594.83 781.5 599 781.5H600.5V102V72.5317L599.032 72.5005C595.692 72.4282 591.536 71.9238 587 70.8159V30.5H613.5V0.5H584H583.5V27.5H30.5V0.5ZM597.5 101.988V75.4438C594.46 75.2788 590.875 74.7949 587 73.8901V101.226C590.37 101.671 593.869 101.932 597.5 101.988ZM583.5 103.733V195H584H586.5H587V104.251C590.376 104.682 593.875 104.934 597.5 104.989V778.512C593.875 778.566 590.376 778.818 587 779.249V689V688.5H583.5V779.767C562.248 783.344 546.107 794.1 534.32 806.923C520.291 822.185 512.407 840.393 509.313 853H104.687C101.593 840.393 93.709 822.185 79.6797 806.923C67.8926 794.1 51.752 783.343 30.5 779.767V689V688.5H27V779.249C25.5762 779.067 24.1309 778.918 22.6631 778.802C21.8008 778.733 20.9307 778.676 20.0527 778.631C18.8818 778.57 17.6982 778.53 16.5 778.512V104.989C17.958 104.967 19.3955 104.913 20.8135 104.828C22.9199 104.702 24.9824 104.508 27 104.251V195H27.5H30H30.5V103.733C51.752 100.156 67.8926 89.4004 79.6797 76.5776C93.709 61.3154 101.593 43.1089 104.687 30.5H509.313C512.407 43.1089 520.291 61.3154 534.32 76.5776C546.107 89.4004 562.248 100.156 583.5 103.733ZM583.5 100.689V72.9761C567.316 68.3018 547.681 56.3369 541.313 30.5H512.407C515.517 42.6572 523.151 59.9941 536.529 74.5474C547.839 86.8506 563.235 97.1533 583.5 100.689ZM101.593 30.5H72.6865C66.3193 56.3369 46.6836 68.3018 30.5 72.9761V100.689C50.7646 97.1533 66.1611 86.8506 77.4707 74.5474C90.8486 59.9941 98.4834 42.6572 101.593 30.5ZM27 101.226V73.8901C24.7822 74.4077 22.6602 74.7876 20.6807 75.0493C19.2012 75.2446 17.8008 75.3735 16.5 75.4438V101.988C20.1309 101.932 23.6299 101.671 27 101.226ZM30.5 782.811V810.518C46.627 815.176 66.3154 827.153 72.6865 853H101.593C98.4834 840.842 90.8477 823.506 77.4707 808.952C66.1611 796.649 50.7646 786.347 30.5 782.811ZM30.5 853H69.5918C63.4883 829.463 45.6572 818.233 30.5 813.646V853ZM583.5 782.811V810.518C567.373 815.176 547.685 827.153 541.313 853H512.407C515.517 840.842 523.152 823.506 536.529 808.952C547.839 796.649 563.235 786.347 583.5 782.811ZM30.5 69.8594V30.5H69.5918C63.4844 54.0454 45.6045 65.2871 30.5 69.8594ZM583.5 69.8594C568.396 65.2871 550.516 54.0454 544.408 30.5H583.5V69.8594ZM3.5 3.5H27V27.5H3.5V3.5ZM587 27.5V3.5H610.5V27.5H587ZM27 856.5V880H3.5V856.5H27ZM610.5 880V856.5H587V880H610.5ZM583.5 813.646C568.343 818.233 550.512 829.463 544.408 853H583.5V813.646ZM30.5 233H27V651H30.5V233ZM583.5 233H587V651H583.5V233Z" fill="#DCCFA4"/>
</svg>
